{
.appVersion = "3337";
.formatVersion = 3;
DisplayStrings = (
"AÄÆBHCDEÉFGHIAJKLMNOÖPQRSTUÜVWXYßZaäæbcdeéfghiıjȷklmnoöpqrsßtuüvwxyz/c_t/f_f/f_f_i/f_f_l/f_i/f_l/s_t 0123456789/zero.tf/one.tf/two.tf/three.tf/four.tf/five.tf/six.tf/seven.tf/eight.tf/nine.tf  /nbspace/enspace/emspace/enquad/emquad/thinspace/hairspace .,:;…!¡?¿·•*#///backslash/asterisk.alt -–—_(){}[]‚„“”‘’«»‹›\"'฿@&¶§°©®™′″|¦†ℓ‡℮№¤$€₪£¥₿₵¢₡₫₲₴₭₾₺₼₦₱₽₨₹₸₮₩+−×÷=≠><≥≤±≈~¬^∞∅∫Ω∆∏∑√∂µ%‰↑↗→↘↓↙←↖↔↕●○◌◦◆◇◊■□▪▫▲▶▼◀△▷▽◁▴▸▾◂▵▹▿◃̈́/dot/u00ad"
);
customParameters = (
{
name = vendorID;
value = TBLD;
},
{
name = fsType;
value = (
3
);
}
);
date = "2024-11-13 15:33:12 +0000";
familyName = OHamburgC;
featurePrefixes = (
{
automatic = 1;
code = "languagesystem DFLT dflt;
";
name = Languagesystems;
}
);
features = (
{
automatic = 1;
code = "feature tnum;
feature case;
";
tag = aalt;
},
{
automatic = 1;
code = "lookup ccmp_DFLT_1 {
	@CombiningTopAccents = [acutecomb dieresiscomb];
	lookupflag UseMarkFilteringSet @CombiningTopAccents;
	sub i' @CombiningTopAccents by idotless;
	sub j' @CombiningTopAccents by jdotless;
} ccmp_DFLT_1;
";
tag = ccmp;
},
{
automatic = 1;
code = "sub zero by zero.tf;
sub one by one.tf;
sub two by two.tf;
sub three by three.tf;
sub four by four.tf;
sub five by five.tf;
sub six by six.tf;
sub seven by seven.tf;
sub eight by eight.tf;
sub nine by nine.tf;
";
tag = tnum;
},
{
automatic = 1;
code = "sub zero by zero.tf;
sub one by one.tf;
sub two by two.tf;
sub three by three.tf;
sub four by four.tf;
sub five by five.tf;
sub six by six.tf;
sub seven by seven.tf;
sub eight by eight.tf;
sub nine by nine.tf;
";
tag = case;
},
{
automatic = 1;
code = "lookupflag IgnoreMarks;
sub c t by c_t;
sub s t by s_t;
";
tag = dlig;
},
{
automatic = 1;
code = "lookupflag IgnoreMarks;
sub f f i by f_f_i;
sub f f l by f_f_l;
sub f f by f_f;
sub f i by f_i;
sub f l by f_l;
";
tag = liga;
}
);
fontMaster = (
{
customParameters = (
{
name = typoAscender;
value = 920;
},
{
name = typoDescender;
value = -280;
},
{

glyphs = (
{
color = 6;
glyphname = A;
lastChange = "2025-01-02 14:42:58 +0000";
layers = (
{
anchors = (
{
name = bottom;
pos = (352,0);
},
{
name = ogonek;
pos = (634,10);
},
{
name = top;
pos = (352,616);
}
);
layerId = m005;
shapes = (
{
closed = 1;
nodes = (
(688,0,l),
(688,25,l),
(621,39,o),
(597,64,o),
(567,135,cs),
(499,306,o),
(432,477,o),
(364,648,c),
(318,576,l),
(314,555,l),
(478,141,l),
(511,55,o),
(503,43,o),
(416,25,c),
(416,0,l)
);
},
{
closed = 1;
nodes = (
(264,0,l),
(264,23,l),
(190,23,o),
(164,55,o),
(192,130,cs),
(353,564,l),
(318,576,l),
(253,404,o),
(185,198,o),
(123,83,cs),
(104,49,o),
(60,25,o),
(16,25,c),
(16,0,l)
);
},
{
closed = 1;
nodes = (
(472,258,l),
(458,298,l),
(229,298,l),
(212,258,l)
);
}
);
width = 704;
}
);
unicode = 65;
},
{
glyphname = AE;
lastChange = "2025-01-01 20:22:03 +0000";
layers = (
{
layerId = m005;
shapes = (
{
closed = 1;
nodes = (
(267,0,l),
(267,23,l),
(193,23,o),
(155,59,o),
(192,130,cs),
(438,604,l),
(379,616,l),
(314,444,o),
(185,198,o),
(123,83,cs),
(104,49,o),
(60,25,o),
(16,25,c),
(16,0,l)
);
},
{
closed = 1;
nodes = (
(528,274,l),
(514,314,l),
(253,314,l),
(236,274,l)
);
},
{
closed = 1;
nodes = (
(401,-1,o),
(449,0,o),
(494,0,c),
(641,0,o),
(767,-1,o),
(844,-3,c),
(858,44,o),
(868,110,o),
(868,157,c),
(839,157,l),
(827,90,o),
(788,45,o),
(745,42,cs),
(713,40,o),
(681,39,o),
(624,39,cs),
(586,39,o),
(554,51,o),
(546,68,cs),
(543,74,o),
(541,90,o),
(541,107,cs),
(539,309,ls),
(539,328,o),
(540,407,o),
(541,509,cs),
(541,537,o),
(552,561,o),
(568,569,cs),
(578,574,o),
(602,577,o),
(624,577,cs),
(652,577,o),
(662,576,o),
(694,574,cs),
(719,572,o),
(742,544,o),
(750,499,c),
(784,499,l),
(785,536,o),
(790,586,o),
(797,619,c),
(732,617,o),
(629,616,o),
(504,616,c),
(455,616,o),
(404,616,o),
(379,616,c),
(379,598,l),
(421,586,o),
(453,572,o),
(457,565,cs),
(461,557,o),
(463,541,o),
(463,525,cs),
(465,312,l),
(463,91,ls),
(463,64,o),
(451,40,o),
(435,32,cs),
(437,33,o),
(413,27,o),
(379,18,c),
(379,-3,l)
);
},
{
closed = 1;
nodes = (
(731,184,l),
(725,250,o),
(725,342,o),
(731,408,c),
(705,408,l),
(704,402,o),
(699,388,o),
(694,374,c),
(677,338,o),
(686,314,o),
(626,314,cs),
(487,314,l),
(487,274,l),
(626,274,ls),
(693,274,o),
(683,252,o),
(695,220,cs),
(706,184,l)
);
}
);
width = 904;
}
);
unicode = 198;
},
{
color = 6;
glyphname = B;
lastChange = "2025-01-02 14:43:02 +0000";
layers = (
{
layerId = m005;
shapes = (
{
closed = 1;
nodes = (
(27,0,l),
(307,0,l),
(307,39,l),
(263,39,o),
(201,50,o),
(196,65,cs),
(193,71,o),
(191,87,o),
(191,104,cs),
(190,177,o),
(190,229,o),
(189,302,cs),
(189,262,o),
(191,345,o),
(191,511,c),
(192,574,l),
(212,576,o),
(274,576,o),
(287,576,c),
(287,616,l),
(27,616,l),
(27,598,l),
(70,586,o),
(102,572,o),
(105,565,cs),
(109,561,o),
(111,545,o),
(111,525,cs),
(112,341,o),
(113,253,o),
(113,312,cs),
(113,373,o),
(112,282,o),
(111,91,cs),
(111,65,o),
(99,40,o),
(83,32,cs),
(83,32,o),
(60,26,o),
(27,18,c)
);
},
{
closed = 1;
nodes = (
(181,318,o),
(189,318,o),
(221,318,cs),
(390,318,o),
(483,383,o),
(483,476,cs),
(483,558,o),
(402,616,o),
(287,616,c),
(287,576,l),
(350,576,o),
(394,527,o),
(394,457,cs),
(394,393,o),
(335,348,o),
(214,348,cs),
(154,348,l),
(155,318,l)
);
},
{
closed = 1;
nodes = (
(433,0,o),
(522,81,o),
(522,196,cs),
(522,272,o),
(436,333,o),
(314,338,cs),
(136,346,l),
(136,314,l),
(158,314,o),
(170,314,o),
(207,314,cs),
(353,314,o),
(429,257,o),
(429,176,cs),
(429,96,o),
(378,39,o),
(307,39,c),
(307,0,l)
);
}
);
width = 568;
}
);
unicode = 66;
},
{
color = 6;
glyphname = C;
lastChange = "2025-01-02 14:43:06 +0000";
layers = (
{
backgroundImage = {
imagePath = "../../Desktop/Bildschirmfoto 2024-12-24 um 08.52.09.png";
pos = (716,-952);
scale = (-1.4,1.4);
};
layerId = m005;
shapes = (
{
closed = 1;
nodes = (
(485,-11,o),
(578,9,o),
(633,38,c),
(651,108,o),
(667,175,o),
(671,201,c),
(635,200,l),
(611,102,o),
(525,33,o),
(427,33,cs),
(267,33,o),
(153,158,o),
(153,335,cs),
(153,482,o),
(263,586,o),
(419,586,cs),
(511,586,o),
(587,522,o),
(602,432,c),
(642,432,l),
(639,599,l),
(589,573,l),
(556,605,o),
(482,627,o),
(409,627,cs),
(202,627,o),
(56,496,o),
(56,312,cs),
(56,123,o),
(202,-11,o),
(409,-11,cs)
);
}
);
width = 721;
}
);
unicode = 67;
},
{
color = 6;
glyphname = D;
lastChange = "2025-01-02 14:43:13 +0000";
layers = (
{
background = {
shapes = (
{
closed = 1;
nodes = (
(16,0,l),
(284,0,l),
(284,18,l),
(238,31,o),
(207,33,o),
(198,52,cs),
(194,60,o),
(193,73,o),
(193,91,cs),
(192,164,o),
(192,237,o),
(191,310,cs),
(190,382,o),
(192,453,o),
(193,525,cs),
(193,561,o),
(199,575,o),
(220,585,cs),
(231,590,o),
(257,591,o),
(284,598,c),
(284,616,l),
(24,616,l),
(24,598,l),
(70,585,o),
(96,583,o),
(105,565,cs),
(109,556,o),
(111,543,o),
(111,525,cs),
(112,454,o),
(113,383,o),
(113,312,cs),
(113,238,o),
(112,165,o),
(111,91,cs),
(111,55,o),
(104,42,o),
(83,32,cs),
(72,27,o),
(43,25,o),
(16,18,c)
);
}
);
};
backgroundImage = {
imagePath = "../../Desktop/Bildschirmfoto 2024-12-24 um 13.06.05.png";
pos = (763,-1011);
scale = (-1.4,1.4);
};
layerId = m005;
shapes = (
{
closed = 1;
nodes = (
(16,0,l),
(45,0,o),
(107,0,o),
(149,0,cs),
(149,0,o),
(195,1,o),
(317,-3,c),
(334,38,l),
(259,36,o),
(201,41,o),
(196,52,cs),
(193,58,o),
(191,74,o),
(191,91,cs),
(190,164,o),
(190,237,o),
(189,310,cs),
(189,380,o),
(190,489,o),
(191,570,c),
(237,576,o),
(285,578,o),
(331,578,c),
(347,619,l),
(266,618,o),
(192,616,o),
(152,616,c),
(106,616,o),
(53,616,o),
(24,616,c),
(24,598,l),
(65,590,o),
(99,576,o),
(105,565,cs),
(109,559,o),
(111,542,o),
(111,525,cs),
(112,411,o),
(113,323,o),
(113,312,cs),
(113,302,o),
(112,210,o),
(111,91,cs),
(111,64,o),
(99,40,o),
(83,32,cs),
(80,31,o),
(53,25,o),
(16,19,c)
);
},
{
closed = 1;
nodes = (
(317,-3,l),
(520,-2,o),
(664,135,o),
(664,327,cs),
(664,498,o),
(533,619,o),
(347,619,c),
(330,578,l),
(471,578,o),
(571,462,o),
(571,298,cs),
(571,146,o),
(473,38,o),
(334,38,c)
);
}
);
width = 720;
}
);
unicode = 68;
},
{
color = 6;
glyphname = E;
lastChange = "2025-01-02 14:43:19 +0000";
layers = (
{
anchors = (
{
name = bottom;
pos = (292,0);
},
{
name = ogonek;
pos = (526,10);
},
{
name = top;
pos = (292,616);
},
{
name = topleft;
pos = (20,616);
}
);
layerId = m005;
shapes = (
{
closed = 1;
nodes = (
(49,-1,o),
(97,0,o),
(142,0,c),
(289,0,o),
(447,-1,o),
(524,-3,c),
(538,44,o),
(548,110,o),
(548,157,c),
(519,157,l),
(507,90,o),
(468,45,o),
(425,42,cs),
(393,40,o),
(329,39,o),
(272,39,cs),
(234,39,o),
(205,51,o),
(197,68,cs),
(194,74,o),
(192,90,o),
(192,107,cs),
(190,309,ls),
(190,328,o),
(191,407,o),
(192,509,cs),
(192,537,o),
(200,561,o),
(216,569,cs),
(226,574,o),
(250,577,o),
(272,577,cs),
(300,577,o),
(342,576,o),
(374,574,cs),
(399,572,o),
(422,544,o),
(430,499,c),
(464,499,l),
(465,536,o),
(470,586,o),
(477,619,c),
(412,617,o),
(277,616,o),
(152,616,c),
(103,616,o),
(52,617,o),
(27,619,c),
(27,598,l),
(69,586,o),
(101,572,o),
(105,565,cs),
(109,557,o),
(111,541,o),
(111,525,cs),
(113,312,l),
(111,91,ls),
(111,64,o),
(99,40,o),
(83,32,cs),
(85,33,o),
(61,27,o),
(27,18,c),
(27,-3,l)
);
},
{
closed = 1;
nodes = (
(411,206,l),
(405,272,o),
(405,364,o),
(411,430,c),
(385,430,l),
(384,424,o),
(379,410,o),
(374,396,c),
(357,360,o),
(334,336,o),
(274,336,cs),
(135,336,l),
(135,296,l),
(274,296,ls),
(341,296,o),
(363,274,o),
(375,242,cs),
(386,206,l)
);
}
);
width = 585;
}
);
unicode = 69;
},
{
glyphname = F;
lastChange = "2025-01-02 14:43:33 +0000";
layers = (
{
layerId = m005;
shapes = (
{
closed = 1;
nodes = (
(49,-1,o),
(247,0,o),
(292,0,c),
(292,25,l),
(254,25,o),
(206,47,o),
(198,64,cs),
(195,70,o),
(193,86,o),
(193,103,cs),
(191,304,ls),
(191,328,o),
(192,407,o),
(193,509,cs),
(193,537,o),
(204,561,o),
(216,569,cs),
(226,575,o),
(245,577,o),
(267,577,cs),
(295,577,o),
(337,576,o),
(369,574,cs),
(394,572,o),
(417,544,o),
(425,499,c),
(459,499,l),
(460,536,o),
(465,586,o),
(472,619,c),
(407,617,o),
(272,616,o),
(152,616,c),
(103,616,o),
(52,617,o),
(27,619,c),
(27,598,l),
(69,586,o),
(101,572,o),
(105,565,cs),
(109,557,o),
(111,541,o),
(111,525,cs),
(113,312,l),
(111,91,ls),
(111,64,o),
(99,40,o),
(83,32,cs),
(85,33,o),
(61,27,o),
(27,18,c),
(27,-3,l)
);
},
{
closed = 1;
nodes = (
(416,206,l),
(410,272,o),
(410,364,o),
(416,430,c),
(390,430,l),
(389,424,o),
(384,410,o),
(379,396,c),
(362,360,o),
(339,336,o),
(279,336,cs),
(145,336,l),
(145,296,l),
(279,296,ls),
(346,296,o),
(368,274,o),
(380,242,cs),
(391,206,l)
);
}
);
width = 488;
}
);
unicode = 70;
},
{
color = 6;
glyphname = G;
lastChange = "2025-01-02 14:43:42 +0000";
layers = (
{
backgroundImage = {
imagePath = "../../Desktop/Bildschirmfoto 2024-12-23 um 19.38.00.png";
pos = (717,-876);
scale = (-1.37,1.3692);
};
layerId = m005;
shapes = (
{
closed = 1;
nodes = (
(484,-11,o),
(585,11,o),
(642,43,c),
(636,56,l),
(618,57,o),
(605,67,o),
(605,79,c),
(605,208,l),
(605,233,o),
(621,255,o),
(644,260,c),
(669,266,l),
(669,295,l),
(423,295,l),
(423,261,l),
(481,252,o),
(522,233,o),
(522,196,c),
(522,76,l),
(522,55,o),
(490,33,o),
(445,33,cs),
(263,33,o),
(150,141,o),
(150,333,cs),
(150,482,o),
(259,588,o),
(414,588,cs),
(510,588,o),
(583,528,o),
(590,444,c),
(621,444,l),
(620,493,o),
(623,562,o),
(630,595,c),
(581,614,o),
(481,627,o),
(406,627,cs),
(201,627,o),
(56,495,o),
(56,308,cs),
(56,121,o),
(199,-11,o),
(400,-11,cs)
);
}
);
width = 712;
}
);
unicode = 71;
},
{
color = 4;
glyphname = H;
lastChange = "2024-12-30 17:30:45 +0000";
layers = (
{
background = {
shapes = (
{
closed = 1;
nodes = (
(184,609,l,{
"Letterink-NibData" = {
AngleInDegrees = "0";
};
}),
(180,616,l,{
"Letterink-NibData" = {
AngleInDegrees = "360";
};
}),
(111,576,l),
(111,7,l,{
"Letterink-NibData" = {
AngleInDegrees = "360";
};
}),
(115,0,l,{
"Letterink-NibData" = {
AngleInDegrees = "360";
};
}),
(184,40,l),
(184,304,l),
(598,304,l),
(598,7,l,{
"Letterink-NibData" = {
AngleInDegrees = "360";
};
}),
(602,0,l,{
"Letterink-NibData" = {
AngleInDegrees = "360";
};
}),
(672,40,l),
(672,609,l,{
"Letterink-NibData" = {
AngleInDegrees = "0";
};
}),
(668,616,l,{
"Letterink-NibData" = {
AngleInDegrees = "359.99999";
};
}),
(598,576,l),
(598,351,l),
(184,351,l)
);
},
{
closed = 0;
nodes = (
(256,616,l),
(256,591,l),
(228,583,o),
(210,576,o),
(199,564,cs),
(190,553,o),
(186,538,o),
(186,512,cs)
);
}
);
};
layerId = m005;
shapes = (
{
closed = 1;
nodes = (
(288,0,l),
(288,25,l),
(261,33,o),
(218,39,o),
(207,51,cs),
(197,61,o),
(192,77,o),
(192,104,cs),
(191,178,o),
(191,252,o),
(190,326,cs),
(189,388,o),
(191,450,o),
(192,512,cs),
(192,539,o),
(198,556,o),
(207,565,cs),
(218,577,o),
(261,583,o),
(288,591,c),
(288,616,l),
(16,616,l),
(16,591,l),
(44,583,o),
(87,576,o),
(98,564,cs),
(107,553,o),
(111,538,o),
(111,512,cs),
(112,450,o),
(113,389,o),
(113,327,cs),
(113,253,o),
(112,178,o),
(111,104,cs),
(111,78,o),
(107,63,o),
(98,52,cs),
(87,40,o),
(44,33,o),
(16,25,c),
(16,0,l)
);
},
{
closed = 1;
nodes = (
(744,0,l),
(744,25,l),
(717,33,o),
(675,39,o),
(664,51,cs),
(654,61,o),
(649,77,o),
(649,104,cs),
(648,179,o),
(648,255,o),
(647,330,cs),
(646,391,o),
(648,451,o),
(649,512,cs),
(649,539,o),
(653,554,o),
(664,565,cs),
(675,577,o),
(717,583,o),
(744,591,c),
(744,616,l),
(472,616,l),
(472,591,l),
(500,583,o),
(544,576,o),
(555,564,cs),
(564,553,o),
(568,538,o),
(568,512,cs),
(569,451,o),
(570,390,o),
(570,329,cs),
(570,254,o),
(569,179,o),
(568,104,cs),
(568,78,o),
(564,63,o),
(555,52,cs),
(544,40,o),
(500,33,o),
(472,25,c),
(472,0,l)
);
},
{
closed = 1;
nodes = (
(601,304,l),
(601,349,l),
(158,349,l),
(158,304,l)
);
}
);
width = 760;
}
);
note = H;
unicode = 72;
},
{
color = 4;
glyphname = I;
lastChange = "2024-12-30 16:27:51 +0000";
layers = (
{
background = {
shapes = (
{
closed = 1;
nodes = (
(186,40,l),
(186,609,l,{
"Letterink-NibData" = {
AngleInDegrees = "0";
};
}),
(182,616,l,{
"Letterink-NibData" = {
AngleInDegrees = "360";
};
}),
(113,576,l),
(113,7,l,{
"Letterink-NibData" = {
AngleInDegrees = "360";
};
}),
(117,0,l,{
"Letterink-NibData" = {
AngleInDegrees = "360";
};
})
);
}
);
};
layerId = m005;
shapes = (
{
closed = 1;
nodes = (
(16,0,l),
(284,0,l),
(284,18,l),
(238,31,o),
(207,33,o),
(198,52,cs),
(194,60,o),
(193,73,o),
(193,91,cs),
(192,164,o),
(192,237,o),
(191,310,cs),
(190,382,o),
(192,453,o),
(193,525,cs),
(193,561,o),
(199,575,o),
(220,585,cs),
(231,590,o),
(257,591,o),
(284,598,c),
(284,616,l),
(24,616,l),
(24,598,l),
(70,585,o),
(96,583,o),
(105,565,cs),
(109,556,o),
(111,543,o),
(111,525,cs),
(112,454,o),
(113,383,o),
(113,312,cs),
(113,238,o),
(112,165,o),
(111,91,cs),
(111,55,o),
(104,42,o),
(83,32,cs),
(72,27,o),
(43,25,o),
(16,18,c)
);
}
);
width = 304;
}
);
note = I;
unicode = 73;
},
{
glyphname = J;
lastChange = "2025-01-02 14:43:48 +0000";
layers = (
{
layerId = m005;
shapes = (
{
closed = 1;
nodes = (
(22,-232,o),
(58,-213,o),
(86,-187,cs),
(149,-127,o),
(192,15,o),
(190,148,cs),
(188,310,ls),
(188,331,o),
(189,420,o),
(190,525,cs),
(190,553,o),
(201,575,o),
(217,583,cs),
(224,587,o),
(242,590,o),
(280,598,c),
(280,616,l),
(24,616,l),
(24,598,l),
(66,588,o),
(97,580,o),
(105,565,cs),
(109,557,o),
(112,541,o),
(112,525,cs),
(112,81,ls),
(112,4,o),
(106,-74,o),
(98,-101,c),
(98,-100,l),
(88,-133,o),
(69,-157,o),
(52,-157,cs),
(33,-158,o),
(31,-135,o),
(12,-134,cs),
(-21,-134,o),
(-44,-163,o),
(-44,-203,cs),
(-44,-220,o),
(-26,-232,o),
(0,-232,cs)
);
}
);
width = 280;
}
);
unicode = 74;
},
{
color = 6;
glyphname = K;
lastChange = "2025-01-02 14:43:51 +0000";
layers = (
{
background = {
shapes = (
{
closed = 0;
nodes = (
(475,91,l),
(475,55,o),
(469,41,o),
(448,31,cs),
(437,26,o),
(419,25,o),
(392,18,c),
(392,0,l),
(637,0,l),
(637,18,l),
(591,31,o),
(568,33,o),
(559,51,cs),
(555,60,o),
(553,73,o),
(553,91,c)
);
},
{
closed = 0;
nodes = (
(497,525,l),
(497,561,o),
(503,575,o),
(524,585,cs),
(535,590,o),
(553,591,o),
(580,598,c),
(580,616,l),
(335,616,l),
(335,598,l),
(381,585,o),
(404,583,o),
(413,565,cs),
(417,556,o),
(419,543,o),
(419,525,cs)
);
}
);
};
layerId = m005;
shapes = (
{
closed = 1;
nodes = (
(27,0,l),
(272,0,l),
(272,18,l),
(226,31,o),
(203,33,o),
(194,52,cs),
(190,60,o),
(189,73,o),
(189,91,cs),
(188,164,o),
(188,237,o),
(187,310,cs),
(186,382,o),
(188,453,o),
(189,525,cs),
(189,561,o),
(195,575,o),
(216,585,cs),
(227,590,o),
(245,591,o),
(272,598,c),
(272,616,l),
(27,616,l),
(27,598,l),
(73,585,o),
(96,583,o),
(105,565,cs),
(109,556,o),
(111,543,o),
(111,525,cs),
(112,454,o),
(113,383,o),
(113,312,cs),
(113,238,o),
(112,165,o),
(111,91,cs),
(111,55,o),
(104,42,o),
(83,32,cs),
(72,27,o),
(54,25,o),
(27,18,c)
);
},
{
closed = 1;
nodes = (
(419,503,l),
(455,540,o),
(500,574,o),
(528,586,cs),
(542,592,o),
(564,597,o),
(580,598,c),
(580,616,l),
(324,616,l),
(324,598,l),
(370,593,o),
(392,576,o),
(392,556,cs),
(392,545,o),
(381,524,o),
(365,505,c),
(142,267,l),
(175,251,l)
);
},
{
closed = 1;
nodes = (
(637,18,l),
(569,34,o),
(538,47,o),
(488,98,c),
(266,352,l),
(204,297,l),
(276,213,o),
(398,72,o),
(427,40,cs),
(456,8,o),
(479,-4,o),
(522,-3,cs),
(637,0,l)
);
}
);
width = 640;
}
);
unicode = 75;
},
{
color = 6;
glyphname = L;
lastChange = "2025-01-02 14:43:54 +0000";
layers = (
{
layerId = m005;
shapes = (
{
closed = 1;
nodes = (
(27,-2,l),
(109,2,o),
(190,4,o),
(272,2,c),
(272,42,l),
(233,43,o),
(200,53,o),
(194,66,cs),
(190,74,o),
(193,87,o),
(193,105,cs),
(192,178,o),
(192,237,o),
(191,310,cs),
(190,382,o),
(192,453,o),
(193,525,cs),
(193,561,o),
(195,575,o),
(216,585,cs),
(227,590,o),
(245,591,o),
(272,598,c),
(272,616,l),
(27,616,l),
(27,598,l),
(73,585,o),
(96,583,o),
(105,565,cs),
(109,556,o),
(111,543,o),
(111,525,cs),
(112,454,o),
(113,383,o),
(113,312,cs),
(113,238,o),
(112,165,o),
(111,91,cs),
(111,55,o),
(104,42,o),
(83,32,cs),
(72,27,o),
(54,25,o),
(27,18,c)
);
},
{
closed = 1;
nodes = (
(356,3,o),
(462,0,o),
(528,-3,c),
(565,97,o),
(591,168,o),
(591,168,c),
(565,179,l),
(526,93,o),
(450,45,o),
(381,43,c),
(339,42,o),
(293,41,o),
(272,42,c),
(272,2,l)
);
}
);
width = 617;
}
);
unicode = 76;
},
{
glyphname = M;
lastChange = "2025-01-02 14:43:57 +0000";
layers = (
{
backgroundImage = {
angle = -0.3;
imagePath = "../../Desktop/Bildschirmfoto 2024-12-24 um 15.40.08.png";
pos = (851,-1015);
scale = (-1.4,1.4);
};
layerId = m005;
shapes = (
{
closed = 1;
nodes = (
(702,586,l),
(673,616,l),
(426,107,l),
(445,120,l),
(214,613,l),
(42,613,l),
(42,576,l),
(84,576,ls),
(118,576,o),
(152,561,o),
(162,540,cs),
(417,-16,l)
);
},
{
closed = 1;
nodes = (
(248,1,l),
(248,26,l),
(220,34,o),
(172,41,o),
(161,53,cs),
(152,64,o),
(147,79,o),
(148,105,cs),
(168,561,l),
(128,591,l),
(108,105,ls),
(107,78,o),
(102,61,o),
(93,52,cs),
(82,40,o),
(45,34,o),
(18,26,c),
(18,1,l)
);
},
{
closed = 1;
nodes = (
(839,0,l),
(838,25,l),
(804,35,o),
(782,41,o),
(772,51,cs),
(758,65,o),
(757,82,o),
(757,104,cs),
(755,216,o),
(753,385,o),
(753,512,cs),
(753,534,o),
(759,556,o),
(768,565,cs),
(773,570,o),
(780,581,o),
(814,591,c),
(813,616,l),
(674,616,l),
(679,104,ls),
(679,80,o),
(679,65,o),
(666,52,cs),
(650,36,o),
(612,27,o),
(589,25,c),
(590,0,l)
);
}
);
width = 864;
}
);
unicode = 77;
},
{
color = 6;
glyphname = N;
lastChange = "2025-01-02 14:44:17 +0000";
layers = (
{
layerId = m005;
shapes = (
{
closed = 1;
nodes = (
(664,-11,l),
(664,157,o),
(664,443,o),
(664,512,c),
(624,512,l),
(624,97,l),
(639,110,l),
(153,616,l),
(16,616,l),
(16,592,l),
(43,584,o),
(57,587,o),
(80,566,cs),
(99,548,o),
(133,514,o),
(133,514,c),
(638,-11,l)
);
},
{
closed = 1;
nodes = (
(248,1,l),
(248,26,l),
(220,34,o),
(179,36,o),
(165,53,cs),
(152,69,o),
(152,79,o),
(152,105,c),
(112,105,l),
(112,78,o),
(111,66,o),
(97,52,cs),
(80,35,o),
(43,34,o),
(16,26,c),
(16,1,l)
);
},
{
closed = 1;
nodes = (
(152,105,l),
(152,561,l),
(112,591,l),
(112,105,l)
);
},
{
closed = 1;
nodes = (
(664,512,l),
(664,539,o),
(665,551,o),
(679,565,cs),
(696,582,o),
(717,583,o),
(744,591,c),
(744,616,l),
(528,616,l),
(528,591,l),
(556,583,o),
(595,581,o),
(611,564,cs),
(626,548,o),
(624,538,o),
(624,512,c)
);
}
);
width = 760;
}
);
unicode = 78;
},
{
color = 4;
glyphname = O;
lastChange = "2025-01-02 14:44:12 +0000";
layers = (
{
anchors = (
{
name = bottom;
pos = (380,0);
},
{
name = center;
pos = (380,308);
},
{
name = ogonek;
pos = (684,10);
},
{
name = top;
pos = (380,616);
},
{
name = topleft;
pos = (20,616);
},
{
name = topright;
pos = (740,616);
}
);
background = {
shapes = (
{
closed = 1;
nodes = (
(648,111,o),
(703,209,o),
(706,323,c,{
"Letterink-NibData" = {
AngleInDegrees = "359.99999";
};
}),
(703,395,o),
(692,434,o),
(662,483,cs,{
"Letterink-NibData" = {
AngleInDegrees = "0";
};
}),
(601,582,o),
(515,633,o),
(411,633,cs),
(362,633,o),
(314,621,o),
(273,597,cs,{
"Letterink-NibData" = {
AngleInDegrees = "359.99999";
};
}),
(203,557,ls,{
"Letterink-NibData" = {
AngleInDegrees = "359.99999";
};
}),
(177,542,o),
(125,495,o),
(108,471,cs,{
"Letterink-NibData" = {
AngleInDegrees = "360";
};
}),
(68,415,o),
(50,359,o),
(50,290,cs),
(50,121,o),
(185,-21,o),
(345,-21,cs),
(394,-21,o),
(446,-7,o),
(490,19,cs,{
"Letterink-NibData" = {
AngleInDegrees = "360";
};
}),
(559,59,ls,{
"Letterink-NibData" = {
AngleInDegrees = "0";
};
})
);
},
{
closed = 1;
nodes = (
(484,32,o),
(452,26,o),
(411,26,cs),
(337,26,o),
(254,61,o),
(209,111,cs,{
"Letterink-NibData" = {
AngleInDegrees = "360";
};
}),
(197,123,o),
(184,141,o),
(164,168,c,{
"Letterink-NibData" = {
AngleInDegrees = "359.99999";
};
}),
(133,236,o),
(123,271,o),
(123,323,cs),
(123,425,o),
(161,501,o),
(245,566,c,{
"Letterink-NibData" = {
AngleInDegrees = "0";
};
}),
(287,583,o),
(303,586,o),
(345,586,cs),
(450,586,o),
(531,538,o),
(595,438,c,{
"Letterink-NibData" = {
AngleInDegrees = "359.99999";
};
}),
(622,389,o),
(633,347,o),
(633,289,cs,{
"Letterink-NibData" = {
AngleInDegrees = "359.99999";
};
}),
(631,192,o),
(588,102,o),
(517,47,c,{
"Letterink-NibData" = {
AngleInDegrees = "0";
};
})
);
}
);
};
layerId = m005;
shapes = (
{
closed = 1;
nodes = (
(569,-11,o),
(704,121,o),
(704,308,cs),
(704,494,o),
(569,626,o),
(378,626,cs),
(189,626,o),
(56,494,o),
(56,308,cs),
(56,121,o),
(189,-11,o),
(378,-11,cs)
);
},
{
closed = 1;
nodes = (
(152,471,o),
(239,585,o),
(361,585,cs),
(506,585,o),
(608,463,o),
(608,298,cs),
(608,144,o),
(520,30,o),
(395,30,cs),
(253,30,o),
(152,152,o),
(152,318,cs)
);
}
);
width = 760;
}
);
note = O;
unicode = 79;
},
{
color = 6;
glyphname = P;
lastChange = "2025-01-02 14:33:50 +0000";
layers = (
{
background = {
shapes = (
{
closed = 1;
nodes = (
(16,0,l),
(284,0,l),
(284,18,l),
(238,31,o),
(207,33,o),
(198,52,cs),
(194,60,o),
(193,73,o),
(193,91,cs),
(192,164,o),
(192,237,o),
(191,310,cs),
(190,382,o),
(192,453,o),
(193,525,cs),
(193,561,o),
(199,575,o),
(220,585,cs),
(231,590,o),
(257,591,o),
(284,598,c),
(284,616,l),
(24,616,l),
(24,598,l),
(70,585,o),
(96,583,o),
(105,565,cs),
(109,556,o),
(111,543,o),
(111,525,cs),
(112,454,o),
(113,383,o),
(113,312,cs),
(113,238,o),
(112,165,o),
(111,91,cs),
(111,55,o),
(104,42,o),
(83,32,cs),
(72,27,o),
(43,25,o),
(16,18,c)
);
}
);
};
layerId = m005;
shapes = (
{
closed = 1;
nodes = (
(227,271,o),
(237,271,o),
(247,271,cs),
(376,271,o),
(464,337,o),
(464,448,cs),
(464,552,o),
(387,623,o),
(275,621,c),
(256,585,l),
(330,585,o),
(378,528,o),
(378,436,cs),
(378,346,o),
(315,295,o),
(217,295,c),
(217,272,l)
);
},
{
closed = 1;
nodes = (
(288,0,l),
(288,17,l),
(261,25,o),
(216,32,o),
(203,43,cs),
(192,52,o),
(192,77,o),
(192,104,cs),
(191,178,o),
(191,252,o),
(190,326,cs),
(189,388,o),
(192,460,o),
(192,522,c),
(192,583,l),
(256,585,l),
(275,621,l),
(236,620,o),
(183,616,o),
(151,616,c),
(112,616,o),
(55,617,o),
(16,618,c),
(16,591,l),
(44,586,o),
(87,571,o),
(98,559,cs),
(107,548,o),
(111,533,o),
(111,507,cs),
(112,445,o),
(113,389,o),
(113,327,cs),
(113,253,o),
(112,168,o),
(111,94,cs),
(111,68,o),
(107,53,o),
(98,42,cs),
(87,28,o),
(45,23,o),
(16,18,c),
(16,0,l)
);
}
);
width = 488;
}
);
unicode = 80;
},
{
color = 6;
glyphname = Q;
lastChange = "2025-01-02 14:34:15 +0000";
layers = (
{
backgroundImage = {
imagePath = "../../Desktop/Bildschirmfoto 2024-12-24 um 15.25.09.png";
pos = (967,-1126);
scale = (-1.4,1.4);
};
layerId = m005;
shapes = (
{
closed = 1;
nodes = (
(575,-11,o),
(711,121,o),
(711,308,cs),
(711,494,o),
(575,626,o),
(383,626,cs),
(191,626,o),
(56,494,o),
(56,308,cs),
(56,121,o),
(191,-11,o),
(383,-11,cs)
);
},
{
closed = 1;
nodes = (
(152,471,o),
(241,580,o),
(366,580,cs),
(518,580,o),
(615,471,o),
(615,298,cs),
(615,144,o),
(525,35,o),
(400,35,cs),
(248,35,o),
(152,144,o),
(152,318,cs)
);
},
{
closed = 1;
nodes = (
(632,-232,o),
(815,-232,cs),
(941,-232,o),
(1059,-202,o),
(1133,-153,c),
(1122,-133,l),
(1048,-163,o),
(959,-179,o),
(871,-179,cs),
(705,-179,o),
(539,-98,o),
(460,29,c),
(333,11,l),
(432,-144,o)
);
}
);
width = 760;
}
);
metricWidth = O;
unicode = 81;
},
{
color = 6;
glyphname = R;
lastChange = "2025-01-02 14:44:25 +0000";
layers = (
{
layerId = m005;
shapes = (
{
closed = 1;
nodes = (
(340,282,o),
(451,354,o),
(451,458,cs),
(451,550,o),
(373,623,o),
(265,621,c),
(246,579,l),
(316,579,o),
(361,526,o),
(361,446,cs),
(361,362,o),
(291,322,o),
(185,322,c),
(185,282,l)
);
},
{
closed = 1;
nodes = (
(280,0,l),
(280,25,l),
(253,33,o),
(216,39,o),
(205,51,cs),
(195,61,o),
(190,77,o),
(190,104,cs),
(189,178,o),
(189,262,o),
(188,336,cs),
(187,398,o),
(189,450,o),
(190,512,c),
(190,579,l),
(246,579,l),
(265,621,l),
(216,620,o),
(198,616,o),
(149,616,c),
(110,615,o),
(70,617,o),
(31,618,c),
(31,591,l),
(59,583,o),
(87,576,o),
(98,564,cs),
(107,553,o),
(111,538,o),
(111,512,cs),
(112,450,o),
(113,389,o),
(113,327,cs),
(113,253,o),
(112,178,o),
(111,104,cs),
(111,78,o),
(107,63,o),
(98,52,cs),
(87,40,o),
(59,33,o),
(31,25,c),
(31,0,l)
);
},
{
closed = 1;
nodes = (
(619,18,l),
(544,26,o),
(424,159,o),
(328,340,c),
(258,305,l),
(343,123,o),
(458,-5,o),
(522,-3,cs),
(619,0,l)
);
}
);
width = 632;
}
);
unicode = 82;
},
{
glyphname = S;
lastChange = "2025-01-02 14:44:28 +0000";
layers = (
{
layerId = m005;
shapes = (
{
closed = 1;
nodes = (
(348,-9,o),
(434,65,o),
(434,169,cs),
(434,334,o),
(113,347,o),
(116,485,cs),
(117,543,o),
(168,584,o),
(239,584,cs),
(316,584,o),
(366,537,o),
(360,471,c),
(393,471,l),
(392,526,o),
(394,576,o),
(398,593,c),
(348,611,o),
(282,624,o),
(239,624,cs),
(128,624,o),
(49,552,o),
(49,451,cs),
(49,277,o),
(364,284,o),
(364,141,cs),
(364,71,o),
(309,25,o),
(232,29,cs),
(143,35,o),
(80,99,o),
(80,185,c),
(48,185,l),
(54,159,o),
(56,93,o),
(53,24,c),
(121,5,o),
(193,-9,o),
(227,-9,cs)
);
}
);
width = 488;
}
);
unicode = 83;
},
{
glyphname = T;
lastChange = "2025-01-02 14:44:31 +0000";
layers = (
{
background = {
shapes = (
{
closed = 1;
nodes = (
(204,0,l),
(449,0,l),
(449,18,l),
(403,31,o),
(380,33,o),
(371,52,cs),
(367,60,o),
(366,73,o),
(366,91,cs),
(365,164,o),
(365,237,o),
(364,310,cs),
(363,382,o),
(365,453,o),
(366,525,cs),
(366,561,o),
(372,575,o),
(393,585,cs),
(404,590,o),
(422,591,o),
(449,598,c),
(449,616,l),
(204,616,l),
(204,598,l),
(250,585,o),
(273,583,o),
(282,565,cs),
(286,556,o),
(288,543,o),
(288,525,cs),
(289,454,o),
(290,383,o),
(290,312,cs),
(290,238,o),
(289,165,o),
(288,91,cs),
(288,55,o),
(281,42,o),
(260,32,cs),
(249,27,o),
(231,25,o),
(204,18,c)
);
}
);
};
layerId = m005;
shapes = (
{
closed = 1;
nodes = (
(489,0,l),
(489,28,l),
(417,42,o),
(366,62,o),
(366,100,cs),
(366,591,l),
(346,571,l),
(410,571,o),
(484,571,o),
(517,571,cs),
(553,571,o),
(600,559,o),
(605,447,c),
(644,451,l),
(643,515,o),
(638,579,o),
(627,643,c),
(615,643,l),
(560,616,l),
(84,616,l),
(36,653,l),
(28,648,l),
(16,581,o),
(10,515,o),
(8,448,c),
(47,446,l),
(52,561,o),
(102,571,o),
(166,571,cs),
(316,571,l),
(288,597,l),
(288,469,o),
(288,146,o),
(288,100,cs),
(288,70,o),
(241,42,o),
(174,29,c),
(174,0,l)
);
}
);
width = 648;
}
);
unicode = 84;
},
{
glyphname = U;
lastChange = "2025-01-02 14:44:36 +0000";
layers = (
{
anchors = (
{
name = bottom;
pos = (316,0);
},
{
name = ogonek;
pos = (585,10);
},
{
name = top;
pos = (316,616);
},
{
name = topright;
pos = (632,616);
}
);
layerId = m005;
shapes = (
{
closed = 1;
nodes = (
(460,-16,o),
(569,71,o),
(566,194,cs),
(563,329,o),
(563,431,o),
(566,514,cs),
(568,578,o),
(588,589,o),
(645,589,c),
(645,616,l),
(436,616,l),
(436,591,l),
(489,579,o),
(526,553,o),
(526,481,c),
(526,198,l),
(526,103,o),
(459,37,o),
(348,37,cs),
(243,37,o),
(168,86,o),
(166,168,cs),
(164,239,o),
(166,446,o),
(166,501,cs),
(166,571,o),
(197,588,o),
(237,590,c),
(237,614,l),
(-2,614,l),
(-2,582,l),
(45,576,o),
(88,568,o),
(88,512,cs),
(88,487,o),
(88,357,o),
(88,192,cs),
(88,70,o),
(180,-16,o),
(309,-16,cs)
);
}
);
width = 648;
}
);
unicode = 85;
},
{
glyphname = V;
lastChange = "2025-01-02 14:36:20 +0000";
layers = (
{
layerId = m005;
shapes = (
{
closed = 1;
nodes = (
(359,-27,l),
(438,150,o),
(568,444,o),
(595,505,cs),
(622,566,o),
(658,584,o),
(722,599,c),
(722,616,l),
(476,616,l),
(476,599,l),
(521,589,o),
(556,557,o),
(556,535,cs),
(556,513,o),
(544,488,o),
(528,452,cs),
(357,70,l),
(387,95,l),
(328,229,o),
(226,480,o),
(219,496,cs),
(212,512,o),
(207,528,o),
(207,543,cs),
(207,558,o),
(210,590,o),
(296,599,c),
(296,616,l),
(8,616,l),
(8,599,l),
(56,587,o),
(103,571,o),
(136,489,cs),
(346,-27,l)
);
}
);
width = 730;
}
);
unicode = 86;
},
{
glyphname = W;
lastChange = "2025-01-02 14:44:51 +0000";
layers = (
{
layerId = m005;
shapes = (
{
closed = 1;
nodes = (
(502,469,l),
(349,75,l),
(382,96,l),
(220,496,ls),
(193,563,o),
(176,590,o),
(256,599,c),
(256,616,l),
(8,616,l),
(8,599,l),
(56,587,o),
(102,572,o),
(136,489,cs),
(346,-27,l),
(359,-27,l),
(401,105,o),
(485,303,o),
(527,420,c)
);
},
{
closed = 1;
nodes = (
(671,-27,l),
(738,150,o),
(849,444,o),
(872,505,cs),
(895,566,o),
(895,584,o),
(959,599,c),
(959,616,l),
(753,616,l),
(753,599,l),
(846,578,o),
(842,533,o),
(811,452,cs),
(665,70,l),
(699,95,l),
(650,229,o),
(561,480,o),
(556,496,cs),
(532,572,o),
(534,590,o),
(613,599,c),
(613,616,l),
(365,616,l),
(365,599,l),
(413,587,o),
(443,572,o),
(473,489,cs),
(658,-27,l)
);
}
);
width = 968;
}
);
unicode = 87;
},
{
glyphname = X;
lastChange = "2025-01-02 14:28:22 +0000";
layers = (
{
layerId = m005;
shapes = (
{
closed = 1;
nodes = (
(600,0,l),
(600,25,l),
(559,33,o),
(554,25,o),
(491,114,cs),
(378,274,o),
(265,439,o),
(216,512,cs),
(172,578,o),
(208,582,o),
(240,591,c),
(240,616,l),
(16,616,l),
(16,591,l),
(50,588,o),
(68,586,o),
(132,494,cs),
(286,273,o),
(398,112,o),
(402,105,cs),
(448,32,o),
(415,33,o),
(360,25,c),
(360,0,l)
);
},
{
closed = 1;
nodes = (
(216,0,l),
(216,25,l),
(166,31,o),
(134,19,o),
(193,112,cs),
(314,305,l),
(288,330,l),
(139,109,ls),
(79,21,o),
(55,30,o),
(24,25,c),
(24,0,l)
);
},
{
closed = 1;
nodes = (
(466,503,ls),
(523,583,o),
(546,585,o),
(584,591,c),
(584,616,l),
(392,616,l),
(392,591,l),
(437,588,o),
(471,591,o),
(386,463,cs),
(302,337,l),
(329,312,l)
);
}
);
width = 616;
}
);
unicode = 88;
},
{
glyphname = Y;
lastChange = "2025-01-02 14:44:57 +0000";
layers = (
{
layerId = m005;
shapes = (
{
closed = 1;
nodes = (
(398,0,l),
(398,28,l),
(357,33,o),
(311,30,o),
(311,93,cs),
(311,318,l),
(282,229,l),
(439,509,ls),
(484,590,o),
(531,590,o),
(550,590,c),
(550,616,l),
(350,616,l),
(350,590,l),
(418,581,o),
(424,565,o),
(392,505,c),
(261,270,l),
(299,307,l),
(263,380,o),
(208,494,o),
(193,525,cs),
(164,586,o),
(174,585,o),
(243,590,c),
(243,616,l),
(8,616,l),
(8,590,l),
(34,585,o),
(80,575,o),
(94,545,cs),
(262,195,l),
(227,325,l),
(227,93,ls),
(227,38,o),
(172,33,o),
(131,28,c),
(131,0,l)
);
}
);
width = 552;
}
);
unicode = 89;
},
{
glyphname = Z;
lastChange = "2025-01-02 14:45:00 +0000";
layers = (
{
layerId = m005;
shapes = (
{
closed = 1;
nodes = (
(175,-2,o),
(391,-2,o),
(419,-2,cs),
(447,-2,o),
(514,-3,o),
(553,-6,c),
(578,50,o),
(601,135,o),
(610,199,c),
(580,199,l),
(570,146,o),
(525,36,o),
(385,36,cs),
(307,36,o),
(228,39,o),
(150,44,c),
(148,24,l),
(565,594,l),
(553,621,l),
(476,616,o),
(354,615,o),
(296,615,cs),
(238,615,o),
(119,611,o),
(78,617,c),
(69,554,o),
(63,490,o),
(62,427,c),
(90,427,l),
(100,479,o),
(89,576,o),
(243,576,cs),
(318,576,o),
(412,574,o),
(470,567,c),
(463,596,l),
(40,12,l),
(48,-2,l)
);
}
);
width = 656;
}
);
unicode = 90;
},
{
color = 4;
glyphname = a;
lastChange = "2025-01-02 14:45:08 +0000";
layers = (
{
anchors = (
{
name = bottom;
pos = (196,0);
},
{
name = ogonek;
pos = (355,10);
},
{
name = top;
pos = (196,384);
}
);
background = {
shapes = (
{
closed = 1;
nodes = (
(51,0,o),
(79,-11,o),
(126,-11,cs),
(174,-11,o),
(205,1,o),
(249,37,c,{
"Letterink-NibData" = {
AngleInDegrees = "360";
};
}),
(248,38,ls,{
"Letterink-NibData" = {
AngleInDegrees = "0";
};
}),
(272,17,o),
(289,7,o),
(319,-3,c,{
"Letterink-NibData" = {
AngleInDegrees = "360";
};
}),
(393,40,l,{
"Letterink-NibData" = {
AngleInDegrees = "0";
};
}),
(356,52,o),
(340,60,o),
(317,80,c),
(317,344,l,{
"Letterink-NibData" = {
AngleInDegrees = "0";
};
}),
(267,384,o),
(240,395,o),
(192,395,cs),
(143,395,o),
(114,384,o),
(66,345,c,{
"Letterink-NibData" = {
AngleInDegrees = "360";
};
}),
(69,340,l,{
"Letterink-NibData" = {
AngleInDegrees = "0";
};
}),
(96,347,o),
(108,349,o),
(126,349,cs),
(172,349,o),
(204,337,o),
(245,304,c),
(245,184,l),
(245,185,l,{
"Letterink-NibData" = {
AngleInDegrees = "360";
};
}),
(0,44,l,{
"Letterink-NibData" = {
AngleInDegrees = "0";
};
}),
(3,38,l,{
"Letterink-NibData" = {
AngleInDegrees = "0";
};
})
);
},
{
closed = 1;
nodes = (
(245,176,l),
(245,42,l),
(245,43,l,{
"Letterink-NibData" = {
AngleInDegrees = "0";
};
}),
(221,37,o),
(210,35,o),
(192,35,cs),
(147,35,o),
(114,47,o),
(75,78,c,{
"Letterink-NibData" = {
AngleInDegrees = "0";
};
})
);
},
{
closed = 1;
nodes = (
(322,0,l),
(372,18,l),
(333,32,o),
(317,37,o),
(317,68,cs),
(317,273,ls),
(317,355,o),
(283,395,o),
(213,395,cs),
(163,395,o),
(106,365,o),
(40,305,c),
(40,286,l),
(100,329,o),
(133,335,o),
(168,335,cs),
(220,335,o),
(245,306,o),
(245,246,cs),
(245,68,ls),
(245,38,o),
(228,32,o),
(189,18,c),
(139,0,l)
);
},
{
closed = 1;
nodes = (
(-20,386,l),
(-20,368,l),
(19,354,o),
(35,349,o),
(35,318,cs),
(35,83,ls),
(35,1,o),
(69,-9,o),
(139,-9,cs),
(189,-9,o),
(246,21,o),
(312,81,c),
(312,100,l),
(252,57,o),
(219,51,o),
(184,51,cs),
(132,51,o),
(107,50,o),
(107,110,cs),
(107,318,ls),
(107,348,o),
(124,354,o),
(163,368,c),
(163,386,l)
);
},
{
closed = 1;
nodes = (
(190,386,l),
(190,368,l),
(222,356,o),
(245,335,o),
(245,318,cs),
(245,113,ls),
(245,42,o),
(263,-9,o),
(289,-9,cs),
(311,-9,o),
(350,12,o),
(382,41,c),
(382,60,l),
(375,55,o),
(351,51,o),
(324,51,cs),
(320,51,o),
(317,88,o),
(317,140,cs),
(317,318,ls),
(317,335,o),
(340,356,o),
(373,368,c),
(373,386,l)
);
}
);
};
guides = (
{
angle = 11.5;
pos = (226,308);
}
);
layerId = m005;
shapes = (
{
closed = 1;
nodes = (
(321,-6,o),
(354,8,o),
(393,27,c),
(391,40,l),
(359,41,ls),
(334,42,o),
(316,60,o),
(316,84,cs),
(316,51,o),
(318,133,o),
(320,290,c),
(320,351,o),
(277,395,o),
(216,395,cs),
(187,395,o),
(147,378,o),
(108,354,cs),
(76,332,o),
(54,295,o),
(54,264,cs),
(54,233,o),
(126,247,o),
(126,278,cs),
(126,294,o),
(119,290,o),
(119,305,cs),
(119,332,o),
(142,351,o),
(170,351,cs),
(220,351,o),
(250,324,o),
(248,284,cs),
(245,218,l),
(244,205,o),
(244,138,o),
(244,57,cs),
(248,20,o),
(276,-6,o),
(312,-6,cs)
);
},
{
closed = 1;
nodes = (
(166,-6,o),
(225,24,o),
(265,66,c),
(265,85,l),
(234,61,o),
(192,44,o),
(164,44,cs),
(135,44,o),
(119,71,o),
(119,110,c),
(40,94,l),
(40,35,o),
(71,-6,o),
(123,-6,cs)
);
},
{
closed = 1;
nodes = (
(119,110,l),
(119,131,o),
(181,158,o),
(276,175,c),
(277,206,l),
(135,183,o),
(40,137,o),
(40,94,c)
);
}
);
width = 392;
}
);
note = a;
unicode = 97;
},
{
glyphname = ae;
lastChange = "2024-12-20 12:02:28 +0000";
layers = (
{
layerId = m005;
shapes = (
{
closed = 1;
nodes = (
(304,214,l),
(304,181,o),
(306,133,o),
(308,290,c),
(308,351,o),
(278,395,o),
(217,395,cs),
(188,395,o),
(143,378,o),
(104,354,cs),
(72,332,o),
(50,295,o),
(50,264,cs),
(50,233,o),
(122,247,o),
(122,278,cs),
(122,294,o),
(113,292,o),
(113,307,cs),
(113,334,o),
(136,353,o),
(169,353,cs),
(219,353,o),
(251,324,o),
(249,284,cs),
(246,218,l),
(245,205,o),
(245,258,o),
(245,177,c)
);
},
{
closed = 1;
nodes = (
(166,-6,o),
(225,9,o),
(286,70,c),
(265,85,l),
(234,61,o),
(192,44,o),
(164,44,cs),
(135,44,o),
(114,71,o),
(114,110,c),
(35,94,l),
(35,35,o),
(71,-6,o),
(123,-6,cs)
);
},
{
closed = 1;
nodes = (
(115,110,l),
(115,131,o),
(182,158,o),
(277,175,c),
(278,206,l),
(136,183,o),
(36,137,o),
(36,94,c)
);
},
{
closed = 1;
nodes = (
(306,302,o),
(348,367,o),
(408,367,cs),
(453,367,o),
(487,325,o),
(490,266,c),
(283,260,l),
(279,231,l),
(559,225,l),
(571,239,l),
(571,330,o),
(509,395,o),
(422,395,cs),
(310,395,o),
(245,309,o),
(245,188,cs),
(245,71,o),
(302,-11,o),
(403,-11,cs),
(465,-11,o),
(534,33,o),
(569,95,c),
(551,108,l),
(528,75,o),
(476,52,o),
(424,52,cs),
(355,52,o),
(306,117,o),
(306,210,cs)
);
}
);
width = 592;
}
);
unicode = 230;
},
{
color = 4;
glyphname = b;
lastChange = "2025-01-01 10:56:54 +0000";
layers = (
{
background = {
shapes = (
{
closed = 1;
nodes = (
(117,1,o),
(146,-11,o),
(194,-11,cs),
(241,-11,o),
(273,1,o),
(317,36,c,{
"Letterink-NibData" = {
AngleInDegrees = "0";
};
}),
(399,68,o),
(443,128,o),
(443,210,cs),
(443,310,o),
(359,395,o),
(260,395,cs),
(213,395,o),
(182,383,o),
(140,350,c),
(140,664,l,{
"Letterink-NibData" = {
AngleInDegrees = "359.99999";
};
}),
(114,687,o),
(98,697,o),
(67,707,c,{
"Letterink-NibData" = {
AngleInDegrees = "359.99999";
};
}),
(-7,664,l,{
"Letterink-NibData" = {
AngleInDegrees = "0";
};
}),
(30,652,o),
(45,644,o),
(68,624,c),
(68,40,l,{
"Letterink-NibData" = {
AngleInDegrees = "360";
};
})
);
},
{
closed = 1;
nodes = (
(164,347,o),
(176,349,o),
(194,349,cs),
(294,349,o),
(371,273,o),
(371,174,cs),
(371,125,o),
(352,82,o),
(313,43,c,{
"Letterink-NibData" = {
AngleInDegrees = "0";
};
}),
(289,37,o),
(277,35,o),
(260,35,cs),
(213,35,o),
(182,47,o),
(140,80,c),
(140,342,l,{
"Letterink-NibData" = {
AngleInDegrees = "360";
};
}),
(141,341,l,{
"Letterink-NibData" = {
AngleInDegrees = "0";
};
})
);
},
{
closed = 0;
nodes = (
(140,619,l),
(142,698,l),
(127,705,l),
(18,667,l),
(18,646,l),
(37,638,o),
(68,625,o),
(68,603,cs)
);
},
{
closed = 0;
nodes = (
(230,-10,ls),
(355,-10,o),
(443,78,o),
(443,208,cs),
(443,318,o),
(373,395,o),
(275,395,cs)
);
},
{
closed = 0;
nodes = (
(230,335,ls),
(310,335,o),
(368,271,o),
(368,180,cs),
(368,89,o),
(314,24,o),
(240,24,cs)
);
}
);
};
layerId = m005;
shapes = (
{
closed = 1;
nodes = (
(146,551,l),
(149,658,l),
(134,668,l),
(2,637,l),
(2,616,l),
(43,601,o),
(72,578,o),
(72,560,cs),
(72,255,o),
(72,40,o),
(72,40,c),
(144,24,l)
);
},
{
closed = 1;
nodes = (
(382,188,l),
(381,96,o),
(324,26,o),
(245,26,cs),
(192,26,o),
(138,67,o),
(114,125,c),
(68,40,l),
(105,10,o),
(169,-11,o),
(224,-11,cs),
(360,-11,o),
(456,88,o),
(456,221,c)
);
},
{
closed = 1;
nodes = (
(456,221,l),
(456,326,o),
(383,395,o),
(281,395,cs),
(228,395,o),
(157,360,o),
(108,310,c),
(108,291,l),
(138,317,o),
(191,335,o),
(236,335,cs),
(322,335,o),
(382,277,o),
(382,188,c)
);
}
);
width = 488;
}
);
note = b;
unicode = 98;
},
{
color = 6;
glyphname = c;
lastChange = "2025-01-02 14:45:14 +0000";
layers = (
{
layerId = m005;
shapes = (
{
closed = 1;
nodes = (
(107,302,o),
(149,367,o),
(209,367,c),
(223,395,l),
(111,395,o),
(32,309,o),
(32,188,cs),
(32,71,o),
(103,-11,o),
(204,-11,cs),
(269,-11,o),
(338,33,o),
(370,95,c),
(352,108,l),
(327,75,o),
(275,52,o),
(225,52,cs),
(156,52,o),
(107,117,o),
(107,210,cs)
);
},
{
closed = 1;
nodes = (
(209,367,l),
(268,367,o),
(303,322,o),
(305,251,c),
(344,251,l),
(342,303,o),
(343,347,o),
(347,371,c),
(315,382,o),
(266,395,o),
(223,395,c)
);
}
);
width = 384;
}
);
unicode = 99;
},
{
color = 6;
glyphname = d;
lastChange = "2025-01-01 20:10:06 +0000";
layers = (
{
layerId = m005;
shapes = (
{
closed = 1;
nodes = (
(32,189,l),
(32,72,o),
(100,-11,o),
(195,-11,cs),
(240,-11,o),
(311,22,o),
(368,69,c),
(368,88,l),
(330,65,o),
(277,49,o),
(240,49,cs),
(163,49,o),
(109,120,o),
(109,220,c)
);
},
{
closed = 1;
nodes = (
(336,58,l),
(337,58,l),
(336,-6,l),
(349,-12,l),
(470,21,l),
(470,42,l),
(434,57,o),
(408,75,o),
(408,85,c)
);
},
{
closed = 1;
nodes = (
(109,220,l),
(109,301,o),
(160,358,o),
(231,358,cs),
(280,358,o),
(333,320,o),
(358,267,c),
(384,356,l),
(352,379,o),
(298,395,o),
(252,395,cs),
(123,395,o),
(32,310,o),
(32,189,c)
);
},
{
closed = 1;
nodes = (
(408,85,l),
(408,557,l),
(410,658,l),
(395,668,l),
(266,637,l),
(266,616,l),
(307,599,o),
(336,577,o),
(336,563,cs),
(336,58,l)
);
}
);
width = 488;
}
);
unicode = 100;
},
{
color = 4;
glyphname = e;
lastChange = "2025-01-02 14:45:19 +0000";
layers = (
{
background = {
shapes = (
{
closed = 1;
nodes = (
(105,168,l,{
"Letterink-NibData" = {
AngleInDegrees = "0";
};
}),
(403,340,l,{
"Letterink-NibData" = {
AngleInDegrees = "359.99998";
};
}),
(400,346,l,{
"Letterink-NibData" = {
AngleInDegrees = "360";
};
}),
(360,380,o),
(322,395,o),
(277,395,cs),
(230,395,o),
(198,383,o),
(154,348,c,{
"Letterink-NibData" = {
AngleInDegrees = "360";
};
}),
(71,315,o),
(28,256,o),
(28,174,cs),
(28,74,o),
(112,-11,o),
(211,-11,cs),
(260,-11,o),
(290,1,o),
(337,39,c,{
"Letterink-NibData" = {
AngleInDegrees = "0";
};
}),
(334,44,l,{
"Letterink-NibData" = {
AngleInDegrees = "360";
};
}),
(305,37,o),
(296,35,o),
(277,35,cs),
(192,35,o),
(126,87,o),
(104,170,c,{
"Letterink-NibData" = {
AngleInDegrees = "0";
};
})
);
},
{
closed = 1;
nodes = (
(103,177,l,{
"Letterink-NibData" = {
AngleInDegrees = "0";
};
}),
(101,192,o),
(100,198,o),
(100,210,cs),
(100,259,o),
(119,301,o),
(158,341,c,{
"Letterink-NibData" = {
AngleInDegrees = "360";
};
}),
(182,347,o),
(194,349,o),
(211,349,cs),
(256,349,o),
(288,337,o),
(328,306,c,{
"Letterink-NibData" = {
AngleInDegrees = "360";
};
})
);
},
{
closed = 1;
nodes = (
(28,189,l),
(28,72,o),
(95,-11,o),
(189,-11,cs),
(232,-11,o),
(304,26,o),
(362,79,c),
(362,98,l),
(322,69,o),
(269,49,o),
(234,49,cs),
(159,49,o),
(106,120,o),
(106,220,c)
);
}
);
};
layerId = m005;
shapes = (
{
closed = 1;
nodes = (
(107,302,o),
(149,362,o),
(209,362,cs),
(254,362,o),
(288,325,o),
(291,266,c),
(84,260,l),
(80,231,l),
(360,225,l),
(372,239,l),
(372,330,o),
(310,395,o),
(223,395,cs),
(111,395,o),
(32,309,o),
(32,188,cs),
(32,71,o),
(103,-11,o),
(204,-11,cs),
(266,-11,o),
(335,33,o),
(370,95,c),
(352,108,l),
(329,75,o),
(277,52,o),
(225,52,cs),
(156,52,o),
(107,117,o),
(107,210,cs)
);
}
);
width = 400;
}
);
note = e;
unicode = 101;
},
{
color = 4;
glyphname = f;
lastChange = "2025-01-02 14:28:42 +0000";
layers = (
{
background = {
shapes = (
{
closed = 1;
nodes = (
(89,386,l),
(89,387,l,{
"Letterink-NibData" = {
AngleInDegrees = "360";
};
}),
(16,346,l,{
"Letterink-NibData" = {
AngleInDegrees = "360";
};
}),
(19,341,l),
(89,341,l),
(89,40,l,{
"Letterink-NibData" = {
AngleInDegrees = "0";
};
}),
(114,18,o),
(133,7,o),
(162,-3,c,{
"Letterink-NibData" = {
AngleInDegrees = "0";
};
}),
(237,40,l,{
"Letterink-NibData" = {
AngleInDegrees = "0";
};
}),
(200,52,o),
(184,60,o),
(161,80,c),
(161,342,l,{
"Letterink-NibData" = {
AngleInDegrees = "360";
};
}),
(162,341,l),
(268,341,l,{
"Letterink-NibData" = {
AngleInDegrees = "360";
};
}),
(341,382,l,{
"Letterink-NibData" = {
AngleInDegrees = "0";
};
}),
(338,387,l),
(161,387,l),
(161,662,l,{
"Letterink-NibData" = {
AngleInDegrees = "360";
};
}),
(162,661,l,{
"Letterink-NibData" = {
AngleInDegrees = "0";
};
}),
(185,667,o),
(196,669,o),
(215,669,cs),
(263,669,o),
(292,657,o),
(338,621,c,{
"Letterink-NibData" = {
AngleInDegrees = "0";
};
}),
(409,662,l,{
"Letterink-NibData" = {
AngleInDegrees = "0";
};
}),
(355,705,o),
(330,715,o),
(280,715,cs),
(233,715,o),
(201,703,o),
(158,667,c,{
"Letterink-NibData" = {
AngleInDegrees = "360";
};
}),
(89,628,l)
);
},
{
closed = 0;
nodes = (
(90,68,l),
(90,37,o),
(73,32,o),
(34,18,c),
(34,0,l),
(247,0,l),
(247,18,l),
(178,32,o),
(161,38,o),
(161,68,cs)
);
}
);
};
guides = (
{
angle = 46;
lockAngle = 1;
pos = (299,567);
}
);
layerId = m005;
shapes = (
{
closed = 1;
nodes = (
(24,0,l),
(257,0,l),
(257,18,l),
(203,31,o),
(167,31,o),
(165,69,cs),
(160,163,o),
(160,304,o),
(165,449,cs),
(167,510,o),
(162,624,o),
(231,624,cs),
(254,624,o),
(263,617,o),
(272,606,cs),
(281,593,o),
(285,576,o),
(296,567,cs),
(319,546,o),
(381,615,o),
(359,638,cs),
(341,656,o),
(308,665,o),
(267,665,cs),
(209,665,o),
(161,631,o),
(133,590,cs),
(99,540,o),
(93,492,o),
(89,387,cs),
(88,355,o),
(88,221,o),
(89,69,cs),
(89,30,o),
(56,32,o),
(24,18,c)
);
},
{
closed = 1;
nodes = (
(304,334,l),
(304,389,l),
(95,384,l),
(19,359,l),
(19,349,l)
);
}
);
width = 312;
}
);
note = f;
unicode = 102;
},
{
color = 4;
glyphname = g;
lastChange = "2025-01-02 14:38:24 +0000";
layers = (
{
background = {
shapes = (
{
closed = 1;
nodes = (
(313,384,o),
(285,395,o),
(237,395,cs),
(189,395,o),
(158,383,o),
(114,347,c,{
"Letterink-NibData" = {
AngleInDegrees = "359.99999";
};
}),
(32,316,o),
(-12,256,o),
(-12,174,cs),
(-12,74,o),
(72,-11,o),
(171,-11,cs),
(217,-11,o),
(249,1,o),
(290,34,c),
(290,-238,l),
(290,-237,l,{
"Letterink-NibData" = {
AngleInDegrees = "359.99999";
};
}),
(267,-243,o),
(255,-245,o),
(237,-245,cs),
(189,-245,o),
(160,-234,o),
(114,-197,c,{
"Letterink-NibData" = {
AngleInDegrees = "0";
};
}),
(43,-238,l,{
"Letterink-NibData" = {
AngleInDegrees = "359.99999";
};
}),
(95,-280,o),
(123,-291,o),
(171,-291,cs),
(219,-291,o),
(250,-279,o),
(294,-244,c,{
"Letterink-NibData" = {
AngleInDegrees = "0";
};
}),
(362,-204,l),
(362,344,l,{
"Letterink-NibData" = {
AngleInDegrees = "0";
};
})
);
},
{
closed = 1;
nodes = (
(267,37,o),
(255,35,o),
(237,35,cs),
(137,35,o),
(60,111,o),
(60,210,cs),
(60,259,o),
(79,302,o),
(118,341,c,{
"Letterink-NibData" = {
AngleInDegrees = "360";
};
}),
(142,347,o),
(153,349,o),
(171,349,cs),
(217,349,o),
(249,337,o),
(290,304,c),
(290,42,l),
(290,43,l,{
"Letterink-NibData" = {
AngleInDegrees = "359.99999";
};
})
);
}
);
};
layerId = m005;
shapes = (
{
closed = 1;
nodes = (
(253,342,l),
(400,332,l),
(400,389,l),
(221,374,l)
);
},
{
closed = 1;
nodes = (
(31,13,o),
(70,-14,o),
(124,-14,cs),
(157,-14,o),
(217,-14,o),
(266,-14,cs),
(311,-14,o),
(343,-32,o),
(343,-58,cs),
(343,-128,o),
(279,-183,o),
(189,-183,cs),
(122,-183,o),
(74,-139,o),
(74,-86,cs),
(74,-48,o),
(96,0,o),
(127,9,c),
(99,15,l),
(46,-7,o),
(8,-72,o),
(8,-119,cs),
(8,-175,o),
(64,-221,o),
(142,-221,cs),
(288,-221,o),
(391,-135,o),
(391,-21,cs),
(391,22,o),
(353,52,o),
(300,52,cs),
(163,52,ls),
(125,52,o),
(98,66,o),
(98,85,cs),
(98,98,o),
(117,122,o),
(143,142,c),
(119,151,l),
(67,125,o),
(31,84,o),
(31,51,cs)
);
},
{
closed = 1;
nodes = (
(116,330,o),
(147,368,o),
(187,368,cs),
(235,368,o),
(272,315,o),
(272,239,cs),
(272,184,o),
(240,145,o),
(200,145,cs),
(152,145,o),
(116,199,o),
(116,276,cs)
);
},
{
closed = 1;
nodes = (
(40,175,o),
(103,120,o),
(192,120,cs),
(282,120,o),
(345,178,o),
(345,261,cs),
(345,338,o),
(283,393,o),
(196,393,cs),
(105,393,o),
(40,335,o),
(40,253,cs)
);
}
);
width = 408;
}
);
note = g;
unicode = 103;
},
{
color = 6;
glyphname = h;
lastChange = "2025-01-01 10:56:25 +0000";
layers = (
{
layerId = m005;
shapes = (
{
closed = 1;
nodes = (
(15,0,l),
(218,0,l),
(218,18,l),
(177,32,o),
(152,39,o),
(152,68,cs),
(152,557,l),
(154,658,l),
(139,668,l),
(10,637,l),
(10,616,l),
(29,608,o),
(80,595,o),
(80,563,cs),
(80,68,ls),
(80,39,o),
(56,32,o),
(15,18,c)
);
},
{
closed = 1;
nodes = (
(473,0,l),
(473,18,l),
(434,32,o),
(408,37,o),
(408,68,cs),
(408,273,ls),
(408,355,o),
(374,395,o),
(304,395,cs),
(254,395,o),
(197,365,o),
(131,305,c),
(131,286,l),
(191,329,o),
(224,335,o),
(259,335,cs),
(311,335,o),
(332,306,o),
(336,246,cs),
(340,187,o),
(340,127,o),
(336,68,cs),
(334,38,o),
(309,32,o),
(270,18,c),
(270,0,l)
);
}
);
width = 488;
}
);
unicode = 104;
},
{
color = 4;
glyphname = i;
lastChange = "2025-01-02 14:45:24 +0000";
layers = (
{
background = {
shapes = (
{
closed = 1;
nodes = (
(85,40,l,{
"Letterink-NibData" = {
AngleInDegrees = "0";
};
}),
(110,18,o),
(129,7,o),
(159,-3,c,{
"Letterink-NibData" = {
AngleInDegrees = "360";
};
}),
(233,40,l,{
"Letterink-NibData" = {
AngleInDegrees = "0";
};
}),
(195,52,o),
(181,60,o),
(157,80,c),
(157,344,l,{
"Letterink-NibData" = {
AngleInDegrees = "359.99999";
};
}),
(131,367,o),
(115,377,o),
(84,387,c,{
"Letterink-NibData" = {
AngleInDegrees = "359.99999";
};
}),
(10,344,l,{
"Letterink-NibData" = {
AngleInDegrees = "0";
};
}),
(47,332,o),
(62,324,o),
(85,304,c)
);
},
{
closed = 1;
nodes = (
(213,0,l),
(213,18,l),
(174,32,o),
(157,38,o),
(157,68,cs),
(157,315,l),
(156,315,l),
(157,389,l),
(144,395,l),
(35,357,l),
(35,336,l),
(54,328,o),
(85,314,o),
(85,293,cs),
(85,68,ls),
(85,37,o),
(69,32,o),
(30,18,c),
(30,0,l)
);
}
);
};
layerId = m005;
shapes = (
{
closed = 1;
nodes = (
(20,0,l),
(223,0,l),
(223,18,l),
(182,32,o),
(157,39,o),
(157,68,cs),
(157,148,o),
(157,234,o),
(157,314,c),
(159,393,l),
(143,403,l),
(25,362,l),
(25,341,l),
(44,333,o),
(84,320,o),
(85,298,cs),
(89,223,o),
(89,143,o),
(85,68,cs),
(83,39,o),
(61,32,o),
(20,18,c)
);
},
{
closed = 1;
nodes = (
(69,539,o),
(93,515,o),
(118,515,cs),
(145,515,o),
(169,539,o),
(169,564,cs),
(169,591,o),
(145,615,o),
(118,615,cs),
(93,615,o),
(69,591,o),
(69,564,cs)
);
}
);
width = 232;
}
);
note = i;
unicode = 105;
},
{
color = 4;
glyphname = idotless;
lastChange = "2025-01-02 14:45:27 +0000";
layers = (
{
background = {
shapes = (
{
closed = 1;
nodes = (
(86,40,l,{
"Letterink-NibData" = {
AngleInDegrees = "0";
};
}),
(111,18,o),
(130,7,o),
(160,-3,c,{
"Letterink-NibData" = {
AngleInDegrees = "360";
};
}),
(234,40,l,{
"Letterink-NibData" = {
AngleInDegrees = "0";
};
}),
(196,52,o),
(182,60,o),
(158,80,c),
(158,344,l,{
"Letterink-NibData" = {
AngleInDegrees = "359.99999";
};
}),
(132,367,o),
(116,377,o),
(85,387,c,{
"Letterink-NibData" = {
AngleInDegrees = "359.99999";
};
}),
(11,344,l,{
"Letterink-NibData" = {
AngleInDegrees = "0";
};
}),
(48,332,o),
(63,324,o),
(86,304,c)
);
},
{
closed = 1;
nodes = (
(214,0,l),
(214,18,l),
(175,32,o),
(158,38,o),
(158,68,cs),
(158,315,l),
(157,315,l),
(158,389,l),
(145,395,l),
(36,357,l),
(36,336,l),
(55,328,o),
(86,314,o),
(86,293,cs),
(86,68,ls),
(86,37,o),
(70,32,o),
(31,18,c),
(31,0,l)
);
}
);
};
layerId = m005;
shapes = (
{
closed = 1;
nodes = (
(21,0,l),
(224,0,l),
(224,18,l),
(183,32,o),
(159,39,o),
(158,68,cs),
(156,148,o),
(156,234,o),
(158,314,c),
(160,393,l),
(145,403,l),
(26,362,l),
(26,341,l),
(45,333,o),
(85,320,o),
(86,298,cs),
(89,223,o),
(89,143,o),
(86,68,cs),
(85,39,o),
(62,32,o),
(21,18,c)
);
}
);
width = 232;
}
);
note = i;
unicode = 305;
},
{
color = 6;
glyphname = j;
lastChange = "2025-01-02 14:45:31 +0000";
layers = (
{
layerId = m005;
shapes = (
{
closed = 1;
nodes = (
(29,-223,o),
(31,-222,o),
(32,-222,c),
(42,-218,o),
(55,-209,o),
(65,-201,cs),
(115,-164,o),
(150,-51,o),
(150,68,cs),
(150,314,l),
(152,393,l),
(137,403,l),
(18,362,l),
(18,341,l),
(53,326,o),
(78,309,o),
(78,298,cs),
(80,254,o),
(81,128,o),
(81,1,cs),
(81,-87,o),
(65,-160,o),
(42,-178,c),
(39,-179,o),
(35,-179,o),
(31,-179,cs),
(27,-179,o),
(23,-179,o),
(20,-178,cs),
(6,-174,o),
(11,-168,o),
(-4,-164,cs),
(-25,-158,o),
(-48,-191,o),
(-48,-212,cs),
(-48,-221,o),
(-45,-228,o),
(-36,-230,cs),
(-30,-231,o),
(-24,-232,o),
(-17,-232,cs),
(-2,-232,o),
(14,-229,o),
(27,-224,cs)
);
},
{
closed = 1;
nodes = (
(141,515,o),
(162,535,o),
(162,564,cs),
(162,594,o),
(141,615,o),
(111,615,cs),
(82,615,o),
(62,594,o),
(62,564,cs),
(62,535,o),
(82,515,o),
(111,515,cs)
);
}
);
width = 216;
}
);
unicode = 106;
},
{
color = 6;
glyphname = jdotless;
lastChange = "2025-01-02 14:45:33 +0000";
layers = (
{
layerId = m005;
shapes = (
{
closed = 1;
nodes = (
(29,-223,o),
(31,-222,o),
(32,-222,c),
(42,-218,o),
(55,-209,o),
(65,-201,cs),
(115,-164,o),
(150,-51,o),
(150,68,cs),
(150,314,l),
(152,393,l),
(137,403,l),
(18,362,l),
(18,341,l),
(53,326,o),
(78,309,o),
(78,298,cs),
(80,254,o),
(81,128,o),
(81,1,cs),
(81,-87,o),
(65,-160,o),
(42,-178,c),
(39,-179,o),
(35,-179,o),
(31,-179,cs),
(27,-179,o),
(23,-179,o),
(20,-178,cs),
(6,-174,o),
(11,-168,o),
(-4,-164,cs),
(-25,-158,o),
(-48,-191,o),
(-48,-212,cs),
(-48,-221,o),
(-45,-228,o),
(-36,-230,cs),
(-30,-231,o),
(-24,-232,o),
(-17,-232,cs),
(-2,-232,o),
(14,-229,o),
(27,-224,cs)
);
}
);
width = 216;
}
);
unicode = 567;
},
{
color = 6;
glyphname = k;
lastChange = "2025-01-01 10:56:36 +0000";
layers = (
{
layerId = m005;
shapes = (
{
closed = 1;
nodes = (
(15,0,l),
(218,0,l),
(218,18,l),
(177,32,o),
(152,39,o),
(152,68,cs),
(152,557,l),
(154,658,l),
(139,665,l),
(10,637,l),
(10,616,l),
(29,608,o),
(80,595,o),
(80,563,cs),
(80,68,ls),
(80,39,o),
(56,32,o),
(15,18,c)
);
},
{
closed = 1;
nodes = (
(131,145,l),
(329,326,ls),
(345,341,o),
(386,354,o),
(431,361,c),
(431,384,l),
(254,384,l),
(254,361,l),
(305,353,o),
(303,345,o),
(258,304,cs),
(119,178,l)
);
},
{
closed = 1;
nodes = (
(197,229,l),
(311,54,ls),
(320,40,o),
(317,26,o),
(282,23,c),
(282,0,l),
(472,0,l),
(472,23,l),
(442,26,o),
(414,38,o),
(403,55,cs),
(256,278,l)
);
}
);
width = 472;
}
);
unicode = 107;
},
{
color = 4;
glyphname = l;
lastChange = "2024-12-30 20:24:30 +0000";
layers = (
{
background = {
shapes = (
{
closed = 1;
nodes = (
(80,40,l,{
"Letterink-NibData" = {
AngleInDegrees = "0";
};
}),
(105,18,o),
(124,7,o),
(154,-3,c,{
"Letterink-NibData" = {
AngleInDegrees = "360";
};
}),
(228,40,l,{
"Letterink-NibData" = {
AngleInDegrees = "0";
};
}),
(190,52,o),
(176,60,o),
(152,80,c),
(152,664,l,{
"Letterink-NibData" = {
AngleInDegrees = "359.99999";
};
}),
(126,687,o),
(110,697,o),
(79,707,c,{
"Letterink-NibData" = {
AngleInDegrees = "359.99999";
};
}),
(5,664,l,{
"Letterink-NibData" = {
AngleInDegrees = "0";
};
}),
(42,652,o),
(57,644,o),
(80,624,c)
);
}
);
};
layerId = m005;
shapes = (
{
closed = 1;
nodes = (
(15,0,l),
(218,0,l),
(218,18,l),
(177,32,o),
(152,39,o),
(152,68,cs),
(152,557,l),
(154,658,l),
(139,668,l),
(10,637,l),
(10,616,l),
(29,608,o),
(80,595,o),
(80,563,cs),
(80,68,ls),
(80,39,o),
(56,32,o),
(15,18,c)
);
}
);
width = 232;
}
);
note = l;
unicode = 108;
},
{
color = 4;
glyphname = m;
lastChange = "2025-01-02 14:45:53 +0000";
layers = (
{
background = {
shapes = (
{
closed = 1;
nodes = (
(86,40,l,{
"Letterink-NibData" = {
AngleInDegrees = "0";
};
}),
(111,18,o),
(130,7,o),
(160,-3,c,{
"Letterink-NibData" = {
AngleInDegrees = "360";
};
}),
(234,40,l,{
"Letterink-NibData" = {
AngleInDegrees = "0";
};
}),
(196,52,o),
(182,60,o),
(158,80,c),
(158,342,l,{
"Letterink-NibData" = {
AngleInDegrees = "360";
};
}),
(159,341,l,{
"Letterink-NibData" = {
AngleInDegrees = "0";
};
}),
(182,347,o),
(194,349,o),
(212,349,cs),
(258,349,o),
(290,337,o),
(331,304,c),
(331,40,l,{
"Letterink-NibData" = {
AngleInDegrees = "0";
};
}),
(356,18,o),
(375,6,o),
(404,-3,c,{
"Letterink-NibData" = {
AngleInDegrees = "0";
};
}),
(479,40,l,{
"Letterink-NibData" = {
AngleInDegrees = "0";
};
}),
(441,52,o),
(426,60,o),
(403,80,c),
(403,342,l,{
"Letterink-NibData" = {
AngleInDegrees = "360";
};
}),
(404,341,l,{
"Letterink-NibData" = {
AngleInDegrees = "0";
};
}),
(427,347,o),
(438,349,o),
(457,349,cs),
(503,349,o),
(535,337,o),
(576,304,c),
(576,40,l,{
"Letterink-NibData" = {
AngleInDegrees = "0";
};
}),
(601,18,o),
(620,7,o),
(649,-3,c,{
"Letterink-NibData" = {
AngleInDegrees = "360";
};
}),
(723,40,l,{
"Letterink-NibData" = {
AngleInDegrees = "359.99999";
};
}),
(687,52,o),
(671,60,o),
(648,80,c),
(648,344,l,{
"Letterink-NibData" = {
AngleInDegrees = "0";
};
}),
(598,384,o),
(570,395,o),
(522,395,cs),
(475,395,o),
(443,383,o),
(400,347,c,{
"Letterink-NibData" = {
AngleInDegrees = "360";
};
}),
(401,346,ls,{
"Letterink-NibData" = {
AngleInDegrees = "0";
};
}),
(356,382,o),
(323,395,o),
(278,395,cs),
(230,395,o),
(199,383,o),
(155,347,c,{
"Letterink-NibData" = {
AngleInDegrees = "360";
};
}),
(156,346,ls,{
"Letterink-NibData" = {
AngleInDegrees = "359.99999";
};
}),
(132,367,o),
(114,377,o),
(85,387,c,{
"Letterink-NibData" = {
AngleInDegrees = "359.99999";
};
}),
(11,344,l,{
"Letterink-NibData" = {
AngleInDegrees = "0";
};
}),
(48,332,o),
(63,324,o),
(86,304,c)
);
},
{
closed = 1;
nodes = (
(397,298,l),
(437,325,o),
(467,335,o),
(500,335,cs),
(552,335,o),
(575,307,o),
(575,246,cs),
(575,68,ls),
(575,37,o),
(559,32,o),
(520,18,c),
(520,0,l),
(702,0,l),
(702,18,l),
(663,32,o),
(647,37,o),
(647,68,cs),
(647,273,ls),
(647,352,o),
(612,395,o),
(543,395,cs),
(490,395,o),
(446,367,o),
(387,310,c)
);
}
);
};
layerId = m005;
shapes = (
{
closed = 1;
nodes = (
(475,0,l),
(475,18,l),
(436,32,o),
(410,37,o),
(410,68,cs),
(410,273,ls),
(410,355,o),
(376,395,o),
(306,395,cs),
(256,395,o),
(199,365,o),
(133,305,c),
(133,286,l),
(193,329,o),
(226,335,o),
(261,335,cs),
(313,335,o),
(335,306,o),
(338,246,cs),
(341,187,o),
(341,127,o),
(338,68,cs),
(336,38,o),
(311,32,o),
(272,18,c),
(272,0,l)
);
},
{
closed = 1;
nodes = (
(224,0,l),
(224,18,l),
(185,32,o),
(158,38,o),
(158,68,cs),
(158,315,l),
(157,315,l),
(158,394,l),
(147,403,l),
(26,362,l),
(26,341,l),
(45,333,o),
(85,319,o),
(86,298,cs),
(89,223,o),
(89,143,o),
(86,68,cs),
(85,37,o),
(60,32,o),
(21,18,c),
(21,0,l)
);
},
{
closed = 1;
nodes = (
(727,0,l),
(727,18,l),
(688,32,o),
(662,37,o),
(662,68,cs),
(662,273,ls),
(662,355,o),
(628,395,o),
(558,395,cs),
(508,395,o),
(451,365,o),
(385,305,c),
(385,286,l),
(445,329,o),
(478,335,o),
(513,335,cs),
(565,335,o),
(586,306,o),
(590,246,cs),
(594,187,o),
(594,127,o),
(590,68,cs),
(588,38,o),
(573,32,o),
(534,18,c),
(534,0,l)
);
}
);
width = 744;
}
);
note = m;
unicode = 109;
},
{
color = 4;
glyphname = n;
lastChange = "2024-12-30 20:24:14 +0000";
layers = (
{
background = {
shapes = (
{
closed = 1;
nodes = (
(92,40,l),
(117,18,o),
(136,7,o),
(166,-3,c),
(240,40,l),
(202,52,o),
(188,60,o),
(164,80,c),
(164,342,l),
(165,341,l),
(188,347,o),
(200,349,o),
(218,349,cs),
(264,349,o),
(296,337,o),
(337,304,c),
(337,40,l),
(362,18,o),
(381,6,o),
(410,-3,c),
(485,40,l),
(447,52,o),
(432,60,o),
(409,80,c),
(409,344,l),
(359,384,o),
(332,395,o),
(284,395,cs),
(236,395,o),
(205,383,o),
(161,347,c),
(162,346,ls),
(138,367,o),
(120,377,o),
(91,387,c),
(17,344,l),
(54,332,o),
(69,324,o),
(92,304,c)
);
},
{
closed = 1;
nodes = (
(92,40,l,{
"Letterink-NibData" = {
AngleInDegrees = "0";
};
}),
(117,18,o),
(136,7,o),
(166,-3,c,{
"Letterink-NibData" = {
AngleInDegrees = "360";
};
}),
(240,40,l,{
"Letterink-NibData" = {
AngleInDegrees = "0";
};
}),
(202,52,o),
(188,60,o),
(164,80,c),
(164,342,l,{
"Letterink-NibData" = {
AngleInDegrees = "360";
};
}),
(165,341,l,{
"Letterink-NibData" = {
AngleInDegrees = "0";
};
}),
(188,347,o),
(200,349,o),
(218,349,cs),
(264,349,o),
(296,337,o),
(337,304,c),
(337,40,l,{
"Letterink-NibData" = {
AngleInDegrees = "0";
};
}),
(362,18,o),
(381,6,o),
(410,-3,c,{
"Letterink-NibData" = {
AngleInDegrees = "0";
};
}),
(485,40,l,{
"Letterink-NibData" = {
AngleInDegrees = "0";
};
}),
(447,52,o),
(432,60,o),
(409,80,c),
(409,344,l,{
"Letterink-NibData" = {
AngleInDegrees = "0";
};
}),
(359,384,o),
(332,395,o),
(284,395,cs),
(236,395,o),
(205,383,o),
(161,347,c,{
"Letterink-NibData" = {
AngleInDegrees = "360";
};
}),
(162,346,ls,{
"Letterink-NibData" = {
AngleInDegrees = "359.99999";
};
}),
(138,367,o),
(120,377,o),
(91,387,c,{
"Letterink-NibData" = {
AngleInDegrees = "359.99999";
};
}),
(17,344,l,{
"Letterink-NibData" = {
AngleInDegrees = "0";
};
}),
(54,332,o),
(69,324,o),
(92,304,c)
);
}
);
};
layerId = m005;
shapes = (
{
closed = 1;
nodes = (
(473,0,l),
(473,18,l),
(434,32,o),
(408,37,o),
(408,68,cs),
(408,273,ls),
(408,355,o),
(374,395,o),
(304,395,cs),
(254,395,o),
(197,365,o),
(131,305,c),
(131,286,l),
(191,329,o),
(224,335,o),
(259,335,cs),
(311,335,o),
(332,306,o),
(336,246,cs),
(340,189,o),
(340,125,o),
(336,68,cs),
(334,38,o),
(309,32,o),
(270,18,c),
(270,0,l)
);
},
{
closed = 1;
nodes = (
(225,0,l),
(225,18,l),
(186,32,o),
(159,38,o),
(159,68,cs),
(159,315,l),
(160,315,l),
(161,397,l),
(146,403,l),
(27,362,l),
(27,341,l),
(46,333,o),
(86,319,o),
(87,298,cs),
(88,284,o),
(89,129,o),
(87,68,cs),
(86,37,o),
(61,32,o),
(22,18,c),
(22,0,l)
);
}
);
width = 488;
}
);
locked = 1;
note = n;
unicode = 110;
},
{
color = 4;
glyphname = o;
lastChange = "2025-01-02 14:38:13 +0000";
layers = (
{
anchors = (
{
name = bottom;
pos = (244,0);
},
{
name = center;
pos = (244,192);
},
{
name = ogonek;
pos = (439,10);
},
{
name = top;
pos = (244,384);
},
{
name = topright;
pos = (468,384);
}
);
background = {
shapes = (
{
closed = 1;
nodes = (
(72,316,o),
(28,256,o),
(28,174,cs),
(28,74,o),
(112,-11,o),
(211,-11,cs),
(259,-11,o),
(290,1,o),
(334,36,c),
(417,68,o),
(460,128,o),
(460,210,cs),
(460,310,o),
(376,395,o),
(277,395,cs),
(229,395,o),
(198,383,o),
(154,347,c)
);
},
{
closed = 1;
nodes = (
(182,347,o),
(193,349,o),
(211,349,cs),
(311,349,o),
(388,273,o),
(388,174,cs),
(388,125,o),
(369,82,o),
(330,43,c),
(306,37,o),
(294,35,o),
(277,35,cs),
(177,35,o),
(100,111,o),
(100,210,cs),
(100,259,o),
(119,302,o),
(158,341,c)
);
},
{
closed = 1;
nodes = (
(84,320,o),
(28,244,o),
(28,174,cs),
(28,71,o),
(109,-11,o),
(211,-11,cs),
(245,-11,o),
(300,10,o),
(334,36,c,{
"Letterink-NibData" = {
AngleInDegrees = "0";
};
}),
(404,63,o),
(460,140,o),
(460,210,cs),
(460,313,o),
(379,395,o),
(277,395,cs),
(255,395,o),
(201,374,o),
(154,347,c,{
"Letterink-NibData" = {
AngleInDegrees = "359.99999";
};
})
);
},
{
closed = 1;
nodes = (
(226,346,o),
(243,349,o),
(211,349,cs),
(310,349,o),
(388,271,o),
(388,174,cs),
(388,133,o),
(362,75,o),
(330,43,c,{
"Letterink-NibData" = {
AngleInDegrees = "360";
};
}),
(303,39,o),
(277,35,o),
(277,35,cs),
(178,35,o),
(100,113,o),
(100,210,cs),
(100,251,o),
(126,309,o),
(158,341,c,{
"Letterink-NibData" = {
AngleInDegrees = "360";
};
})
);
}
);
};
layerId = m005;
shapes = (
{
closed = 1;
nodes = (
(367,-11,o),
(456,75,o),
(456,196,cs),
(456,313,o),
(367,395,o),
(240,395,cs),
(118,395,o),
(32,308,o),
(32,185,cs),
(32,70,o),
(118,-11,o),
(240,-11,cs)
);
},
{
closed = 1;
nodes = (
(115,295,o),
(166,359,o),
(232,359,cs),
(312,359,o),
(373,282,o),
(373,174,cs),
(373,87,o),
(318,25,o),
(248,25,cs),
(173,25,o),
(115,100,o),
(115,207,cs)
);
}
);
width = 488;
}
);
note = o;
unicode = 111;
},
{
color = 4;
glyphname = p;
lastChange = "2025-01-01 20:06:56 +0000";
layers = (
{
associatedMasterId = m005;
background = {
shapes = (
{
closed = 1;
nodes = (
(76,-240,l,{
"Letterink-NibData" = {
AngleInDegrees = "0";
};
}),
(101,-262,o),
(120,-273,o),
(150,-283,c,{
"Letterink-NibData" = {
AngleInDegrees = "360";
};
}),
(224,-240,l,{
"Letterink-NibData" = {
AngleInDegrees = "0";
};
}),
(186,-228,o),
(172,-220,o),
(148,-200,c),
(148,-2,l,{
"Letterink-NibData" = {
AngleInDegrees = "360";
};
}),
(149,-3,l,{
"Letterink-NibData" = {
AngleInDegrees = "360";
};
}),
(172,-9,o),
(184,-11,o),
(202,-11,cs),
(249,-11,o),
(281,1,o),
(325,36,c,{
"Letterink-NibData" = {
AngleInDegrees = "0";
};
}),
(407,68,o),
(451,128,o),
(451,210,cs),
(451,310,o),
(367,395,o),
(268,395,cs),
(220,395,o),
(189,383,o),
(145,347,c,{
"Letterink-NibData" = {
AngleInDegrees = "360";
};
}),
(146,346,ls,{
"Letterink-NibData" = {
AngleInDegrees = "359.99999";
};
}),
(122,367,o),
(104,377,o),
(75,387,c,{
"Letterink-NibData" = {
AngleInDegrees = "359.99999";
};
}),
(1,344,l,{
"Letterink-NibData" = {
AngleInDegrees = "0";
};
}),
(38,332,o),
(53,324,o),
(76,304,c)
);
},
{
closed = 1;
nodes = (
(148,302,l),
(165,321,o),
(197,335,o),
(236,335,cs),
(317,335,o),
(373,269,o),
(373,183,cs),
(373,90,o),
(321,26,o),
(245,26,cs),
(189,26,o),
(155,64,o),
(148,101,c)
);
},
{
closed = 1;
nodes = (
(369,183,l),
(368,91,o),
(317,26,o),
(244,26,cs),
(191,26,o),
(137,67,o),
(113,125,c),
(67,40,l),
(104,10,o),
(168,-11,o),
(223,-11,cs),
(351,-11,o),
(443,83,o),
(443,216,c)
);
},
{
closed = 1;
nodes = (
(443,216,l),
(443,321,o),
(374,395,o),
(280,395,cs),
(228,395,o),
(156,360,o),
(107,310,c),
(107,291,l),
(137,317,o),
(190,335,o),
(235,335,cs),
(315,335,o),
(369,272,o),
(369,183,c)
);
}
);
};
layerId = "4BE9B7BC-113F-472C-95D8-B3830030B9AE";
name = "29. Dez. 24, 12:25";
shapes = (
{
closed = 1;
nodes = (
(456,226,l),
(456,325,o),
(393,395,o),
(304,395,cs),
(260,395,o),
(189,358,o),
(131,305,c),
(131,286,l),
(171,315,o),
(224,335,o),
(259,335,cs),
(318,335,o),
(363,281,o),
(368,204,c)
);
},
{
closed = 1;
nodes = (
(225,-260,l),
(225,-242,l),
(186,-228,o),
(159,-207,o),
(159,-192,cs),
(159,315,l),
(160,315,l),
(161,397,l),
(146,403,l),
(27,362,l),
(27,341,l),
(61,326,o),
(86,309,o),
(87,298,cs),
(93,208,o),
(93,5,o),
(87,-192,cs),
(86,-209,o),
(59,-229,o),
(22,-242,c),
(22,-260,l)
);
},
{
closed = 1;
nodes = (
(368,204,l),
(368,99,o),
(327,25,o),
(268,25,cs),
(215,25,o),
(163,56,o),
(142,101,c),
(105,31,l),
(136,6,o),
(201,-11,o),
(260,-11,cs),
(375,-11,o),
(456,87,o),
(456,226,c)
);
}
);
width = 488;
},
{
associatedMasterId = m005;
background = {
shapes = (
{
closed = 1;
nodes = (
(76,-240,l,{
"Letterink-NibData" = {
AngleInDegrees = "0";
};
}),
(101,-262,o),
(120,-273,o),
(150,-283,c,{
"Letterink-NibData" = {
AngleInDegrees = "360";
};
}),
(224,-240,l,{
"Letterink-NibData" = {
AngleInDegrees = "0";
};
}),
(186,-228,o),
(172,-220,o),
(148,-200,c),
(148,-2,l,{
"Letterink-NibData" = {
AngleInDegrees = "360";
};
}),
(149,-3,l,{
"Letterink-NibData" = {
AngleInDegrees = "360";
};
}),
(172,-9,o),
(184,-11,o),
(202,-11,cs),
(249,-11,o),
(281,1,o),
(325,36,c,{
"Letterink-NibData" = {
AngleInDegrees = "0";
};
}),
(407,68,o),
(451,128,o),
(451,210,cs),
(451,310,o),
(367,395,o),
(268,395,cs),
(220,395,o),
(189,383,o),
(145,347,c,{
"Letterink-NibData" = {
AngleInDegrees = "360";
};
}),
(146,346,ls,{
"Letterink-NibData" = {
AngleInDegrees = "359.99999";
};
}),
(122,367,o),
(104,377,o),
(75,387,c,{
"Letterink-NibData" = {
AngleInDegrees = "359.99999";
};
}),
(1,344,l,{
"Letterink-NibData" = {
AngleInDegrees = "0";
};
}),
(38,332,o),
(53,324,o),
(76,304,c)
);
},
{
closed = 1;
nodes = (
(148,302,l),
(165,321,o),
(197,335,o),
(236,335,cs),
(317,335,o),
(373,269,o),
(373,183,cs),
(373,90,o),
(321,26,o),
(245,26,cs),
(189,26,o),
(155,64,o),
(148,101,c)
);
},
{
closed = 1;
nodes = (
(369,183,l),
(368,91,o),
(317,26,o),
(244,26,cs),
(191,26,o),
(137,67,o),
(113,125,c),
(67,40,l),
(104,10,o),
(168,-11,o),
(223,-11,cs),
(351,-11,o),
(443,83,o),
(443,216,c)
);
},
{
closed = 1;
nodes = (
(443,216,l),
(443,321,o),
(374,395,o),
(280,395,cs),
(228,395,o),
(156,360,o),
(107,310,c),
(107,291,l),
(137,317,o),
(190,335,o),
(235,335,cs),
(315,335,o),
(369,272,o),
(369,183,c)
);
}
);
};
layerId = "8E049EDF-ED14-4448-BB42-4E4333D0143E";
name = "29. Dez. 24, 12:26";
shapes = (
{
closed = 1;
nodes = (
(456,226,l),
(456,325,o),
(393,395,o),
(304,395,cs),
(261,395,o),
(189,358,o),
(131,305,c),
(131,286,l),
(171,315,o),
(224,335,o),
(259,335,cs),
(318,335,o),
(363,281,o),
(368,204,c)
);
},
{
closed = 1;
nodes = (
(225,-260,l),
(225,-242,l),
(186,-228,o),
(159,-207,o),
(159,-192,cs),
(159,315,l),
(160,315,l),
(161,397,l),
(146,403,l),
(27,362,l),
(27,341,l),
(62,326,o),
(86,309,o),
(87,298,cs),
(93,208,o),
(93,5,o),
(87,-192,cs),
(86,-208,o),
(60,-229,o),
(22,-242,c),
(22,-260,l)
);
},
{
closed = 1;
nodes = (
(368,204,l),
(368,99,o),
(318,25,o),
(248,25,cs),
(207,25,o),
(163,56,o),
(142,101,c),
(105,31,l),
(137,6,o),
(193,-11,o),
(240,-11,cs),
(367,-11,o),
(456,87,o),
(456,226,c)
);
}
);
width = 488;
},
{
background = {
shapes = (
{
closed = 1;
nodes = (
(76,-240,l,{
"Letterink-NibData" = {
AngleInDegrees = "0";
};
}),
(101,-262,o),
(120,-273,o),
(150,-283,c,{
"Letterink-NibData" = {
AngleInDegrees = "360";
};
}),
(224,-240,l,{
"Letterink-NibData" = {
AngleInDegrees = "0";
};
}),
(186,-228,o),
(172,-220,o),
(148,-200,c),
(148,-2,l,{
"Letterink-NibData" = {
AngleInDegrees = "360";
};
}),
(149,-3,l,{
"Letterink-NibData" = {
AngleInDegrees = "360";
};
}),
(172,-9,o),
(184,-11,o),
(202,-11,cs),
(249,-11,o),
(281,1,o),
(325,36,c,{
"Letterink-NibData" = {
AngleInDegrees = "0";
};
}),
(407,68,o),
(451,128,o),
(451,210,cs),
(451,310,o),
(367,395,o),
(268,395,cs),
(220,395,o),
(189,383,o),
(145,347,c,{
"Letterink-NibData" = {
AngleInDegrees = "360";
};
}),
(146,346,ls,{
"Letterink-NibData" = {
AngleInDegrees = "359.99999";
};
}),
(122,367,o),
(104,377,o),
(75,387,c,{
"Letterink-NibData" = {
AngleInDegrees = "359.99999";
};
}),
(1,344,l,{
"Letterink-NibData" = {
AngleInDegrees = "0";
};
}),
(38,332,o),
(53,324,o),
(76,304,c)
);
},
{
closed = 1;
nodes = (
(148,302,l),
(165,321,o),
(197,335,o),
(236,335,cs),
(317,335,o),
(373,269,o),
(373,183,cs),
(373,90,o),
(321,26,o),
(245,26,cs),
(189,26,o),
(155,64,o),
(148,101,c)
);
},
{
closed = 1;
nodes = (
(369,183,l),
(368,91,o),
(317,26,o),
(244,26,cs),
(191,26,o),
(137,67,o),
(113,125,c),
(67,40,l),
(104,10,o),
(168,-11,o),
(223,-11,cs),
(351,-11,o),
(443,83,o),
(443,216,c)
);
},
{
closed = 1;
nodes = (
(443,216,l),
(443,321,o),
(374,395,o),
(280,395,cs),
(228,395,o),
(156,360,o),
(107,310,c),
(107,291,l),
(137,317,o),
(190,335,o),
(235,335,cs),
(315,335,o),
(369,272,o),
(369,183,c)
);
}
);
};
layerId = m005;
name = Regular;
shapes = (
{
closed = 1;
nodes = (
(456,205,l),
(456,316,o),
(387,395,o),
(289,395,cs),
(244,395,o),
(173,362,o),
(116,315,c),
(116,296,l),
(154,319,o),
(207,335,o),
(244,335,cs),
(322,335,o),
(377,268,o),
(377,174,c)
);
},
{
closed = 1;
nodes = (
(238,-232,l),
(238,-214,l),
(188,-204,o),
(152,-183,o),
(152,-164,cs),
(152,316,l),
(151,316,l),
(152,395,l),
(139,403,l),
(20,363,l),
(20,342,l),
(55,327,o),
(80,310,o),
(80,299,cs),
(80,-164,ls),
(80,-179,o),
(53,-200,o),
(15,-214,c),
(15,-232,l)
);
},
{
closed = 1;
nodes = (
(377,174,l),
(377,87,o),
(321,26,o),
(243,26,cs),
(200,26,o),
(151,64,o),
(126,117,c),
(100,28,l),
(132,5,o),
(182,-11,o),
(222,-11,cs),
(359,-11,o),
(456,78,o),
(456,205,c)
);
}
);
width = 488;
}
);
note = p;
unicode = 112;
},
{
color = 6;
glyphname = q;
lastChange = "2025-01-01 20:09:11 +0000";
layers = (
{
layerId = m005;
shapes = (
{
closed = 1;
nodes = (
(343,-164,l),
(417,-164,l),
(416,-39,o),
(416,269,o),
(417,394,c),
(393,383,o),
(369,371,o),
(345,377,c)
);
},
{
closed = 1;
nodes = (
(106,201,l),
(107,288,o),
(162,358,o),
(231,358,cs),
(281,358,o),
(339,314,o),
(362,259,c),
(408,344,l),
(373,372,o),
(304,395,o),
(252,395,cs),
(129,395,o),
(32,294,o),
(32,168,c)
);
},
{
closed = 1;
nodes = (
(32,168,l),
(32,68,o),
(104,-11,o),
(195,-11,cs),
(245,-11,o),
(322,27,o),
(368,74,c),
(368,93,l),
(340,68,o),
(283,49,o),
(240,49,cs),
(165,49,o),
(106,116,o),
(106,201,c)
);
},
{
closed = 1;
nodes = (
(343,-201,o),
(318,-202,o),
(256,-214,c),
(256,-232,l),
(472,-232,l),
(472,-214,l),
(440,-202,o),
(417,-201,o),
(417,-164,c),
(343,-164,l)
);
}
);
width = 488;
}
);
unicode = 113;
},
{
color = 4;
glyphname = r;
lastChange = "2025-01-02 14:46:11 +0000";
layers = (
{
background = {
shapes = (
{
closed = 1;
nodes = (
(86,40,l,{
"Letterink-NibData" = {
AngleInDegrees = "0";
};
}),
(111,18,o),
(130,7,o),
(160,-3,c,{
"Letterink-NibData" = {
AngleInDegrees = "360";
};
}),
(234,40,l,{
"Letterink-NibData" = {
AngleInDegrees = "0";
};
}),
(196,52,o),
(182,60,o),
(158,80,c),
(158,342,l,{
"Letterink-NibData" = {
AngleInDegrees = "360";
};
}),
(159,341,l,{
"Letterink-NibData" = {
AngleInDegrees = "0";
};
}),
(182,347,o),
(194,349,o),
(212,349,cs),
(260,349,o),
(289,338,o),
(335,301,c,{
"Letterink-NibData" = {
AngleInDegrees = "0";
};
}),
(406,342,l,{
"Letterink-NibData" = {
AngleInDegrees = "0";
};
}),
(354,384,o),
(326,395,o),
(278,395,cs),
(230,395,o),
(199,383,o),
(155,347,c,{
"Letterink-NibData" = {
AngleInDegrees = "360";
};
}),
(156,346,ls,{
"Letterink-NibData" = {
AngleInDegrees = "359.99999";
};
}),
(132,367,o),
(114,377,o),
(85,387,c,{
"Letterink-NibData" = {
AngleInDegrees = "359.99999";
};
}),
(11,344,l,{
"Letterink-NibData" = {
AngleInDegrees = "0";
};
}),
(48,332,o),
(63,324,o),
(86,304,c)
);
}
);
};
guides = (
{
angle = 46;
lockAngle = 1;
pos = (324,376);
}
);
layerId = m005;
shapes = (
{
closed = 1;
nodes = (
(128,228,l),
(176,287,o),
(191,321,o),
(222,321,cs),
(233,321,o),
(245,308,o),
(257,296,cs),
(278,275,o),
(338,350,o),
(317,371,cs),
(306,382,o),
(287,390,o),
(266,390,cs),
(228,390,o),
(204,362,o),
(128,267,c)
);
},
{
closed = 1;
nodes = (
(254,0,l),
(254,18,l),
(185,32,o),
(158,38,o),
(158,68,cs),
(158,295,l),
(157,295,l),
(160,394,l),
(145,403,l),
(26,362,l),
(26,341,l),
(45,333,o),
(84,319,o),
(85,298,cs),
(89,223,o),
(89,143,o),
(87,68,cs),
(86,37,o),
(60,32,o),
(21,18,c),
(21,0,l)
);
}
);
width = 320;
}
);
note = r;
unicode = 114;
},
{
color = 4;
glyphname = s;
lastChange = "2025-01-02 14:28:22 +0000";
layers = (
{
background = {
shapes = (
{
closed = 1;
nodes = (
(78,386,l),
(78,387,l,{
"Letterink-NibData" = {
AngleInDegrees = "360";
};
}),
(5,346,l,{
"Letterink-NibData" = {
AngleInDegrees = "360";
};
}),
(8,341,l),
(78,341,l),
(78,40,l,{
"Letterink-NibData" = {
AngleInDegrees = "0";
};
}),
(103,18,o),
(122,7,o),
(151,-3,c,{
"Letterink-NibData" = {
AngleInDegrees = "0";
};
}),
(226,40,l,{
"Letterink-NibData" = {
AngleInDegrees = "0";
};
}),
(189,52,o),
(173,60,o),
(150,80,c),
(150,662,l,{
"Letterink-NibData" = {
AngleInDegrees = "360";
};
}),
(151,661,l,{
"Letterink-NibData" = {
AngleInDegrees = "0";
};
}),
(174,667,o),
(185,669,o),
(204,669,cs),
(252,669,o),
(281,657,o),
(327,621,c,{
"Letterink-NibData" = {
AngleInDegrees = "0";
};
}),
(398,662,l,{
"Letterink-NibData" = {
AngleInDegrees = "0";
};
}),
(344,705,o),
(319,715,o),
(269,715,cs),
(222,715,o),
(190,703,o),
(147,667,c,{
"Letterink-NibData" = {
AngleInDegrees = "360";
};
}),
(78,628,l)
);
}
);
};
layerId = m005;
shapes = (
{
closed = 1;
nodes = (
(236,-9,o),
(297,39,o),
(297,108,cs),
(297,226,o),
(104,222,o),
(106,310,cs),
(107,343,o),
(132,368,o),
(167,368,cs),
(215,368,o),
(249,334,o),
(251,285,c),
(277,285,l),
(276,325,o),
(277,362,o),
(280,376,c),
(247,388,o),
(200,396,o),
(167,396,cs),
(93,396,o),
(40,347,o),
(40,278,cs),
(40,154,o),
(229,171,o),
(229,80,cs),
(229,41,o),
(197,16,o),
(152,19,cs),
(108,22,o),
(64,79,o),
(59,128,c),
(32,128,l),
(35,114,o),
(37,55,o),
(35,12,c),
(77,0,o),
(130,-9,o),
(149,-9,cs)
);
}
);
width = 329;
}
);
note = s;
unicode = 115;
},
{
color = 9;
glyphname = germandbls;
lastChange = "2025-01-01 19:31:18 +0000";
layers = (
{
background = {
shapes = (
{
closed = 1;
nodes = (
(435,-9,o),
(496,39,o),
(496,108,cs),
(496,226,o),
(303,222,o),
(305,310,cs),
(306,343,o),
(331,368,o),
(366,368,cs),
(414,368,o),
(448,334,o),
(450,285,c),
(476,285,l),
(475,325,o),
(476,362,o),
(479,376,c),
(446,388,o),
(399,396,o),
(366,396,cs),
(292,396,o),
(239,347,o),
(239,278,cs),
(239,154,o),
(428,171,o),
(428,80,cs),
(428,41,o),
(396,16,o),
(351,19,cs),
(307,22,o),
(263,79,o),
(258,128,c),
(231,128,l),
(234,114,o),
(236,55,o),
(234,12,c),
(276,0,o),
(329,-9,o),
(348,-9,cs)
);
}
);
};
layerId = m005;
shapes = (
{
closed = 1;
nodes = (
(166,0,l),
(164,69,ls),
(160,188,o),
(160,367,o),
(163,499,cs),
(165,574,o),
(203,627,o),
(246,627,c),
(283,665,l),
(177,665,o),
(93,583,o),
(90,467,cs),
(88,392,o),
(89,238,o),
(89,69,cs),
(89,46,o),
(62,35,o),
(24,18,c),
(24,0,l)
);
},
{
closed = 1;
nodes = (
(424,-6,o),
(496,47,o),
(496,129,cs),
(496,247,o),
(311,261,o),
(311,339,cs),
(311,430,o),
(419,394,o),
(419,550,cs),
(419,613,o),
(361,665,o),
(283,665,c),
(246,627,l),
(305,627,o),
(348,580,o),
(348,524,cs),
(348,388,o),
(242,420,o),
(242,309,cs),
(242,189,o),
(425,194,o),
(425,103,cs),
(425,50,o),
(383,19,o),
(350,22,cs),
(312,25,o),
(272,64,o),
(266,122,c),
(239,122,l),
(243,110,o),
(244,62,o),
(242,6,c),
(274,-3,o),
(322,-6,o),
(347,-6,cs)
);
},
{
closed = 1;
nodes = (
(144,334,l),
(144,389,l),
(85,384,l),
(9,359,l),
(9,349,l)
);
}
);
width = 528;
}
);
unicode = 223;
},
{
color = 4;
glyphname = t;
lastChange = "2025-01-02 14:46:22 +0000";
layers = (
{
background = {
shapes = (
{
closed = 1;
nodes = (
(124,1,o),
(153,-11,o),
(201,-11,cs),
(250,-11,o),
(278,0,o),
(326,39,c,{
"Letterink-NibData" = {
AngleInDegrees = "0";
};
}),
(323,44,l),
(320,44,o),
(316,43,o),
(316,42,c,{
"Letterink-NibData" = {
AngleInDegrees = "0";
};
}),
(298,37,o),
(285,35,o),
(266,35,cs),
(220,35,o),
(188,47,o),
(147,80,c),
(147,342,l,{
"Letterink-NibData" = {
AngleInDegrees = "360";
};
}),
(148,341,l),
(254,341,l,{
"Letterink-NibData" = {
AngleInDegrees = "360";
};
}),
(327,382,l,{
"Letterink-NibData" = {
AngleInDegrees = "0";
};
}),
(324,387,l),
(147,387,l),
(147,429,l,{
"Letterink-NibData" = {
AngleInDegrees = "0";
};
}),
(2,346,l,{
"Letterink-NibData" = {
AngleInDegrees = "360";
};
}),
(5,341,l),
(75,341,l),
(75,40,l,{
"Letterink-NibData" = {
AngleInDegrees = "360";
};
})
);
}
);
};
guides = (
{
angle = 11.5;
pos = (285,39);
}
);
layerId = m005;
shapes = (
{
closed = 1;
nodes = (
(198,-11,o),
(252,5,o),
(287,27,c),
(277,48,l),
(258,40,o),
(229,34,o),
(209,34,cs),
(176,34,o),
(151,52,o),
(149,78,cs),
(147,108,o),
(146,153,o),
(146,186,cs),
(146,316,o),
(154,433,o),
(159,468,c),
(140,474,l),
(78,381,l),
(72,237,o),
(68,98,o),
(74,46,cs),
(78,13,o),
(113,-11,o),
(158,-11,cs)
);
},
{
closed = 1;
nodes = (
(281,334,l),
(281,389,l),
(82,384,l),
(6,359,l),
(6,349,l)
);
},
{
closed = 1;
nodes = (
(114,361,l),
(140,474,l),
(104,423,o),
(48,375,o),
(6,359,c)
);
}
);
width = 296;
}
);
note = t;
unicode = 116;
},
{
color = 4;
glyphname = u;
lastChange = "2025-01-01 20:08:47 +0000";
layers = (
{
anchors = (
{
name = bottom;
pos = (242,0);
},
{
name = ogonek;
pos = (433,10);
},
{
name = top;
pos = (242,384);
},
{
name = topright;
pos = (461,384);
}
);
background = {
shapes = (
{
closed = 1;
nodes = (
(79,40,l,{
"Letterink-NibData" = {
AngleInDegrees = "360";
};
}),
(128,1,o),
(157,-11,o),
(205,-11,cs),
(252,-11,o),
(284,1,o),
(328,37,c,{
"Letterink-NibData" = {
AngleInDegrees = "360";
};
}),
(327,38,ls,{
"Letterink-NibData" = {
AngleInDegrees = "0";
};
}),
(350,17,o),
(369,6,o),
(397,-3,c,{
"Letterink-NibData" = {
AngleInDegrees = "0";
};
}),
(472,40,l,{
"Letterink-NibData" = {
AngleInDegrees = "0";
};
}),
(434,52,o),
(419,60,o),
(396,80,c),
(396,344,l,{
"Letterink-NibData" = {
AngleInDegrees = "359.99999";
};
}),
(370,367,o),
(354,377,o),
(323,387,c,{
"Letterink-NibData" = {
AngleInDegrees = "359.99999";
};
}),
(249,344,l,{
"Letterink-NibData" = {
AngleInDegrees = "0";
};
}),
(286,332,o),
(301,324,o),
(324,304,c),
(324,42,l),
(324,43,l,{
"Letterink-NibData" = {
AngleInDegrees = "0";
};
}),
(300,37,o),
(289,35,o),
(271,35,cs),
(224,35,o),
(193,47,o),
(151,80,c),
(151,344,l,{
"Letterink-NibData" = {
AngleInDegrees = "359.99999";
};
}),
(125,367,o),
(109,377,o),
(78,387,c,{
"Letterink-NibData" = {
AngleInDegrees = "359.99999";
};
}),
(4,344,l,{
"Letterink-NibData" = {
AngleInDegrees = "0";
};
}),
(41,332,o),
(56,324,o),
(79,304,c)
);
}
);
};
layerId = m005;
shapes = (
{
closed = 1;
nodes = (
(143,403,l),
(17,369,l),
(17,351,l),
(56,337,o),
(82,332,o),
(82,301,cs),
(79,111,ls),
(78,40,o),
(136,-11,o),
(203,-11,cs),
(247,-11,o),
(304,32,o),
(356,89,c),
(356,108,l),
(324,75,o),
(275,49,o),
(238,49,cs),
(187,49,o),
(153,77,o),
(151,145,cs),
(149,201,o),
(153,265,o),
(154,321,cs),
(154,345,o),
(156,370,o),
(156,394,c)
);
},
{
closed = 1;
nodes = (
(390,403,l),
(263,369,l),
(263,351,l),
(302,337,o),
(325,331,o),
(327,301,cs),
(332,219,o),
(329,146,o),
(324,64,c),
(327,64,l),
(326,-5,l),
(339,-11,l),
(468,17,l),
(468,38,l),
(439,41,o),
(398,55,o),
(398,76,cs),
(401,321,l),
(403,394,l)
);
}
);
width = 488;
}
);
note = u;
unicode = 117;
},
{
color = 4;
glyphname = v;
lastChange = "2025-01-02 14:46:27 +0000";
layers = (
{
background = {
shapes = (
{
closed = 1;
nodes = (
(233,-12,l,{
"Letterink-NibData" = {
AngleInDegrees = "360";
};
}),
(391,343,l,{
"Letterink-NibData" = {
AngleInDegrees = "0";
};
}),
(364,367,o),
(348,376,o),
(317,387,c,{
"Letterink-NibData" = {
AngleInDegrees = "0";
};
}),
(257,327,l,{
"Letterink-NibData" = {
AngleInDegrees = "360";
};
}),
(291,316,o),
(307,307,o),
(329,289,c,{
"Letterink-NibData" = {
AngleInDegrees = "360";
};
}),
(253,119,l,{
"Letterink-NibData" = {
AngleInDegrees = "360";
};
}),
(143,346,l,{
"Letterink-NibData" = {
AngleInDegrees = "359.99999";
};
}),
(119,367,o),
(102,377,o),
(72,387,c,{
"Letterink-NibData" = {
AngleInDegrees = "0";
};
}),
(12,327,l,{
"Letterink-NibData" = {
AngleInDegrees = "0";
};
}),
(48,315,o),
(63,307,o),
(88,286,c,{
"Letterink-NibData" = {
AngleInDegrees = "360";
};
})
);
}
);
};
layerId = m005;
shapes = (
{
closed = 1;
nodes = (
(194,0,l),
(222,0,l),
(354,302,ls),
(363,322,o),
(372,335,o),
(383,345,cs),
(393,353,o),
(405,358,o),
(420,361,c),
(420,384,l),
(274,384,l),
(274,361,l),
(287,359,o),
(306,358,o),
(317,351,cs),
(323,348,o),
(327,343,o),
(327,336,cs),
(327,330,o),
(324,319,o),
(318,304,cs),
(223,72,l),
(243,72,l),
(146,318,ls),
(143,327,o),
(141,333,o),
(141,337,cs),
(141,344,o),
(145,349,o),
(152,353,cs),
(165,359,o),
(187,360,o),
(201,361,c),
(201,384,l),
(0,384,l),
(0,361,l),
(15,359,o),
(36,356,o),
(45,348,cs),
(53,340,o),
(60,328,o),
(68,308,cs)
);
}
);
width = 416;
}
);
note = v;
unicode = 118;
},
{
color = 6;
glyphname = w;
lastChange = "2025-01-02 14:46:29 +0000";
layers = (
{
layerId = m005;
shapes = (
{
closed = 1;
nodes = (
(394,0,l),
(422,0,l),
(552,302,ls),
(561,322,o),
(570,335,o),
(581,345,cs),
(591,353,o),
(603,358,o),
(618,361,c),
(618,384,l),
(472,384,l),
(472,361,l),
(485,359,o),
(504,358,o),
(515,351,cs),
(521,348,o),
(525,343,o),
(525,336,cs),
(525,330,o),
(522,319,o),
(516,304,cs),
(423,72,l),
(444,72,l),
(345,318,ls),
(341,327,o),
(340,333,o),
(340,337,cs),
(340,344,o),
(344,349,o),
(351,353,cs),
(364,359,o),
(386,360,o),
(400,361,c),
(400,384,l),
(220,384,l),
(220,361,l),
(235,359,o),
(236,356,o),
(245,348,cs),
(253,340,o),
(260,328,o),
(268,308,cs)
);
},
{
closed = 1;
nodes = (
(308,279,l),
(223,72,l),
(244,72,l),
(145,318,ls),
(141,327,o),
(140,333,o),
(140,337,cs),
(140,344,o),
(144,349,o),
(151,353,cs),
(164,359,o),
(166,360,o),
(180,361,c),
(180,384,l),
(0,384,l),
(0,361,l),
(15,359,o),
(36,356,o),
(45,348,cs),
(53,340,o),
(60,328,o),
(68,308,cs),
(194,0,l),
(222,0,l),
(327,241,l)
);
}
);
width = 616;
}
);
unicode = 119;
},
{
color = 6;
glyphname = x;
lastChange = "2025-01-02 14:46:32 +0000";
layers = (
{
layerId = m005;
shapes = (
{
closed = 1;
nodes = (
(194,159,l),
(207,154,l),
(338,322,ls),
(351,339,o),
(378,356,o),
(404,361,c),
(404,384,l),
(260,384,l),
(260,365,l),
(291,360,o),
(305,344,o),
(290,324,cs),
(216,226,l),
(237,221,l),
(156,338,ls),
(141,359,o),
(169,364,o),
(184,365,c),
(184,384,l),
(8,384,l),
(8,361,l),
(33,358,o),
(55,346,o),
(69,328,cs)
);
},
{
closed = 1;
nodes = (
(237,223,l),
(210,238,l),
(73,62,ls),
(54,38,o),
(36,30,o),
(0,23,c),
(0,0,l),
(168,0,l),
(168,19,l),
(137,24,o),
(104,30,o),
(119,50,cs),
(205,170,l),
(194,161,l),
(278,46,ls),
(290,30,o),
(261,21,o),
(236,19,c),
(236,0,l),
(420,0,l),
(420,23,l),
(395,26,o),
(380,36,o),
(365,56,cs)
);
}
);
width = 416;
}
);
unicode = 120;
},
{
color = 6;
glyphname = y;
lastChange = "2025-01-02 14:46:33 +0000";
layers = (
{
layerId = m005;
shapes = (
{
closed = 1;
nodes = (
(236,0,l),
(354,302,ls),
(362,322,o),
(372,335,o),
(383,345,cs),
(393,353,o),
(405,358,o),
(420,361,c),
(420,384,l),
(274,384,l),
(274,361,l),
(287,359,o),
(304,358,o),
(315,351,cs),
(321,348,o),
(325,343,o),
(325,336,cs),
(325,330,o),
(322,319,o),
(316,304,cs),
(211,27,l),
(234,55,l),
(146,318,ls),
(143,327,o),
(141,333,o),
(141,337,cs),
(141,344,o),
(145,349,o),
(152,353,cs),
(165,359,o),
(187,360,o),
(201,361,c),
(201,384,l),
(0,384,l),
(0,361,l),
(15,359,o),
(36,356,o),
(45,348,cs),
(53,340,o),
(61,328,o),
(68,308,cs),
(195,-61,l)
);
},
{
closed = 1;
nodes = (
(120,-232,o),
(174,-139,o),
(202,-75,cs),
(231,-17,o),
(216,-46,o),
(236,0,c),
(212,25,l),
(151,-116,l),
(135,-142,o),
(127,-161,o),
(99,-161,cs),
(80,-161,o),
(78,-141,o),
(56,-141,cs),
(32,-141,o),
(8,-170,o),
(8,-202,cs),
(8,-226,o),
(24,-232,o),
(48,-232,cs)
);
}
);
width = 416;
},
{
associatedMasterId = m005;
layerId = "50AA2D8F-A47F-47B7-8402-81B2F32D7E55";
name = "29. Dez. 24, 16:03";
shapes = (
{
closed = 1;
nodes = (
(180,0,l),
(242,0,l),
(360,302,ls),
(368,322,o),
(378,335,o),
(389,345,cs),
(399,353,o),
(411,358,o),
(426,361,c),
(426,384,l),
(280,384,l),
(280,361,l),
(293,359,o),
(310,358,o),
(321,351,cs),
(327,348,o),
(331,343,o),
(331,336,cs),
(331,330,o),
(328,319,o),
(322,304,cs),
(217,27,l),
(240,55,l),
(152,318,ls),
(149,327,o),
(147,333,o),
(147,337,cs),
(147,344,o),
(151,349,o),
(158,353,cs),
(171,359,o),
(193,360,o),
(207,361,c),
(207,384,l),
(6,384,l),
(6,361,l),
(21,359,o),
(42,356,o),
(51,348,cs),
(59,340,o),
(67,328,o),
(74,308,cs)
);
},
{
closed = 1;
nodes = (
(213,25,l),
(167,-106,o),
(128,-166,o),
(113,-166,cs),
(102,-166,o),
(93,-160,o),
(84,-149,cs),
(74,-137,o),
(74,-125,o),
(68,-119,cs),
(45,-98,o),
(-17,-165,o),
(5,-188,cs),
(21,-204,o),
(59,-215,o),
(97,-215,cs),
(110,-215,o),
(124,-208,o),
(136,-196,cs),
(181,-153,o),
(222,-46,o),
(242,0,c)
);
},
{
closed = 0;
nodes = (
(338,-122,l)
);
}
);
width = 426;
}
);
unicode = 121;
},
{
color = 6;
glyphname = z;
lastChange = "2025-01-02 14:52:49 +0000";
layers = (
{
background = {
shapes = (
{
closed = 1;
nodes = (
(146,1,o),
(254,0,o),
(365,0,c),
(365,157,l),
(337,157,l),
(328,102,o),
(320,62,o),
(295,62,cs),
(79,62,l),
(89,46,l),
(359,354,l),
(359,391,l),
(268,386,o),
(216,384,o),
(133,384,cs),
(121,384,o),
(101,388,o),
(105,403,c),
(75,412,l),
(32,264,l),
(62,255,l),
(75,307,o),
(94,323,o),
(115,323,cs),
(309,323,l),
(309,359,l),
(35,44,l),
(35,-5,l)
);
}
);
};
layerId = m005;
shapes = (
{
closed = 1;
nodes = (
(146,4,o),
(254,3,o),
(365,0,c),
(365,157,l),
(337,157,l),
(328,102,o),
(320,35,o),
(295,35,cs),
(63,35,l),
(112,22,l),
(359,354,l),
(359,391,l),
(268,384,o),
(216,382,o),
(133,384,cs),
(121,384,o),
(101,388,o),
(105,403,c),
(75,412,l),
(32,264,l),
(62,255,l),
(75,307,o),
(94,349,o),
(115,349,cs),
(308,349,l),
(271,359,l),
(35,44,l),
(35,-5,l)
);
}
);
width = 392;
},
{
associatedMasterId = m005;
background = {
shapes = (
{
closed = 1;
nodes = (
(146,1,o),
(254,0,o),
(365,0,c),
(365,157,l),
(337,157,l),
(328,102,o),
(320,62,o),
(295,62,cs),
(79,62,l),
(89,46,l),
(359,354,l),
(359,391,l),
(268,386,o),
(216,384,o),
(133,384,cs),
(121,384,o),
(101,388,o),
(105,403,c),
(75,412,l),
(32,264,l),
(62,255,l),
(75,307,o),
(94,323,o),
(115,323,cs),
(309,323,l),
(309,359,l),
(35,44,l),
(35,-5,l)
);
}
);
};
layerId = "8E5B26C9-B0B7-42BF-BF4E-2B7B091619A2";
name = "2. Jan. 25, 15:24";
shapes = (
{
closed = 1;
nodes = (
(146,1,o),
(254,0,o),
(365,0,c),
(365,157,l),
(337,157,l),
(328,102,o),
(320,62,o),
(295,62,cs),
(79,62,l),
(89,46,l),
(359,354,l),
(359,391,l),
(268,386,o),
(216,384,o),
(133,384,cs),
(121,384,o),
(101,388,o),
(105,403,c),
(75,412,l),
(32,264,l),
(62,255,l),
(75,307,o),
(94,323,o),
(115,323,cs),
(309,323,l),
(309,359,l),
(35,44,l),
(35,-5,l)
);
}
);
width = 392;
}
);
unicode = 122;
},
{
glyphname = c_t;
lastChange = "2024-12-30 17:45:27 +0000";
layers = (
{
layerId = m005;
shapes = (
{
ref = c;
},
{
pos = (392,0);
ref = t;
},
{
closed = 1;
nodes = (
(551,466,l),
(551,546,o),
(494,603,o),
(413,603,cs),
(332,603,o),
(275,546,o),
(275,465,cs),
(275,419,o),
(293,381,o),
(323,356,c),
(346,372,l),
(319,392,o),
(302,426,o),
(302,465,cs),
(302,529,o),
(348,575,o),
(413,575,cs),
(477,575,o),
(527,529,o),
(527,465,cs),
(527,455,o),
(526,446,o),
(524,437,c)
);
}
);
width = 696;
}
);
metricLeft = c;
metricRight = t;
},
{
color = 9;
glyphname = f_f;
lastChange = "2024-12-30 17:37:17 +0000";
layers = (
{
layerId = m005;
shapes = (
{
closed = 1;
nodes = (
(20,0,l),
(253,0,l),
(253,18,l),
(199,31,o),
(162,31,o),
(160,69,cs),
(155,163,o),
(147,354,o),
(159,499,cs),
(164,560,o),
(177,627,o),
(246,627,cs),
(269,627,o),
(279,619,o),
(288,608,cs),
(297,595,o),
(301,578,o),
(312,569,cs),
(335,548,o),
(397,615,o),
(375,638,cs),
(357,656,o),
(324,665,o),
(283,665,cs),
(225,665,o),
(170,644,o),
(132,603,cs),
(90,559,o),
(89,522,o),
(85,417,cs),
(84,385,o),
(84,221,o),
(85,69,cs),
(85,30,o),
(52,32,o),
(20,18,c)
);
},
{
closed = 1;
nodes = (
(580,334,l),
(580,389,l),
(91,384,l),
(15,359,l),
(15,349,l)
);
},
{
pos = (284,0);
ref = f;
}
);
width = 592;
}
);
metricLeft = f;
metricRight = f;
},
{
glyphname = f_f_i;
lastChange = "2024-12-30 17:38:52 +0000";
layers = (
{
layerId = m005;
shapes = (
{
closed = 1;
nodes = (
(24,0,l),
(257,0,l),
(257,18,l),
(203,31,o),
(167,31,o),
(165,69,cs),
(160,163,o),
(160,304,o),
(165,449,cs),
(167,510,o),
(162,624,o),
(231,624,cs),
(254,624,o),
(263,617,o),
(272,606,cs),
(281,593,o),
(285,576,o),
(296,567,cs),
(319,546,o),
(381,615,o),
(359,638,cs),
(341,656,o),
(308,665,o),
(267,665,cs),
(209,665,o),
(161,631,o),
(133,590,cs),
(99,540,o),
(93,492,o),
(89,387,cs),
(88,355,o),
(88,221,o),
(89,69,cs),
(89,30,o),
(56,32,o),
(24,18,c)
);
},
{
closed = 1;
nodes = (
(718,334,l),
(718,389,l),
(95,384,l),
(19,359,l),
(19,349,l)
);
},
{
pos = (296,0);
ref = f_i;
}
);
width = 800;
}
);
metricLeft = f;
metricRight = i;
},
{
glyphname = f_f_l;
lastChange = "2024-12-30 17:40:41 +0000";
layers = (
{
layerId = m005;
shapes = (
{
closed = 1;
nodes = (
(24,0,l),
(257,0,l),
(257,18,l),
(203,31,o),
(167,31,o),
(165,69,cs),
(160,163,o),
(160,304,o),
(165,449,cs),
(167,510,o),
(162,624,o),
(231,624,cs),
(254,624,o),
(263,617,o),
(272,606,cs),
(281,593,o),
(285,576,o),
(296,567,cs),
(319,546,o),
(381,615,o),
(359,638,cs),
(341,656,o),
(308,665,o),
(267,665,cs),
(209,665,o),
(161,631,o),
(133,590,cs),
(99,540,o),
(93,492,o),
(89,387,cs),
(88,355,o),
(88,221,o),
(89,69,cs),
(89,30,o),
(56,32,o),
(24,18,c)
);
},
{
closed = 1;
nodes = (
(588,334,l),
(588,389,l),
(95,384,l),
(19,359,l),
(19,349,l)
);
},
{
pos = (288,0);
ref = f_l;
}
);
width = 800;
}
);
metricLeft = f;
metricRight = l;
},
{
color = 9;
glyphname = f_i;
lastChange = "2024-12-30 17:37:21 +0000";
layers = (
{
layerId = m005;
shapes = (
{
closed = 1;
nodes = (
(253,0,l),
(253,18,l),
(199,31,o),
(161,52,o),
(160,69,cs),
(152,227,o),
(159,405,o),
(159,499,cs),
(159,603,o),
(203,627,o),
(236,627,cs),
(287,627,o),
(307,600,o),
(326,561,cs),
(335,543,o),
(352,525,o),
(373,525,cs),
(400,525,o),
(424,549,o),
(424,574,cs),
(424,591,o),
(414,607,o),
(401,616,c),
(379,636,o),
(353,665,o),
(263,665,cs),
(212,665,o),
(174,647,o),
(147,616,cs),
(106,571,o),
(88,499,o),
(85,417,cs),
(84,382,o),
(84,237,o),
(85,69,cs),
(85,56,o),
(58,35,o),
(20,18,c),
(20,0,l)
);
},
{
closed = 1;
nodes = (
(417,395,l),
(91,384,l),
(15,359,l),
(15,349,l),
(417,332,l)
);
},
{
closed = 1;
nodes = (
(497,0,l),
(497,18,l),
(456,32,o),
(432,39,o),
(431,68,cs),
(429,148,o),
(429,229,o),
(431,309,cs),
(433,388,l),
(418,395,l),
(299,387,l),
(299,376,l),
(318,368,o),
(358,355,o),
(359,333,cs),
(362,258,o),
(362,143,o),
(359,68,cs),
(358,39,o),
(335,32,o),
(294,18,c),
(294,0,l)
);
}
);
width = 504;
}
);
metricLeft = f;
metricRight = i;
},
{
color = 9;
glyphname = f_l;
lastChange = "2024-12-30 17:37:32 +0000";
layers = (
{
layerId = m005;
shapes = (
{
closed = 1;
nodes = (
(20,0,l),
(253,0,l),
(253,18,l),
(199,31,o),
(162,31,o),
(160,69,cs),
(155,163,o),
(143,354,o),
(155,499,cs),
(160,560,o),
(157,627,o),
(226,627,cs),
(249,627,o),
(278,622,o),
(295,616,cs),
(330,603,o),
(407,605,o),
(385,628,cs),
(367,646,o),
(304,665,o),
(263,665,cs),
(205,665,o),
(170,644,o),
(132,603,cs),
(90,559,o),
(89,522,o),
(85,417,cs),
(84,385,o),
(84,221,o),
(85,69,cs),
(85,30,o),
(52,32,o),
(20,18,c)
);
},
{
closed = 1;
nodes = (
(300,334,l),
(300,389,l),
(91,384,l),
(15,359,l),
(15,349,l)
);
},
{
pos = (284,0);
ref = l;
}
);
width = 512;
}
);
metricLeft = f;
metricRight = l;
},
{
glyphname = s_t;
lastChange = "2024-12-30 17:45:17 +0000";
layers = (
{
layerId = m005;
shapes = (
{
ref = s;
},
{
pos = (328,0);
ref = t;
},
{
closed = 1;
nodes = (
(486,466,l),
(486,546,o),
(429,603,o),
(348,603,cs),
(267,603,o),
(210,546,o),
(210,465,cs),
(210,419,o),
(228,381,o),
(258,356,c),
(280,376,l),
(253,396,o),
(237,426,o),
(237,465,cs),
(237,529,o),
(283,575,o),
(348,575,cs),
(412,575,o),
(462,529,o),
(462,465,cs),
(462,455,o),
(461,446,o),
(459,437,c)
);
}
);
width = 624;
}
);
metricLeft = s;
metricRight = t;
},
{
glyphname = zero;
lastChange = "2025-01-02 14:37:54 +0000";
layers = (
{
layerId = m005;
shapes = (
{
closed = 1;
nodes = (
(383,-11,o),
(470,81,o),
(470,212,cs),
(470,343,o),
(383,435,o),
(260,435,cs),
(137,435,o),
(50,344,o),
(50,213,cs),
(50,82,o),
(137,-11,o),
(260,-11,cs)
);
},
{
closed = 1;
nodes = (
(183,17,o),
(137,86,o),
(137,210,cs),
(137,337,o),
(183,407,o),
(260,407,cs),
(337,407,o),
(383,339,o),
(383,217,cs),
(383,88,o),
(337,17,o),
(260,17,cs)
);
}
);
width = 520;
}
);
unicode = 48;
},
{
glyphname = one;
lastChange = "2025-01-02 14:37:47 +0000";
layers = (
{
background = {
shapes = (
{
closed = 0;
nodes = (
(147,68,ls),
(145,39,o),
(123,32,o),
(82,18,c),
(82,0,l),
(285,0,l),
(285,18,l),
(244,32,o),
(219,39,o),
(219,68,cs)
);
}
);
};
layerId = m005;
shapes = (
{
closed = 1;
nodes = (
(306,0,l),
(306,20,l),
(257,39,o),
(226,25,o),
(224,89,cs),
(219,264,o),
(220,268,o),
(226,443,c),
(209,449,l),
(12,381,l),
(20,346,l),
(185,369,l),
(140,389,l),
(144,236,o),
(146,127,o),
(143,89,cs),
(138,25,o),
(126,39,o),
(64,20,c),
(64,0,l)
);
}
);
width = 336;
}
);
unicode = 49;
},
{
glyphname = two;
lastChange = "2025-01-02 14:37:42 +0000";
layers = (
{
background = {
shapes = (
{
closed = 1;
nodes = (
(136,439,o),
(61,397,o),
(61,338,cs),
(61,314,o),
(83,297,o),
(115,297,cs),
(143,297,o),
(162,310,o),
(162,329,cs),
(162,344,o),
(131,338,o),
(131,360,cs),
(131,390,o),
(170,411,o),
(225,411,c),
(242,439,l)
);
},
{
closed = 1;
nodes = (
(449,0,l),
(465,118,l),
(449,118,l),
(447,103,o),
(432,73,o),
(425,73,c)
);
}
);
};
layerId = m005;
shapes = (
{
closed = 1;
nodes = (
(448,0,l),
(473,134,l),
(450,134,l),
(442,109,o),
(418,74,o),
(402,73,cs),
(102,55,l),
(110,49,l),
(108,127,o),
(441,143,o),
(441,312,cs),
(441,386,o),
(359,439,o),
(242,439,c),
(243,399,l),
(306,399,o),
(355,363,o),
(355,311,cs),
(355,193,o),
(53,127,o),
(53,49,c),
(53,0,l)
);
},
{
closed = 1;
nodes = (
(136,439,o),
(61,379,o),
(61,295,cs),
(61,260,o),
(83,236,o),
(115,236,cs),
(143,236,o),
(162,255,o),
(162,282,cs),
(162,303,o),
(131,295,o),
(131,326,cs),
(131,369,o),
(177,399,o),
(243,399,c),
(242,439,l)
);
}
);
width = 520;
}
);
unicode = 50;
},
{
glyphname = three;
lastChange = "2025-01-02 14:37:38 +0000";
layers = (
{
background = {
shapes = (
{
closed = 1;
nodes = (
(54,472,o),
(63,439,o),
(81,421,cs),
(104,399,o),
(173,461,o),
(152,484,cs),
(143,495,o),
(126,499,o),
(113,508,cs),
(102,517,o),
(95,526,o),
(95,549,c),
(54,513,l)
);
}
);
};
layerId = m005;
shapes = (
{
closed = 1;
nodes = (
(358,-199,o),
(448,-130,o),
(448,-32,cs),
(448,62,o),
(373,128,o),
(267,128,c),
(266,123,l),
(362,123,o),
(430,194,o),
(430,294,cs),
(430,379,o),
(355,439,o),
(248,439,c),
(231,399,l),
(295,399,o),
(344,352,o),
(344,286,cs),
(344,203,o),
(272,144,o),
(177,144,c),
(177,105,l),
(283,105,o),
(362,52,o),
(362,-22,cs),
(362,-102,o),
(302,-159,o),
(224,-159,cs),
(163,-159,o),
(119,-129,o),
(119,-86,cs),
(119,-55,o),
(150,-63,o),
(150,-42,cs),
(150,-15,o),
(131,4,o),
(103,4,cs),
(71,4,o),
(49,-20,o),
(49,-55,cs),
(49,-139,o),
(124,-199,o),
(230,-199,cs)
);
},
{
closed = 1;
nodes = (
(142,439,o),
(67,379,o),
(67,295,cs),
(67,260,o),
(89,236,o),
(121,236,cs),
(149,236,o),
(168,255,o),
(168,282,cs),
(168,303,o),
(137,295,o),
(137,326,cs),
(137,369,o),
(170,399,o),
(231,399,c),
(248,439,l)
);
}
);
width = 520;
}
);
unicode = 51;
},
{
glyphname = four;
lastChange = "2025-01-02 14:37:33 +0000";
layers = (
{
guides = (
{
pos = (332,-171);
}
);
layerId = m005;
shapes = (
{
closed = 1;
nodes = (
(375,-171,l),
(375,460,l),
(278,435,l),
(11,0,l),
(488,0,l),
(488,60,l),
(67,60,l),
(78,44,l),
(315,418,l),
(305,420,l),
(299,257,o),
(299,-149,o),
(297,-171,c)
);
}
);
width = 544;
}
);
unicode = 52;
},
{
glyphname = five;
lastChange = "2025-01-02 14:37:26 +0000";
layers = (
{
background = {
shapes = (
{
closed = 1;
nodes = (
(367,-11,o),
(461,81,o),
(461,210,cs),
(461,318,o),
(381,395,o),
(267,395,cs),
(156,395,o),
(78,310,o),
(78,190,c),
(116,208,l),
(116,294,o),
(172,354,o),
(250,354,cs),
(321,354,o),
(371,291,o),
(371,201,cs),
(371,100,o),
(321,29,o),
(250,29,cs),
(172,29,o),
(116,103,o),
(116,208,cs),
(116,373,o),
(227,534,o),
(384,597,c),
(366,642,l),
(168,563,o),
(28,383,o),
(28,208,cs),
(28,80,o),
(113,-11,o),
(234,-11,cs)
);
}
);
};
layerId = m005;
shapes = (
{
closed = 1;
nodes = (
(365,-188,o),
(460,-94,o),
(460,39,cs),
(460,143,o),
(382,217,o),
(272,217,cs),
(200,217,o),
(143,183,o),
(122,144,c),
(133,144,l),
(158,395,l),
(141,376,l),
(407,367,l),
(431,501,l),
(415,501,l),
(411,475,o),
(393,440,o),
(383,440,c),
(117,439,l),
(85,111,l),
(139,113,l),
(155,146,o),
(197,176,o),
(252,176,cs),
(321,176,o),
(374,111,o),
(374,20,cs),
(374,-78,o),
(318,-148,o),
(244,-148,c),
(231,-188,l)
);
},
{
closed = 1;
nodes = (
(244,-148,l),
(183,-148,o),
(140,-118,o),
(140,-75,cs),
(140,-44,o),
(171,-52,o),
(171,-31,cs),
(171,-4,o),
(152,15,o),
(124,15,cs),
(92,15,o),
(70,-9,o),
(70,-44,cs),
(70,-128,o),
(137,-188,o),
(231,-188,c)
);
},
{
closed = 1;
nodes = (
(407,367,l),
(432,501,l),
(409,501,l),
(401,475,o),
(376,441,o),
(361,440,c)
);
}
);
width = 520;
}
);
unicode = 53;
},
{
glyphname = six;
lastChange = "2025-01-02 14:37:23 +0000";
layers = (
{
layerId = m005;
shapes = (
{
closed = 1;
nodes = (
(382,-11,o),
(476,81,o),
(476,210,cs),
(476,318,o),
(396,395,o),
(282,395,cs),
(171,395,o),
(91,310,o),
(91,190,c),
(129,208,l),
(129,294,o),
(187,354,o),
(265,354,cs),
(336,354,o),
(390,291,o),
(390,201,cs),
(390,100,o),
(336,29,o),
(265,29,cs),
(187,29,o),
(127,103,o),
(127,208,cs),
(127,373,o),
(242,534,o),
(399,597,c),
(381,642,l),
(183,563,o),
(43,383,o),
(43,208,cs),
(43,80,o),
(128,-11,o),
(249,-11,cs)
);
}
);
width = 520;
}
);
unicode = 54;
},
{
glyphname = seven;
lastChange = "2025-01-01 11:31:29 +0000";
layers = (
{
layerId = m005;
shapes = (
{
closed = 1;
nodes = (
(213,-177,l),
(257,75,o),
(340,318,o),
(462,411,c),
(446,439,l),
(11,439,l),
(30,273,l),
(57,277,l),
(46,334,o),
(65,369,o),
(97,369,cs),
(377,369,l),
(379,392,l),
(235,214,o),
(149,-22,o),
(124,-177,c)
);
}
);
width = 480;
}
);
unicode = 55;
},
{
glyphname = eight;
lastChange = "2025-01-02 14:37:17 +0000";
layers = (
{
layerId = m005;
shapes = (
{
closed = 1;
nodes = (
(381,-11,o),
(472,66,o),
(472,176,cs),
(472,270,o),
(383,337,o),
(257,337,cs),
(134,337,o),
(47,268,o),
(47,171,cs),
(47,64,o),
(132,-11,o),
(252,-11,cs)
);
},
{
closed = 1;
nodes = (
(190,29,o),
(133,89,o),
(133,174,cs),
(133,247,o),
(187,299,o),
(257,299,cs),
(330,299,o),
(386,246,o),
(386,170,cs),
(386,87,o),
(333,29,o),
(264,29,cs)
);
},
{
closed = 1;
nodes = (
(368,303,o),
(444,375,o),
(444,476,cs),
(444,564,o),
(367,626,o),
(258,626,cs),
(147,626,o),
(69,560,o),
(69,466,cs),
(69,371,o),
(149,303,o),
(261,303,cs)
);
},
{
closed = 1;
nodes = (
(192,340,o),
(149,394,o),
(149,470,cs),
(149,538,o),
(190,586,o),
(248,586,cs),
(316,586,o),
(364,538,o),
(364,470,cs),
(364,394,o),
(318,340,o),
(253,340,cs)
);
}
);
width = 520;
}
);
unicode = 56;
},
{
glyphname = nine;
lastChange = "2025-01-02 14:37:11 +0000";
layers = (
{
background = {
shapes = (
{
closed = 1;
nodes = (
(135,627,o),
(41,535,o),
(41,406,cs),
(41,298,o),
(121,221,o),
(235,221,cs),
(346,221,o),
(424,306,o),
(424,426,c),
(386,408,l),
(386,322,o),
(330,262,o),
(252,262,cs),
(181,262,o),
(131,325,o),
(131,415,cs),
(131,516,o),
(181,587,o),
(252,587,cs),
(330,587,o),
(386,513,o),
(386,408,cs),
(386,243,o),
(275,82,o),
(118,19,c),
(136,-26,l),
(334,53,o),
(474,233,o),
(474,408,cs),
(474,536,o),
(389,627,o),
(268,627,cs)
);
}
);
};
layerId = m005;
shapes = (
{
closed = 1;
nodes = (
(135,439,o),
(41,347,o),
(41,218,cs),
(41,110,o),
(121,33,o),
(235,33,cs),
(346,33,o),
(426,118,o),
(426,238,c),
(388,220,l),
(388,134,o),
(330,74,o),
(252,74,cs),
(181,74,o),
(127,137,o),
(127,227,cs),
(127,328,o),
(181,399,o),
(252,399,cs),
(330,399,o),
(390,325,o),
(390,220,cs),
(390,55,o),
(275,-106,o),
(118,-169,c),
(136,-214,l),
(334,-135,o),
(474,45,o),
(474,220,cs),
(474,348,o),
(389,439,o),
(268,439,cs)
);
}
);
width = 520;
},
{
associatedMasterId = m005;
background = {
shapes = (
{
closed = 1;
nodes = (
(182,627,o),
(88,535,o),
(88,406,cs),
(88,298,o),
(168,221,o),
(282,221,cs),
(393,221,o),
(471,306,o),
(471,426,c),
(433,408,l),
(433,322,o),
(377,262,o),
(299,262,cs),
(228,262,o),
(178,325,o),
(178,415,cs),
(178,516,o),
(228,587,o),
(299,587,cs),
(377,587,o),
(433,513,o),
(433,408,cs),
(433,243,o),
(322,82,o),
(165,19,c),
(183,-26,l),
(381,53,o),
(521,233,o),
(521,408,cs),
(521,536,o),
(436,627,o),
(315,627,cs)
);
}
);
};
layerId = "8880FCC1-7A68-4D74-A1C2-63291C007941";
name = "29. Dez. 24, 15:16";
shapes = (
{
closed = 1;
nodes = (
(384,48,o),
(523,228,o),
(523,397,cs),
(523,530,o),
(432,624,o),
(303,624,cs),
(174,624,o),
(83,530,o),
(83,397,cs),
(83,283,o),
(159,203,o),
(266,203,cs),
(397,203,o),
(489,263,o),
(489,347,c),
(441,351,l),
(441,290,o),
(385,246,o),
(305,246,cs),
(226,246,o),
(170,319,o),
(170,423,cs),
(170,517,o),
(224,584,o),
(301,584,cs),
(379,584,o),
(434,497,o),
(434,373,cs),
(434,211,o),
(326,66,o),
(173,21,c),
(187,-39,l)
);
}
);
width = 600;
}
);
unicode = 57;
},
{
glyphname = zero.tf;
lastChange = "2024-12-29 17:45:57 +0000";
layers = (
{
layerId = m005;
shapes = (
{
closed = 1;
nodes = (
(423,-11,o),
(510,121,o),
(510,308,cs),
(510,495,o),
(423,627,o),
(300,627,cs),
(177,627,o),
(90,496,o),
(90,310,cs),
(90,122,o),
(177,-11,o),
(300,-11,cs)
);
},
{
closed = 1;
nodes = (
(223,29,o),
(180,128,o),
(180,305,cs),
(180,486,o),
(223,587,o),
(300,587,cs),
(377,587,o),
(420,490,o),
(420,315,cs),
(420,131,o),
(377,29,o),
(300,29,cs)
);
}
);
width = 592;
}
);
},
{
glyphname = one.tf;
lastChange = "2025-01-02 14:39:34 +0000";
layers = (
{
background = {
shapes = (
{
closed = 0;
nodes = (
(371,553,l),
(372,635,l),
(357,641,l),
(238,600,l)
);
}
);
};
layerId = m005;
shapes = (
{
closed = 1;
nodes = (
(494,0,l),
(494,20,l),
(445,31,o),
(372,31,o),
(370,103,cs),
(366,278,o),
(366,460,o),
(372,635,c),
(357,641,l),
(160,573,l),
(168,538,l),
(333,561,l),
(287,581,l),
(291,428,o),
(293,132,o),
(290,94,cs),
(285,32,o),
(226,37,o),
(164,20,c),
(164,0,l)
);
}
);
width = 592;
}
);
},
{
glyphname = two.tf;
lastChange = "2025-01-02 14:39:21 +0000";
layers = (
{
background = {
shapes = (
{
closed = 1;
nodes = (
(496,0,l),
(521,134,l),
(498,134,l),
(490,109,o),
(466,74,o),
(450,73,cs),
(150,55,l),
(158,49,l),
(156,127,o),
(489,143,o),
(489,312,cs),
(489,386,o),
(407,439,o),
(290,439,c),
(291,399,l),
(354,399,o),
(399,363,o),
(399,311,cs),
(399,193,o),
(101,127,o),
(101,49,c),
(101,0,l)
);
},
{
closed = 1;
nodes = (
(184,439,o),
(109,379,o),
(109,295,cs),
(109,260,o),
(131,236,o),
(163,236,cs),
(191,236,o),
(210,255,o),
(210,282,cs),
(210,303,o),
(179,295,o),
(179,326,cs),
(179,369,o),
(225,399,o),
(291,399,c),
(290,439,l)
);
}
);
};
layerId = m005;
shapes = (
{
closed = 1;
nodes = (
(494,0,l),
(505,164,l),
(484,164,l),
(468,112,o),
(439,77,o),
(414,75,cs),
(156,55,l),
(164,49,l),
(162,97,o),
(487,279,o),
(487,468,cs),
(487,566,o),
(413,627,o),
(296,627,c),
(279,587,l),
(353,587,o),
(402,543,o),
(402,468,cs),
(402,280,o),
(99,97,o),
(99,49,c),
(99,0,l)
);
},
{
closed = 1;
nodes = (
(190,627,o),
(115,567,o),
(115,483,cs),
(115,448,o),
(137,424,o),
(169,424,cs),
(197,424,o),
(216,443,o),
(216,470,cs),
(216,491,o),
(185,483,o),
(185,514,cs),
(185,557,o),
(224,587,o),
(279,587,c),
(296,627,l)
);
}
);
width = 592;
}
);
},
{
glyphname = three.tf;
lastChange = "2025-01-02 14:39:17 +0000";
layers = (
{
background = {
shapes = (
{
closed = 1;
nodes = (
(414,-11,o),
(504,58,o),
(504,156,cs),
(504,250,o),
(429,316,o),
(323,316,c),
(322,311,l),
(418,311,o),
(486,382,o),
(486,482,cs),
(486,567,o),
(411,627,o),
(304,627,c),
(287,587,l),
(351,587,o),
(396,540,o),
(396,474,cs),
(396,391,o),
(328,332,o),
(233,332,c),
(233,293,l),
(339,293,o),
(414,240,o),
(414,166,cs),
(414,86,o),
(358,29,o),
(280,29,cs),
(219,29,o),
(175,59,o),
(175,102,cs),
(175,133,o),
(206,125,o),
(206,146,cs),
(206,173,o),
(187,192,o),
(159,192,cs),
(127,192,o),
(105,168,o),
(105,133,cs),
(105,49,o),
(180,-11,o),
(286,-11,cs)
);
},
{
closed = 1;
nodes = (
(198,627,o),
(123,567,o),
(123,483,cs),
(123,448,o),
(145,424,o),
(177,424,cs),
(205,424,o),
(224,443,o),
(224,470,cs),
(224,491,o),
(193,483,o),
(193,514,cs),
(193,557,o),
(226,587,o),
(287,587,c),
(304,627,l)
);
}
);
};
layerId = m005;
shapes = (
{
closed = 1;
nodes = (
(414,-11,o),
(504,58,o),
(504,156,cs),
(504,250,o),
(429,316,o),
(323,316,c),
(322,311,l),
(418,311,o),
(486,382,o),
(486,482,cs),
(486,567,o),
(411,627,o),
(304,627,c),
(287,587,l),
(351,587,o),
(401,540,o),
(401,474,cs),
(401,391,o),
(328,332,o),
(233,332,c),
(233,293,l),
(339,293,o),
(419,240,o),
(419,166,cs),
(419,86,o),
(358,29,o),
(280,29,cs),
(219,29,o),
(175,59,o),
(175,102,cs),
(175,133,o),
(206,125,o),
(206,146,cs),
(206,173,o),
(187,192,o),
(159,192,cs),
(127,192,o),
(105,168,o),
(105,133,cs),
(105,49,o),
(180,-11,o),
(286,-11,cs)
);
},
{
closed = 1;
nodes = (
(198,627,o),
(123,567,o),
(123,483,cs),
(123,448,o),
(145,424,o),
(177,424,cs),
(205,424,o),
(224,443,o),
(224,470,cs),
(224,491,o),
(193,483,o),
(193,514,cs),
(193,557,o),
(226,587,o),
(287,587,c),
(304,627,l)
);
}
);
width = 592;
}
);
},
{
glyphname = four.tf;
lastChange = "2025-01-02 14:39:11 +0000";
layers = (
{
background = {
shapes = (
{
closed = 1;
nodes = (
(478,0,l),
(478,24,l),
(432,32,o),
(401,46,o),
(401,73,cs),
(401,631,l),
(304,606,l),
(37,176,l),
(527,171,l),
(503,244,l),
(93,244,l),
(104,215,l),
(341,589,l),
(334,591,l),
(328,428,o),
(328,104,o),
(326,82,cs),
(322,30,o),
(270,33,o),
(238,25,c),
(238,0,l)
);
},
{
closed = 1;
nodes = (
(527,171,l),
(543,289,l),
(527,289,l),
(525,274,o),
(510,244,o),
(503,244,c)
);
}
);
};
layerId = m005;
shapes = (
{
closed = 1;
nodes = (
(406,0,l),
(406,631,l),
(309,606,l),
(42,171,l),
(519,171,l),
(519,231,l),
(98,231,l),
(109,215,l),
(346,589,l),
(338,591,l),
(332,428,o),
(332,22,o),
(330,0,c)
);
}
);
width = 592;
}
);
},
{
glyphname = five.tf;
lastChange = "2025-01-02 14:39:08 +0000";
layers = (
{
background = {
shapes = (
{
closed = 1;
nodes = (
(417,-11,o),
(512,83,o),
(512,216,cs),
(512,320,o),
(434,394,o),
(324,394,cs),
(252,394,o),
(195,360,o),
(174,321,c),
(185,321,l),
(210,572,l),
(193,553,l),
(459,544,l),
(475,662,l),
(459,662,l),
(455,636,o),
(445,617,o),
(435,617,c),
(169,616,l),
(137,288,l),
(191,290,l),
(207,323,o),
(249,353,o),
(304,353,cs),
(373,353,o),
(422,288,o),
(422,197,cs),
(422,99,o),
(370,29,o),
(296,29,c),
(283,-11,l)
);
},
{
closed = 1;
nodes = (
(296,29,l),
(235,29,o),
(192,59,o),
(192,102,cs),
(192,133,o),
(223,125,o),
(223,146,cs),
(223,173,o),
(204,192,o),
(176,192,cs),
(144,192,o),
(122,168,o),
(122,133,cs),
(122,49,o),
(189,-11,o),
(283,-11,c)
);
}
);
};
layerId = m005;
shapes = (
{
closed = 1;
nodes = (
(417,-11,o),
(512,83,o),
(512,216,cs),
(512,320,o),
(434,394,o),
(324,394,cs),
(252,394,o),
(195,360,o),
(174,321,c),
(185,321,l),
(210,572,l),
(193,553,l),
(459,544,l),
(483,678,l),
(467,678,l),
(463,652,o),
(445,617,o),
(435,617,c),
(169,616,l),
(137,288,l),
(191,290,l),
(207,323,o),
(249,353,o),
(304,353,cs),
(373,353,o),
(427,288,o),
(427,197,cs),
(427,99,o),
(370,29,o),
(296,29,c),
(283,-11,l)
);
},
{
closed = 1;
nodes = (
(296,29,l),
(235,29,o),
(192,59,o),
(192,102,cs),
(192,133,o),
(223,125,o),
(223,146,cs),
(223,173,o),
(204,192,o),
(176,192,cs),
(144,192,o),
(122,168,o),
(122,133,cs),
(122,49,o),
(189,-11,o),
(283,-11,c)
);
},
{
closed = 1;
nodes = (
(459,544,l),
(484,678,l),
(461,678,l),
(453,652,o),
(428,618,o),
(413,617,c)
);
}
);
width = 592;
}
);
},
{
glyphname = six.tf;
lastChange = "2025-01-02 14:39:04 +0000";
layers = (
{
background = {
shapes = (
{
closed = 1;
nodes = (
(419,-11,o),
(513,81,o),
(513,210,cs),
(513,318,o),
(433,395,o),
(319,395,cs),
(208,395,o),
(130,310,o),
(130,190,c),
(168,208,l),
(168,294,o),
(224,354,o),
(302,354,cs),
(373,354,o),
(423,291,o),
(423,201,cs),
(423,100,o),
(373,29,o),
(302,29,cs),
(224,29,o),
(168,103,o),
(168,208,cs),
(168,373,o),
(279,534,o),
(436,597,c),
(418,642,l),
(220,563,o),
(80,383,o),
(80,208,cs),
(80,80,o),
(165,-11,o),
(286,-11,cs)
);
}
);
};
layerId = m005;
shapes = (
{
closed = 1;
nodes = (
(419,-11,o),
(513,81,o),
(513,210,cs),
(513,318,o),
(433,395,o),
(319,395,cs),
(208,395,o),
(130,310,o),
(130,190,c),
(168,208,l),
(168,294,o),
(224,354,o),
(302,354,cs),
(373,354,o),
(428,291,o),
(428,201,cs),
(428,100,o),
(373,29,o),
(302,29,cs),
(224,29,o),
(163,103,o),
(163,208,cs),
(163,373,o),
(279,534,o),
(436,597,c),
(418,642,l),
(220,563,o),
(80,383,o),
(80,208,cs),
(80,80,o),
(165,-11,o),
(286,-11,cs)
);
}
);
width = 592;
}
);
},
{
glyphname = seven.tf;
lastChange = "2024-12-30 21:31:06 +0000";
layers = (
{
background = {
shapes = (
{
closed = 1;
nodes = (
(293,0,l),
(337,252,o),
(420,495,o),
(542,588,c),
(526,616,l),
(91,616,l),
(121,452,l),
(158,462,l),
(149,511,o),
(157,546,o),
(190,546,cs),
(457,546,l),
(459,569,l),
(315,391,o),
(229,155,o),
(204,0,c)
);
}
);
};
layerId = m005;
shapes = (
{
closed = 1;
nodes = (
(293,-1,l),
(337,251,o),
(420,494,o),
(542,587,c),
(526,615,l),
(91,615,l),
(110,449,l),
(137,453,l),
(126,510,o),
(145,545,o),
(177,545,cs),
(457,545,l),
(459,568,l),
(315,390,o),
(229,154,o),
(204,-1,c)
);
}
);
width = 592;
}
);
},
{
glyphname = eight.tf;
lastChange = "2025-01-02 14:38:57 +0000";
layers = (
{
background = {
shapes = (
{
closed = 1;
nodes = (
(424,-11,o),
(515,66,o),
(515,176,cs),
(515,270,o),
(426,337,o),
(300,337,cs),
(177,337,o),
(90,268,o),
(90,171,cs),
(90,64,o),
(175,-11,o),
(295,-11,cs)
);
},
{
closed = 1;
nodes = (
(233,29,o),
(180,89,o),
(180,174,cs),
(180,247,o),
(230,299,o),
(300,299,cs),
(373,299,o),
(425,246,o),
(425,170,cs),
(425,87,o),
(376,29,o),
(307,29,cs)
);
},
{
closed = 1;
nodes = (
(411,303,o),
(487,375,o),
(487,476,cs),
(487,564,o),
(410,626,o),
(301,626,cs),
(190,626,o),
(112,560,o),
(112,466,cs),
(112,371,o),
(192,303,o),
(304,303,cs)
);
},
{
closed = 1;
nodes = (
(235,340,o),
(192,394,o),
(192,470,cs),
(192,538,o),
(233,586,o),
(291,586,cs),
(359,586,o),
(407,538,o),
(407,470,cs),
(407,394,o),
(361,340,o),
(296,340,cs)
);
}
);
};
layerId = m005;
shapes = (
{
closed = 1;
nodes = (
(424,-11,o),
(515,66,o),
(515,176,cs),
(515,270,o),
(426,337,o),
(300,337,cs),
(177,337,o),
(90,268,o),
(90,171,cs),
(90,64,o),
(175,-11,o),
(295,-11,cs)
);
},
{
closed = 1;
nodes = (
(233,29,o),
(175,89,o),
(175,174,cs),
(175,247,o),
(230,299,o),
(300,299,cs),
(373,299,o),
(430,246,o),
(430,170,cs),
(430,87,o),
(376,29,o),
(307,29,cs)
);
},
{
closed = 1;
nodes = (
(411,303,o),
(487,375,o),
(487,476,cs),
(487,564,o),
(410,626,o),
(301,626,cs),
(190,626,o),
(112,560,o),
(112,466,cs),
(112,371,o),
(192,303,o),
(304,303,cs)
);
},
{
closed = 1;
nodes = (
(235,340,o),
(192,394,o),
(192,470,cs),
(192,538,o),
(233,586,o),
(291,586,cs),
(359,586,o),
(407,538,o),
(407,470,cs),
(407,394,o),
(361,340,o),
(296,340,cs)
);
}
);
width = 592;
}
);
},
{
glyphname = nine.tf;
lastChange = "2025-01-02 14:38:51 +0000";
layers = (
{
background = {
shapes = (
{
closed = 1;
nodes = (
(182,627,o),
(88,535,o),
(88,406,cs),
(88,298,o),
(168,221,o),
(282,221,cs),
(393,221,o),
(471,306,o),
(471,426,c),
(433,408,l),
(433,322,o),
(377,262,o),
(299,262,cs),
(228,262,o),
(178,325,o),
(178,415,cs),
(178,516,o),
(228,587,o),
(299,587,cs),
(377,587,o),
(433,513,o),
(433,408,cs),
(433,243,o),
(322,82,o),
(165,19,c),
(183,-26,l),
(381,53,o),
(521,233,o),
(521,408,cs),
(521,536,o),
(436,627,o),
(315,627,cs)
);
},
{
closed = 1;
nodes = (
(182,627,o),
(88,535,o),
(88,406,cs),
(88,298,o),
(168,221,o),
(282,221,cs),
(393,221,o),
(471,306,o),
(471,426,c),
(433,408,l),
(433,322,o),
(377,262,o),
(299,262,cs),
(228,262,o),
(178,325,o),
(178,415,cs),
(178,516,o),
(228,587,o),
(299,587,cs),
(377,587,o),
(433,513,o),
(433,408,cs),
(433,243,o),
(322,82,o),
(165,19,c),
(183,-26,l),
(381,53,o),
(521,233,o),
(521,408,cs),
(521,536,o),
(436,627,o),
(315,627,cs)
);
}
);
};
layerId = m005;
shapes = (
{
closed = 1;
nodes = (
(182,627,o),
(88,535,o),
(88,406,cs),
(88,298,o),
(168,221,o),
(282,221,cs),
(393,221,o),
(471,306,o),
(471,426,c),
(433,408,l),
(433,322,o),
(377,262,o),
(299,262,cs),
(228,262,o),
(173,325,o),
(173,415,cs),
(173,516,o),
(228,587,o),
(299,587,cs),
(377,587,o),
(438,513,o),
(438,408,cs),
(438,243,o),
(322,82,o),
(165,19,c),
(183,-26,l),
(381,53,o),
(521,233,o),
(521,408,cs),
(521,536,o),
(436,627,o),
(315,627,cs)
);
}
);
width = 592;
},
{
associatedMasterId = m005;
background = {
shapes = (
{
closed = 1;
nodes = (
(182,627,o),
(88,535,o),
(88,406,cs),
(88,298,o),
(168,221,o),
(282,221,cs),
(393,221,o),
(471,306,o),
(471,426,c),
(433,408,l),
(433,322,o),
(377,262,o),
(299,262,cs),
(228,262,o),
(178,325,o),
(178,415,cs),
(178,516,o),
(228,587,o),
(299,587,cs),
(377,587,o),
(433,513,o),
(433,408,cs),
(433,243,o),
(322,82,o),
(165,19,c),
(183,-26,l),
(381,53,o),
(521,233,o),
(521,408,cs),
(521,536,o),
(436,627,o),
(315,627,cs)
);
}
);
};
layerId = "8880FCC1-7A68-4D74-A1C2-63291C007941";
name = "29. Dez. 24, 15:16";
shapes = (
{
closed = 1;
nodes = (
(384,48,o),
(523,228,o),
(523,397,cs),
(523,530,o),
(432,624,o),
(303,624,cs),
(174,624,o),
(83,530,o),
(83,397,cs),
(83,283,o),
(159,203,o),
(266,203,cs),
(397,203,o),
(489,263,o),
(489,347,c),
(441,351,l),
(441,290,o),
(385,246,o),
(305,246,cs),
(226,246,o),
(170,319,o),
(170,423,cs),
(170,517,o),
(224,584,o),
(301,584,cs),
(379,584,o),
(434,497,o),
(434,373,cs),
(434,211,o),
(326,66,o),
(173,21,c),
(187,-39,l)
);
}
);
width = 600;
}
);
},
{
glyphname = period;
lastChange = "2025-01-02 14:28:22 +0000";
layers = (
{
layerId = m005;
shapes = (
{
closed = 1;
nodes = (
(144,-6,o),
(170,20,o),
(170,51,cs),
(170,82,o),
(144,108,o),
(113,108,cs),
(82,108,o),
(56,82,o),
(56,51,cs),
(56,20,o),
(82,-6,o),
(113,-6,cs)
);
}
);
width = 226;
}
);
unicode = 46;
},
{
glyphname = comma;
lastChange = "2025-01-02 14:28:22 +0000";
layers = (
{
layerId = m005;
shapes = (
{
closed = 1;
nodes = (
(67,-165,l),
(142,-135,o),
(194,-63,o),
(194,8,cs),
(194,54,o),
(160,91,o),
(110,91,cs),
(74,91,o),
(48,67,o),
(48,38,cs),
(48,16,o),
(62,-5,o),
(82,-5,cs),
(100,-5,o),
(103,2,o),
(118,2,cs),
(132,2,o),
(140,-14,o),
(140,-37,cs),
(140,-86,o),
(105,-125,o),
(57,-138,c)
);
}
);
width = 250;
}
);
unicode = 44;
},
{
glyphname = colon;
lastChange = "2025-01-02 14:28:22 +0000";
layers = (
{
layerId = m005;
shapes = (
{
closed = 1;
nodes = (
(161,213,o),
(187,234,o),
(187,259,cs),
(187,284,o),
(161,305,o),
(130,305,cs),
(99,305,o),
(75,284,o),
(75,259,cs),
(75,234,o),
(99,213,o),
(130,213,cs)
);
},
{
closed = 1;
nodes = (
(145,-5,o),
(168,16,o),
(168,41,cs),
(168,66,o),
(145,87,o),
(113,87,cs),
(82,87,o),
(56,66,o),
(56,41,cs),
(56,16,o),
(82,-5,o),
(113,-5,cs)
);
}
);
width = 243;
}
);
unicode = 58;
},
{
glyphname = semicolon;
lastChange = "2025-01-02 14:28:22 +0000";
layers = (
{
layerId = m005;
shapes = (
{
closed = 1;
nodes = (
(74,-176,l),
(140,-146,o),
(187,-68,o),
(187,12,cs),
(187,59,o),
(157,92,o),
(115,92,cs),
(81,92,o),
(56,73,o),
(56,44,cs),
(56,17,o),
(69,-3,o),
(88,-3,cs),
(105,-3,o),
(108,5,o),
(123,5,cs),
(136,5,o),
(144,-12,o),
(144,-37,cs),
(144,-88,o),
(111,-134,o),
(65,-147,c)
);
},
{
closed = 1;
nodes = (
(171,213,o),
(193,233,o),
(193,258,cs),
(193,281,o),
(171,300,o),
(140,300,cs),
(111,300,o),
(86,281,o),
(86,258,cs),
(86,233,o),
(111,213,o),
(140,213,cs)
);
}
);
width = 249;
}
);
unicode = 59;
},
{
glyphname = exclam;
lastChange = "2024-12-29 22:24:33 +0000";
layers = (
{
layerId = m005;
shapes = (
{
closed = 1;
nodes = (
(149,-6,o),
(163,12,o),
(167,34,cs),
(171,56,o),
(153,74,o),
(127,74,cs),
(105,74,o),
(87,56,o),
(87,34,cs),
(87,12,o),
(105,-6,o),
(127,-6,cs)
);
},
{
closed = 1;
nodes = (
(153,190,l),
(147,325,o),
(150,501,o),
(176,636,c),
(72,618,l),
(104,487,o),
(97,307,o),
(97,176,c)
);
}
);
width = 248;
}
);
unicode = 33;
},
{
glyphname = exclamdown;
lastChange = "2024-12-29 20:13:04 +0000";
layers = (
{
layerId = m005;
shapes = (
{
closed = 1;
nodes = (
(99,459,o),
(85,441,o),
(81,419,cs),
(77,397,o),
(95,379,o),
(121,379,cs),
(143,379,o),
(161,397,o),
(161,419,cs),
(161,441,o),
(143,459,o),
(121,459,cs)
);
},
{
closed = 1;
nodes = (
(95,263,l),
(101,128,o),
(98,-48,o),
(72,-183,c),
(176,-165,l),
(144,-34,o),
(151,146,o),
(151,277,c)
);
}
);
width = 248;
}
);
unicode = 161;
},
{
glyphname = question;
lastChange = "2024-12-30 19:03:15 +0000";
layers = (
{
layerId = m005;
shapes = (
{
closed = 1;
nodes = (
(149,170,o),
(182,184,o),
(221,203,c),
(219,216,l),
(187,217,ls),
(162,218,o),
(144,236,o),
(144,260,cs),
(144,347,o),
(282,346,o),
(284,466,c),
(284,527,o),
(241,571,o),
(180,571,cs),
(151,571,o),
(111,554,o),
(72,530,cs),
(40,508,o),
(18,471,o),
(18,440,cs),
(18,409,o),
(90,423,o),
(90,454,cs),
(90,470,o),
(83,466,o),
(83,481,cs),
(83,508,o),
(106,527,o),
(134,527,cs),
(184,527,o),
(213,500,o),
(212,460,cs),
(207,317,o),
(72,317,o),
(72,233,cs),
(72,196,o),
(104,170,o),
(140,170,cs)
);
},
{
closed = 1;
nodes = (
(171,-6,o),
(189,12,o),
(189,34,cs),
(189,56,o),
(171,74,o),
(149,74,cs),
(127,74,o),
(109,56,o),
(109,34,cs),
(109,12,o),
(127,-6,o),
(149,-6,cs)
);
}
);
width = 320;
}
);
unicode = 63;
},
{
glyphname = questiondown;
lastChange = "2024-12-29 20:13:08 +0000";
layers = (
{
layerId = m005;
shapes = (
{
closed = 1;
nodes = (
(153,284,o),
(120,270,o),
(81,251,c),
(83,238,l),
(115,237,ls),
(140,236,o),
(158,218,o),
(158,194,cs),
(158,107,o),
(20,108,o),
(18,-12,c),
(18,-73,o),
(61,-117,o),
(122,-117,cs),
(151,-117,o),
(191,-100,o),
(230,-76,cs),
(262,-54,o),
(284,-17,o),
(284,14,cs),
(284,45,o),
(212,31,o),
(212,0,cs),
(212,-16,o),
(219,-12,o),
(219,-27,cs),
(219,-54,o),
(196,-73,o),
(168,-73,cs),
(118,-73,o),
(89,-46,o),
(90,-6,cs),
(95,137,o),
(230,137,o),
(230,221,cs),
(230,258,o),
(198,284,o),
(162,284,cs)
);
},
{
closed = 1;
nodes = (
(131,460,o),
(113,442,o),
(113,420,cs),
(113,398,o),
(131,380,o),
(153,380,cs),
(175,380,o),
(193,398,o),
(193,420,cs),
(193,442,o),
(175,460,o),
(153,460,cs)
);
}
);
width = 320;
}
);
unicode = 191;
},
{
color = 3;
glyphname = periodcentered;
lastChange = "2024-12-30 21:48:26 +0000";
layers = (
{
layerId = m005;
shapes = (
{
closed = 1;
nodes = (
(179,202,o),
(205,228,o),
(205,259,cs),
(205,290,o),
(179,316,o),
(148,316,cs),
(117,316,o),
(91,290,o),
(91,259,cs),
(91,228,o),
(117,202,o),
(148,202,cs)
);
}
);
width = 296;
}
);
unicode = 183;
},
{
color = 3;
glyphname = bullet;
lastChange = "2024-12-30 21:48:42 +0000";
layers = (
{
layerId = m005;
shapes = (
{
closed = 1;
nodes = (
(378,117,o),
(443,182,o),
(443,259,cs),
(443,337,o),
(378,402,o),
(300,402,cs),
(223,402,o),
(158,337,o),
(158,259,cs),
(158,182,o),
(223,117,o),
(300,117,cs)
);
}
);
width = 600;
}
);
unicode = 8226;
},
{
glyphname = asterisk;
lastChange = "2025-01-01 11:05:25 +0000";
layers = (
{
layerId = m005;
shapes = (
{
closed = 1;
nodes = (
(167,533,l),
(167,540,o),
(187,582,o),
(187,597,cs),
(187,613,o),
(177,624,o),
(162,624,cs),
(147,624,o),
(136,614,o),
(136,598,cs),
(136,586,o),
(161,541,o),
(161,533,cs)
);
},
{
closed = 1;
nodes = (
(189,522,l),
(194,527,o),
(237,542,o),
(248,554,c),
(259,565,o),
(260,580,o),
(249,591,cs),
(239,601,o),
(223,601,o),
(213,590,cs),
(204,582,o),
(189,532,o),
(184,527,cs)
);
},
{
closed = 1;
nodes = (
(195,498,l),
(202,498,o),
(243,478,o),
(259,478,cs),
(275,478,o),
(286,489,o),
(286,504,cs),
(286,518,o),
(275,529,o),
(260,529,cs),
(247,529,o),
(203,505,o),
(195,505,cs)
);
},
{
closed = 1;
nodes = (
(184,478,l),
(189,473,o),
(204,430,o),
(215,418,cs),
(227,407,o),
(242,406,o),
(253,417,cs),
(263,428,o),
(263,443,o),
(252,454,cs),
(243,463,o),
(194,477,o),
(189,483,cs)
);
},
{
closed = 1;
nodes = (
(161,472,l),
(161,464,o),
(141,423,o),
(141,407,cs),
(141,391,o),
(152,380,o),
(167,380,cs),
(182,380,o),
(192,390,o),
(192,406,cs),
(192,418,o),
(168,463,o),
(168,472,cs)
);
},
{
closed = 1;
nodes = (
(140,482,l),
(135,477,o),
(92,462,o),
(81,451,c),
(69,439,o),
(69,424,o),
(79,413,cs),
(90,403,o),
(105,403,o),
(116,414,cs),
(125,423,o),
(139,472,o),
(145,477,cs)
);
},
{
closed = 1;
nodes = (
(134,506,l),
(127,506,o),
(85,526,o),
(70,526,cs),
(53,526,o),
(42,515,o),
(42,500,cs),
(42,486,o),
(53,475,o),
(69,475,cs),
(81,475,o),
(126,500,o),
(134,500,cs)
);
},
{
closed = 1;
nodes = (
(145,526,l),
(139,532,o),
(125,574,o),
(113,586,cs),
(102,597,o),
(86,598,o),
(76,587,cs),
(65,577,o),
(65,561,o),
(77,550,cs),
(85,542,o),
(134,527,o),
(140,522,cs)
);
}
);
width = 328;
}
);
unicode = 42;
},
{
color = 4;
glyphname = numbersign;
lastChange = "2025-01-02 14:41:32 +0000";
layers = (
{
associatedMasterId = m005;
background = {
shapes = (
{
closed = 1;
nodes = (
(367,5,l),
(417,218,l),
(395,200,l),
(520,200,l),
(553,260,l),
(410,260,l),
(424,242,l),
(474,458,l),
(452,440,l),
(560,440,l),
(593,500,l),
(466,500,l),
(480,482,l),
(540,734,l),
(470,700,l),
(418,482,l),
(440,500,l),
(222,500,l),
(236,482,l),
(296,734,l),
(226,700,l),
(174,482,l),
(196,500,l),
(78,500,l),
(51,440,l),
(182,440,l),
(168,458,l),
(117,242,l),
(139,260,l),
(38,260,l),
(11,200,l),
(125,200,l),
(111,218,l),
(59,-2,l),
(123,5,l),
(173,218,l),
(151,200,l),
(369,200,l),
(355,218,l),
(303,-2,l)
);
},
{
closed = 1;
nodes = (
(230,458,l),
(208,440,l),
(426,440,l),
(412,458,l),
(361,242,l),
(383,260,l),
(166,260,l),
(180,242,l)
);
}
);
};
layerId = m01;
name = Regular;
shapes = (
{
closed = 1;
nodes = (
(149,5,l),
(197,200,l),
(366,200,l),
(318,-2,l),
(389,5,l),
(433,200,l),
(537,200,l),
(566,267,l),
(449,267,l),
(489,442,l),
(583,442,l),
(610,512,l),
(502,512,l),
(552,726,l),
(472,701,l),
(433,512,l),
(270,512,l),
(322,726,l),
(243,701,l),
(199,512,l),
(85,512,l),
(62,442,l),
(184,442,l),
(140,267,l),
(51,267,l),
(28,200,l),
(126,200,l),
(76,-2,l)
);
},
{
closed = 1;
nodes = (
(253,438,l),
(420,438,l),
(380,269,l),
(211,269,l)
);
}
);
width = 600;
},
{
associatedMasterId = m005;
hints = (
{
horizontal = 1;
place = (-2,21);
target = up;
type = BottomGhost;
},
{
horizontal = 1;
place = (200,69);
type = Stem;
},
{
horizontal = 1;
place = (438,74);
type = Stem;
},
{
place = (11,589);
type = Stem;
},
{
horizontal = 1;
place = (200,67);
type = Stem;
},
{
horizontal = 1;
place = (442,70);
type = Stem;
}
);
layerId = "E0989092-07D5-4BE4-A82B-4E03160A36DB";
name = Black;
shapes = (
{
closed = 1;
nodes = (
(142,5,l),
(187,180,l),
(356,180,l),
(311,-2,l),
(382,5,l),
(423,180,l),
(530,180,l),
(563,292,l),
(447,292,l),
(477,417,l),
(571,417,l),
(610,532,l),
(500,532,l),
(545,734,l),
(465,701,l),
(424,532,l),
(261,532,l),
(315,734,l),
(236,701,l),
(197,532,l),
(85,532,l),
(50,417,l),
(172,417,l),
(138,292,l),
(48,292,l),
(21,180,l),
(116,180,l),
(69,-2,l)
);
},
{
closed = 1;
nodes = (
(241,413,l),
(408,413,l),
(378,294,l),
(209,294,l)
);
}
);
width = 610;
},
{
associatedMasterId = m005;
hints = (
{
horizontal = 1;
place = (90,21);
target = up;
type = BottomGhost;
},
{
horizontal = 1;
place = (233,140);
type = Stem;
},
{
horizontal = 1;
place = (402,144);
type = Stem;
},
{
place = (99,510);
type = Stem;
},
{
horizontal = 1;
place = (233,139);
type = Stem;
},
{
horizontal = 1;
place = (405,141);
type = Stem;
}
);
layerId = m003;
name = BlackCondensed;
shapes = (
{
closed = 1;
nodes = (
(192,5,l),
(224,180,l),
(344,180,l),
(312,-2,l),
(363,5,l),
(392,180,l),
(468,180,l),
(491,292,l),
(409,292,l),
(430,417,l),
(497,417,l),
(525,532,l),
(446,532,l),
(478,734,l),
(422,701,l),
(393,532,l),
(277,532,l),
(315,734,l),
(259,701,l),
(231,532,l),
(152,532,l),
(127,417,l),
(214,417,l),
(189,292,l),
(126,292,l),
(106,180,l),
(174,180,l),
(140,-2,l)
);
},
{
closed = 1;
nodes = (
(263,413,l),
(381,413,l),
(360,294,l),
(240,294,l)
);
}
);
width = 610;
},
{
background = {
shapes = (
{
closed = 1;
nodes = (
(357,5,l),
(407,218,l),
(385,200,l),
(510,200,l),
(543,260,l),
(400,260,l),
(414,242,l),
(464,458,l),
(442,440,l),
(550,440,l),
(583,500,l),
(456,500,l),
(470,482,l),
(530,734,l),
(460,700,l),
(408,482,l),
(430,500,l),
(212,500,l),
(226,482,l),
(286,734,l),
(216,700,l),
(164,482,l),
(186,500,l),
(68,500,l),
(41,440,l),
(172,440,l),
(158,458,l),
(107,242,l),
(129,260,l),
(28,260,l),
(1,200,l),
(115,200,l),
(101,218,l),
(49,-2,l),
(113,5,l),
(163,218,l),
(141,200,l),
(359,200,l),
(345,218,l),
(293,-2,l)
);
},
{
closed = 1;
nodes = (
(220,458,l),
(198,440,l),
(416,440,l),
(402,458,l),
(351,242,l),
(373,260,l),
(156,260,l),
(170,242,l)
);
}
);
};
layerId = m005;
shapes = (
{
closed = 1;
nodes = (
(153,8,l),
(188,158,l),
(351,158,l),
(312,-10,l),
(374,8,l),
(406,158,l),
(509,158,l),
(527,204,l),
(416,204,l),
(459,397,l),
(559,397,l),
(576,445,l),
(469,445,l),
(512,626,l),
(449,619,l),
(413,445,l),
(263,445,l),
(308,626,l),
(238,619,l),
(198,445,l),
(93,445,l),
(80,397,l),
(186,397,l),
(139,204,l),
(53,204,l),
(40,158,l),
(130,158,l),
(89,-10,l)
);
},
{
closed = 1;
nodes = (
(242,393,l),
(403,393,l),
(360,205,l),
(197,205,l)
);
}
);
width = 600;
}
);
unicode = 35;
},
{
glyphname = slash;
lastChange = "2025-01-01 11:30:58 +0000";
layers = (
{
layerId = m005;
shapes = (
{
closed = 1;
nodes = (
(72,-162,l),
(356,694,l),
(303,694,l),
(19,-162,l)
);
}
);
width = 376;
}
);
unicode = 47;
},
{
color = 4;
glyphname = backslash;
lastChange = "2024-12-30 21:50:09 +0000";
layers = (
{
associatedMasterId = m005;
layerId = m01;
name = Regular;
shapes = (
{
closed = 1;
nodes = (
(356,-85,l),
(77,888,l),
(31,872,l),
(298,-102,l)
);
}
);
width = 400;
},
{
associatedMasterId = m005;
hints = (
{
horizontal = 1;
place = (-163,901);
type = Stem;
},
{
place = (144,322);
type = Stem;
}
);
layerId = "E0989092-07D5-4BE4-A82B-4E03160A36DB";
name = Black;
shapes = (
{
closed = 1;
nodes = (
(378,-85,l),
(104,893,l),
(-12,861,l),
(266,-113,l)
);
}
);
width = 400;
},
{
associatedMasterId = m005;
hints = (
{
horizontal = 1;
place = (-63,693);
type = Stem;
},
{
place = (155,282);
type = Stem;
}
);
layerId = m003;
name = BlackCondensed;
shapes = (
{
closed = 1;
nodes = (
(321,-85,l),
(127,893,l),
(45,861,l),
(242,-113,l)
);
}
);
width = 400;
},
{
layerId = m005;
shapes = (
{
closed = 1;
nodes = (
(345,-85,l),
(79,887,l),
(31,872,l),
(298,-102,l)
);
}
);
width = 400;
}
);
unicode = 92;
},
{
glyphname = asterisk.alt;
lastChange = "2024-12-30 20:19:00 +0000";
layers = (
{
layerId = m005;
shapes = (
{
closed = 1;
nodes = (
(395,323,l),
(395,341,o),
(444,445,o),
(444,483,cs),
(444,524,o),
(418,552,o),
(381,552,cs),
(344,552,o),
(317,525,o),
(317,486,cs),
(317,455,o),
(378,343,o),
(378,323,cs)
);
},
{
closed = 1;
nodes = (
(391,354,o),
(385,356,o),
(381,356,c),
(381,378,o),
(343,460,o),
(343,482,cs),
(343,517,o),
(364,528,o),
(379,528,cs),
(397,528,o),
(419,517,o),
(419,483,cs),
(419,450,o),
(391,378,o),
(391,356,cs)
);
},
{
closed = 1;
nodes = (
(448,296,l),
(461,309,o),
(568,347,o),
(596,375,c),
(624,403,o),
(626,442,o),
(600,469,cs),
(574,494,o),
(535,493,o),
(508,466,cs),
(486,445,o),
(450,322,o),
(436,308,cs)
);
},
{
closed = 1;
nodes = (
(467,321,o),
(464,327,o),
(462,329,c),
(477,344,o),
(508,430,o),
(524,446,cs),
(548,470,o),
(570,462,o),
(580,452,cs),
(594,439,o),
(602,416,o),
(578,392,cs),
(554,369,o),
(484,338,o),
(469,322,cs)
);
},
{
closed = 1;
nodes = (
(463,236,l),
(481,236,o),
(585,187,o),
(623,187,cs),
(664,187,o),
(692,213,o),
(692,251,cs),
(692,287,o),
(665,314,o),
(626,314,cs),
(595,314,o),
(483,253,o),
(463,253,cs)
);
},
{
closed = 1;
nodes = (
(494,240,o),
(496,246,o),
(496,250,c),
(519,250,o),
(600,288,o),
(623,288,cs),
(657,288,o),
(668,267,o),
(668,252,cs),
(668,234,o),
(657,212,o),
(623,212,cs),
(590,212,o),
(519,240,o),
(496,240,cs)
);
},
{
closed = 1;
nodes = (
(436,186,l),
(449,173,o),
(487,65,o),
(515,37,cs),
(543,9,o),
(582,7,o),
(609,33,cs),
(634,60,o),
(634,98,o),
(606,125,cs),
(585,148,o),
(462,183,o),
(448,198,cs)
);
},
{
closed = 1;
nodes = (
(461,167,o),
(467,169,o),
(469,171,c),
(485,156,o),
(570,125,o),
(586,110,cs),
(610,85,o),
(602,63,o),
(592,53,cs),
(579,40,o),
(556,32,o),
(532,56,cs),
(509,79,o),
(478,149,o),
(462,165,cs)
);
},
{
closed = 1;
nodes = (
(380,170,l),
(380,151,o),
(330,48,o),
(330,9,cs),
(330,-32,o),
(357,-60,o),
(393,-60,cs),
(431,-60,o),
(457,-33,o),
(457,7,cs),
(457,37,o),
(396,149,o),
(396,170,cs)
);
},
{
closed = 1;
nodes = (
(383,138,o),
(390,136,o),
(393,136,c),
(393,114,o),
(431,33,o),
(431,10,cs),
(431,-24,o),
(410,-35,o),
(396,-35,cs),
(377,-35,o),
(356,-25,o),
(356,9,cs),
(356,42,o),
(383,114,o),
(383,136,cs)
);
},
{
closed = 1;
nodes = (
(327,196,l),
(314,183,o),
(206,146,o),
(178,118,c),
(150,89,o),
(148,50,o),
(174,24,cs),
(201,-2,o),
(239,-1,o),
(266,26,cs),
(289,48,o),
(324,171,o),
(339,184,cs)
);
},
{
closed = 1;
nodes = (
(308,171,o),
(310,166,o),
(312,163,c),
(297,148,o),
(266,63,o),
(251,47,cs),
(226,22,o),
(204,31,o),
(194,40,cs),
(181,54,o),
(173,76,o),
(197,100,cs),
(220,124,o),
(290,155,o),
(306,170,cs)
);
},
{
closed = 1;
nodes = (
(312,256,l),
(293,256,o),
(190,306,o),
(151,306,cs),
(110,306,o),
(82,279,o),
(82,242,cs),
(82,205,o),
(109,179,o),
(149,179,cs),
(179,179,o),
(291,240,o),
(312,240,cs)
);
},
{
closed = 1;
nodes = (
(280,252,o),
(278,246,o),
(278,243,c),
(256,243,o),
(174,205,o),
(151,205,cs),
(117,205,o),
(107,226,o),
(107,240,cs),
(107,259,o),
(117,280,o),
(151,280,cs),
(184,280,o),
(256,252,o),
(278,252,cs)
);
},
{
closed = 1;
nodes = (
(338,307,l),
(325,320,o),
(288,427,o),
(260,455,cs),
(231,483,o),
(192,485,o),
(166,459,cs),
(140,433,o),
(140,394,o),
(168,367,cs),
(190,345,o),
(312,309,o),
(326,295,cs)
);
},
{
closed = 1;
nodes = (
(313,326,o),
(308,323,o),
(305,321,c),
(289,336,o),
(205,367,o),
(189,383,cs),
(164,407,o),
(173,429,o),
(182,439,cs),
(196,453,o),
(218,461,o),
(242,437,cs),
(266,413,o),
(297,343,o),
(312,328,cs)
);
}
);
width = 768;
}
);
},
{
glyphname = hyphen;
lastChange = "2025-01-01 20:11:17 +0000";
layers = (
{
layerId = m005;
shapes = (
{
closed = 1;
nodes = (
(303,190,l),
(306,253,l),
(257,253,l),
(93,239,l),
(52,231,l),
(55,186,l)
);
}
);
width = 360;
}
);
unicode = 45;
},
{
glyphname = endash;
lastChange = "2024-12-30 17:26:49 +0000";
layers = (
{
layerId = m005;
shapes = (
{
closed = 1;
nodes = (
(533,190,l),
(539,253,l),
(457,253,l),
(133,239,l),
(53,231,l),
(59,186,l)
);
}
);
width = 592;
}
);
unicode = 8211;
},
{
glyphname = emdash;
lastChange = "2024-12-30 17:26:13 +0000";
layers = (
{
layerId = m005;
shapes = (
{
closed = 1;
nodes = (
(740,190,l),
(747,253,l),
(665,253,l),
(137,239,l),
(54,231,l),
(60,186,l)
);
}
);
width = 800;
}
);
unicode = 8212;
},
{
glyphname = underscore;
lastChange = "2024-12-29 20:56:03 +0000";
layers = (
{
layerId = m005;
shapes = (
{
closed = 1;
nodes = (
(0,-90,l),
(600,-90,l),
(600,-50,l),
(0,-50,l)
);
}
);
width = 600;
}
);
unicode = 95;
},
{
glyphname = parenleft;
lastChange = "2024-12-30 18:49:26 +0000";
layers = (
{
layerId = m005;
shapes = (
{
closed = 1;
nodes = (
(186,437,o),
(240,607,o),
(304,692,c),
(279,720,l),
(186,634,o),
(118,452,o),
(118,281,cs),
(118,110,o),
(186,-72,o),
(279,-158,c),
(304,-130,l),
(240,-45,o),
(186,125,o),
(186,281,cs)
);
}
);
width = 376;
}
);
unicode = 40;
},
{
glyphname = parenright;
lastChange = "2024-12-30 18:49:33 +0000";
layers = (
{
layerId = m005;
shapes = (
{
closed = 1;
nodes = (
(190,125,o),
(136,-45,o),
(72,-130,c),
(97,-158,l),
(190,-72,o),
(258,110,o),
(258,281,cs),
(258,452,o),
(190,634,o),
(97,720,c),
(72,692,l),
(136,607,o),
(190,437,o),
(190,281,cs)
);
}
);
width = 376;
}
);
unicode = 41;
},
{
color = 4;
glyphname = braceleft;
lastChange = "2025-01-02 14:40:07 +0000";
layers = (
{
associatedMasterId = m005;
layerId = m01;
name = Regular;
shapes = (
{
closed = 1;
nodes = (
(304,-92,l),
(248,-92,o),
(208,-61,o),
(208,-16,cs),
(208,173,ls),
(208,212,o),
(185,256,o),
(152,279,c),
(185,302,o),
(208,346,o),
(208,385,cs),
(208,574,ls),
(208,619,o),
(248,650,o),
(304,650,c),
(304,702,l),
(211,702,o),
(145,649,o),
(145,574,cs),
(145,385,ls),
(145,333,o),
(101,297,o),
(39,297,c),
(39,261,l),
(101,261,o),
(145,225,o),
(145,173,cs),
(145,-16,ls),
(145,-91,o),
(211,-144,o),
(304,-144,c)
);
}
);
width = 343;
},
{
associatedMasterId = m005;
hints = (
{
horizontal = 1;
place = (-146,61);
type = Stem;
},
{
horizontal = 1;
place = (249,60);
type = Stem;
},
{
horizontal = 1;
place = (643,61);
type = Stem;
},
{
place = (250,150);
type = Stem;
}
);
layerId = "E0989092-07D5-4BE4-A82B-4E03160A36DB";
name = Black;
shapes = (
{
closed = 1;
nodes = (
(426,-95,l),
(340,-95,o),
(280,-56,o),
(280,-16,cs),
(280,173,ls),
(280,207,o),
(250,251,o),
(209,279,c),
(250,307,o),
(280,351,o),
(280,385,cs),
(280,574,ls),
(280,614,o),
(340,653,o),
(426,653,c),
(426,704,l),
(253,704,o),
(130,681,o),
(130,604,cs),
(130,385,ls),
(130,341,o),
(86,309,o),
(24,309,c),
(24,249,l),
(86,249,o),
(130,217,o),
(130,173,cs),
(130,-46,ls),
(130,-123,o),
(253,-146,o),
(426,-146,c)
);
}
);
width = 380;
},
{
associatedMasterId = m005;
hints = (
{
horizontal = 1;
place = (-38,109);
type = Stem;
},
{
horizontal = 1;
place = (242,108);
type = Stem;
},
{
horizontal = 1;
place = (522,109);
type = Stem;
},
{
place = (243,172);
type = Stem;
}
);
layerId = m003;
name = BlackCondensed;
shapes = (
{
closed = 1;
nodes = (
(368,-95,l),
(307,-95,o),
(264,-56,o),
(264,-16,cs),
(264,173,ls),
(264,207,o),
(243,251,o),
(214,279,c),
(243,307,o),
(264,351,o),
(264,385,cs),
(264,574,ls),
(264,614,o),
(307,653,o),
(368,653,c),
(368,704,l),
(245,704,o),
(168,681,o),
(168,604,cs),
(168,385,ls),
(168,341,o),
(126,309,o),
(82,309,c),
(82,249,l),
(126,249,o),
(168,217,o),
(168,173,cs),
(168,-46,ls),
(168,-123,o),
(245,-146,o),
(368,-146,c)
);
}
);
width = 380;
},
{
layerId = m005;
shapes = (
{
closed = 1;
nodes = (
(304,-108,l),
(248,-108,o),
(177,-70,o),
(184,-16,cs),
(208,157,ls),
(214,201,o),
(197,252,o),
(148,279,c),
(197,306,o),
(214,357,o),
(208,401,cs),
(184,574,ls),
(177,628,o),
(248,666,o),
(304,666,c),
(304,702,l),
(213,702,o),
(116,649,o),
(125,574,cs),
(149,385,ls),
(156,329,o),
(121,289,o),
(47,289,c),
(47,269,l),
(121,269,o),
(156,229,o),
(149,173,cs),
(125,-16,ls),
(116,-91,o),
(213,-144,o),
(304,-144,c)
);
}
);
width = 344;
}
);
unicode = 123;
},
{
color = 4;
glyphname = braceright;
lastChange = "2025-01-02 14:40:18 +0000";
layers = (
{
associatedMasterId = m005;
layerId = m01;
name = Regular;
shapes = (
{
closed = 1;
nodes = (
(132,-144,o),
(198,-91,o),
(198,-16,cs),
(198,173,ls),
(198,225,o),
(242,261,o),
(304,261,c),
(304,297,l),
(242,297,o),
(198,333,o),
(198,385,cs),
(198,574,ls),
(198,649,o),
(132,702,o),
(39,702,c),
(39,650,l),
(95,650,o),
(135,619,o),
(135,574,cs),
(135,385,ls),
(135,346,o),
(158,302,o),
(191,279,c),
(158,256,o),
(135,212,o),
(135,173,cs),
(135,-16,ls),
(135,-61,o),
(95,-92,o),
(39,-92,c),
(39,-144,l)
);
}
);
width = 343;
},
{
associatedMasterId = m005;
hints = (
{
horizontal = 1;
place = (-146,61);
type = Stem;
},
{
horizontal = 1;
place = (249,60);
type = Stem;
},
{
horizontal = 1;
place = (643,61);
type = Stem;
},
{
place = (283,150);
type = Stem;
}
);
layerId = "E0989092-07D5-4BE4-A82B-4E03160A36DB";
name = Black;
shapes = (
{
closed = 1;
nodes = (
(137,-146,o),
(260,-123,o),
(260,-46,cs),
(260,173,ls),
(260,217,o),
(304,249,o),
(366,249,c),
(366,309,l),
(304,309,o),
(260,341,o),
(260,385,cs),
(260,604,ls),
(260,681,o),
(137,704,o),
(-36,704,c),
(-36,653,l),
(50,653,o),
(110,614,o),
(110,574,cs),
(110,385,ls),
(110,351,o),
(140,307,o),
(181,279,c),
(140,251,o),
(110,207,o),
(110,173,cs),
(110,-16,ls),
(110,-56,o),
(50,-95,o),
(-36,-95,c),
(-36,-146,l)
);
}
);
width = 380;
},
{
associatedMasterId = m005;
hints = (
{
horizontal = 1;
place = (-56,91);
type = Stem;
},
{
horizontal = 1;
place = (225,90);
type = Stem;
},
{
horizontal = 1;
place = (504,91);
type = Stem;
},
{
place = (249,154);
type = Stem;
}
);
layerId = m003;
name = BlackCondensed;
shapes = (
{
closed = 1;
nodes = (
(145,-146,o),
(222,-123,o),
(222,-46,cs),
(222,173,ls),
(222,217,o),
(264,249,o),
(308,249,c),
(308,309,l),
(264,309,o),
(222,341,o),
(222,385,cs),
(222,604,ls),
(222,681,o),
(145,704,o),
(22,704,c),
(22,653,l),
(83,653,o),
(126,614,o),
(126,574,cs),
(126,385,ls),
(126,351,o),
(147,307,o),
(176,279,c),
(147,251,o),
(126,207,o),
(126,173,cs),
(126,-16,ls),
(126,-56,o),
(83,-95,o),
(22,-95,c),
(22,-146,l)
);
}
);
width = 380;
},
{
layerId = m005;
shapes = (
{
closed = 1;
nodes = (
(115,-144,o),
(212,-91,o),
(203,-16,cs),
(179,173,ls),
(172,229,o),
(207,269,o),
(281,269,c),
(281,289,l),
(207,289,o),
(172,329,o),
(179,385,cs),
(203,574,ls),
(212,649,o),
(115,702,o),
(24,702,c),
(24,666,l),
(80,666,o),
(151,628,o),
(144,574,cs),
(120,401,ls),
(114,357,o),
(131,306,o),
(180,279,c),
(131,252,o),
(114,201,o),
(120,157,cs),
(144,-16,ls),
(151,-70,o),
(80,-108,o),
(24,-108,c),
(24,-144,l)
);
}
);
width = 344;
}
);
unicode = 125;
},
{
glyphname = bracketleft;
lastChange = "2024-12-30 17:28:45 +0000";
layers = (
{
layerId = m005;
shapes = (
{
closed = 1;
nodes = (
(313,656,l),
(313,692,l),
(110,692,l),
(125,416,o),
(125,140,o),
(110,-136,c),
(313,-136,l),
(313,-100,l),
(182,-100,l),
(182,656,l)
);
}
);
width = 376;
}
);
unicode = 91;
},
{
glyphname = bracketright;
lastChange = "2024-12-30 17:28:35 +0000";
layers = (
{
layerId = m005;
shapes = (
{
closed = 1;
nodes = (
(194,-100,l),
(63,-100,l),
(63,-136,l),
(266,-136,l),
(251,140,o),
(251,416,o),
(266,692,c),
(63,692,l),
(63,656,l),
(194,656,l)
);
}
);
width = 376;
}
);
unicode = 93;
},
{
glyphname = quotesinglbase;
lastChange = "2024-12-29 21:05:35 +0000";
layers = (
{
layerId = m005;
shapes = (
{
closed = 1;
nodes = (
(72,-165,l),
(147,-135,o),
(199,-63,o),
(199,8,cs),
(199,54,o),
(165,91,o),
(115,91,cs),
(79,91,o),
(53,67,o),
(53,38,cs),
(53,16,o),
(67,-5,o),
(87,-5,cs),
(105,-5,o),
(108,2,o),
(123,2,cs),
(137,2,o),
(145,-14,o),
(145,-37,cs),
(145,-86,o),
(110,-125,o),
(62,-138,c)
);
}
);
width = 256;
}
);
unicode = 8218;
},
{
glyphname = quotedblbase;
lastChange = "2024-12-30 17:30:14 +0000";
layers = (
{
layerId = m005;
shapes = (
{
closed = 1;
nodes = (
(67,-165,l),
(142,-135,o),
(194,-63,o),
(194,8,cs),
(194,54,o),
(160,91,o),
(110,91,cs),
(74,91,o),
(48,67,o),
(48,38,cs),
(48,16,o),
(62,-5,o),
(82,-5,cs),
(100,-5,o),
(103,2,o),
(118,2,cs),
(132,2,o),
(140,-14,o),
(140,-37,cs),
(140,-86,o),
(105,-125,o),
(57,-138,c)
);
},
{
closed = 1;
nodes = (
(251,-165,l),
(326,-135,o),
(378,-63,o),
(378,8,cs),
(378,54,o),
(344,91,o),
(294,91,cs),
(258,91,o),
(232,67,o),
(232,38,cs),
(232,16,o),
(246,-5,o),
(266,-5,cs),
(284,-5,o),
(287,2,o),
(302,2,cs),
(316,2,o),
(324,-14,o),
(324,-37,cs),
(324,-86,o),
(289,-125,o),
(241,-138,c)
);
}
);
width = 432;
}
);
unicode = 8222;
},
{
glyphname = quotedblleft;
lastChange = "2024-12-30 17:30:17 +0000";
layers = (
{
layerId = m005;
shapes = (
{
closed = 1;
nodes = (
(359,651,l),
(284,621,o),
(232,549,o),
(232,478,cs),
(232,432,o),
(266,395,o),
(316,395,cs),
(352,395,o),
(378,419,o),
(378,448,cs),
(378,470,o),
(364,491,o),
(344,491,cs),
(326,491,o),
(323,484,o),
(308,484,cs),
(294,484,o),
(286,500,o),
(286,523,cs),
(286,572,o),
(321,611,o),
(369,624,c)
);
},
{
closed = 1;
nodes = (
(175,651,l),
(100,621,o),
(48,549,o),
(48,478,cs),
(48,432,o),
(82,395,o),
(132,395,cs),
(168,395,o),
(194,419,o),
(194,448,cs),
(194,470,o),
(180,491,o),
(160,491,cs),
(142,491,o),
(139,484,o),
(124,484,cs),
(110,484,o),
(102,500,o),
(102,523,cs),
(102,572,o),
(137,611,o),
(185,624,c)
);
}
);
width = 432;
}
);
unicode = 8220;
},
{
glyphname = quotedblright;
lastChange = "2024-12-30 17:30:20 +0000";
layers = (
{
layerId = m005;
shapes = (
{
closed = 1;
nodes = (
(67,369,l),
(142,399,o),
(194,471,o),
(194,542,cs),
(194,588,o),
(160,625,o),
(110,625,cs),
(74,625,o),
(48,601,o),
(48,572,cs),
(48,550,o),
(62,529,o),
(82,529,cs),
(100,529,o),
(103,536,o),
(118,536,cs),
(132,536,o),
(140,520,o),
(140,497,cs),
(140,448,o),
(105,409,o),
(57,396,c)
);
},
{
closed = 1;
nodes = (
(251,369,l),
(326,399,o),
(378,471,o),
(378,542,cs),
(378,588,o),
(344,625,o),
(294,625,cs),
(258,625,o),
(232,601,o),
(232,572,cs),
(232,550,o),
(246,529,o),
(266,529,cs),
(284,529,o),
(287,536,o),
(302,536,cs),
(316,536,o),
(324,520,o),
(324,497,cs),
(324,448,o),
(289,409,o),
(241,396,c)
);
}
);
width = 432;
}
);
unicode = 8221;
},
{
glyphname = quoteleft;
lastChange = "2024-12-30 19:01:14 +0000";
layers = (
{
layerId = m005;
shapes = (
{
closed = 1;
nodes = (
(175,651,l),
(100,621,o),
(48,549,o),
(48,478,cs),
(48,432,o),
(82,395,o),
(132,395,cs),
(168,395,o),
(194,419,o),
(194,448,cs),
(194,470,o),
(180,491,o),
(160,491,cs),
(142,491,o),
(139,484,o),
(124,484,cs),
(110,484,o),
(102,500,o),
(102,523,cs),
(102,572,o),
(137,611,o),
(185,624,c)
);
}
);
width = 248;
}
);
unicode = 8216;
},
{
glyphname = quoteright;
lastChange = "2025-01-01 20:34:38 +0000";
layers = (
{
layerId = m005;
shapes = (
{
closed = 1;
nodes = (
(67,369,l),
(142,399,o),
(194,471,o),
(194,542,cs),
(194,588,o),
(160,625,o),
(110,625,cs),
(74,625,o),
(48,601,o),
(48,572,cs),
(48,550,o),
(62,529,o),
(82,529,cs),
(100,529,o),
(103,536,o),
(118,536,cs),
(132,536,o),
(140,520,o),
(140,497,cs),
(140,448,o),
(105,409,o),
(57,396,c)
);
}
);
width = 248;
}
);
unicode = 8217;
},
{
glyphname = guillemetleft;
lastChange = "2024-12-30 17:30:34 +0000";
layers = (
{
layerId = m005;
shapes = (
{
closed = 1;
nodes = (
(250,204,l),
(421,50,l),
(461,80,l),
(351,204,l),
(454,333,l),
(426,354,l)
);
},
{
closed = 1;
nodes = (
(58,204,l),
(229,50,l),
(269,80,l),
(159,204,l),
(262,333,l),
(234,354,l)
);
}
);
width = 520;
}
);
unicode = 171;
},
{
glyphname = guillemetright;
lastChange = "2024-12-30 17:30:38 +0000";
layers = (
{
layerId = m005;
shapes = (
{
closed = 1;
nodes = (
(277,200,l),
(106,354,l),
(66,325,l),
(176,200,l),
(73,71,l),
(101,50,l)
);
},
{
closed = 1;
nodes = (
(469,200,l),
(298,354,l),
(258,325,l),
(368,200,l),
(265,71,l),
(293,50,l)
);
}
);
width = 520;
}
);
unicode = 187;
},
{
glyphname = guilsinglleft;
lastChange = "2024-12-30 17:30:43 +0000";
layers = (
{
layerId = m005;
shapes = (
{
closed = 1;
nodes = (
(58,204,l),
(229,50,l),
(269,80,l),
(159,204,l),
(262,333,l),
(234,354,l)
);
}
);
width = 328;
}
);
unicode = 8249;
},
{
glyphname = guilsinglright;
lastChange = "2024-12-30 17:30:48 +0000";
layers = (
{
layerId = m005;
shapes = (
{
closed = 1;
nodes = (
(277,200,l),
(106,354,l),
(66,325,l),
(176,200,l),
(73,71,l),
(101,50,l)
);
}
);
width = 328;
}
);
unicode = 8250;
},
{
glyphname = quotedbl;
lastChange = "2024-12-30 17:32:39 +0000";
layers = (
{
layerId = m005;
shapes = (
{
closed = 1;
nodes = (
(97,428,l),
(147,606,l),
(156,640,o),
(141,664,o),
(113,664,cs),
(84,664,o),
(66,640,o),
(67,606,c),
(76,428,l)
);
},
{
closed = 1;
nodes = (
(249,428,l),
(299,606,l),
(308,640,o),
(293,664,o),
(265,664,cs),
(236,664,o),
(218,640,o),
(219,606,c),
(228,428,l)
);
}
);
width = 352;
}
);
unicode = 34;
},
{
glyphname = quotesingle;
lastChange = "2025-01-01 20:09:03 +0000";
layers = (
{
layerId = m005;
shapes = (
{
closed = 1;
nodes = (
(101,428,l),
(151,606,l),
(160,640,o),
(145,664,o),
(117,664,cs),
(88,664,o),
(70,640,o),
(71,606,c),
(80,428,l)
);
}
);
width = 200;
}
);
unicode = 39;
},
{
color = 3;
glyphname = baht;
lastChange = "2024-12-30 22:27:32 +0000";
layers = (
{
anchors = (
{
name = top;
pos = (296,700);
}
);
associatedMasterId = m005;
layerId = m01;
name = Regular;
shapes = (
{
closed = 1;
nodes = (
(288,0,ls),
(451,0,o),
(566,89,o),
(566,215,cs),
(566,288,o),
(508,345,o),
(417,369,c),
(484,402,o),
(526,462,o),
(526,537,cs),
(526,632,o),
(440,700,o),
(318,700,cs),
(-2,700,l),
(-2,680,l),
(89,650,l),
(89,50,l),
(-2,20,l),
(-2,0,l)
);
},
{
closed = 1;
nodes = (
(184,341,l),
(288,341,ls),
(386,341,o),
(456,277,o),
(456,187,cs),
(456,107,o),
(399,50,o),
(318,50,cs),
(184,50,l)
);
},
{
closed = 1;
nodes = (
(310,-100,l),
(310,800,l),
(270,800,l),
(270,-100,l)
);
},
{
closed = 1;
nodes = (
(184,650,l),
(288,650,ls),
(363,650,o),
(416,590,o),
(416,505,cs),
(416,432,o),
(375,381,o),
(318,381,cs),
(184,381,l)
);
}
);
width = 600;
},
{
anchors = (
{
name = top;
pos = (299,700);
}
);
associatedMasterId = m005;
hints = (
{
horizontal = 1;
place = (0,53);
type = Stem;
},
{
horizontal = 1;
place = (338,46);
type = Stem;
},
{
horizontal = 1;
place = (647,53);
type = Stem;
},
{
place = (48,182);
type = Stem;
},
{
place = (415,197);
type = Stem;
},
{
place = (375,197);
type = Stem;
},
{
horizontal = 1;
place = (687,13);
type = Stem;
}
);
layerId = "E0989092-07D5-4BE4-A82B-4E03160A36DB";
name = Black;
shapes = (
{
closed = 1;
nodes = (
(282,0,ls),
(478,0,o),
(617,81,o),
(617,195,cs),
(617,268,o),
(549,340,o),
(452,369,c),
(525,399,o),
(577,468,o),
(577,537,cs),
(577,632,o),
(483,700,o),
(349,700,cs),
(-38,700,l),
(-38,687,l),
(53,646,l),
(53,54,l),
(-38,13,l),
(-38,0,l)
);
},
{
closed = 1;
nodes = (
(233,336,l),
(296,336,ls),
(377,336,o),
(435,270,o),
(435,177,cs),
(435,103,o),
(388,50,o),
(322,50,cs),
(233,50,l)
);
},
{
closed = 1;
nodes = (
(340,-100,l),
(340,800,l),
(280,800,l),
(280,-100,l)
);
},
{
closed = 1;
nodes = (
(233,650,l),
(299,650,ls),
(355,650,o),
(395,590,o),
(395,505,cs),
(395,435,o),
(364,386,o),
(321,386,cs),
(233,386,l)
);
}
);
width = 630;
},
{
anchors = (
{
name = top;
pos = (296,700);
}
);
associatedMasterId = m005;
hints = (
{
horizontal = 1;
place = (84,122);
type = Stem;
},
{
horizontal = 1;
place = (324,117);
type = Stem;
},
{
horizontal = 1;
place = (543,122);
type = Stem;
},
{
place = (118,213);
type = Stem;
},
{
place = (379,224);
type = Stem;
},
{
place = (350,224);
type = Stem;
},
{
horizontal = 1;
place = (572,93);
type = Stem;
}
);
layerId = m003;
name = BlackCondensed;
shapes = (
{
closed = 1;
nodes = (
(284,0,ls),
(423,0,o),
(522,81,o),
(522,195,cs),
(522,268,o),
(474,340,o),
(405,369,c),
(457,399,o),
(494,468,o),
(494,537,cs),
(494,632,o),
(427,700,o),
(332,700,cs),
(57,700,l),
(57,687,l),
(122,646,l),
(122,54,l),
(57,13,l),
(57,0,l)
);
},
{
closed = 1;
nodes = (
(249,336,l),
(294,336,ls),
(352,336,o),
(393,270,o),
(393,177,cs),
(393,103,o),
(359,50,o),
(313,50,cs),
(249,50,l)
);
},
{
closed = 1;
nodes = (
(325,-100,l),
(325,800,l),
(283,800,l),
(283,-100,l)
);
},
{
closed = 1;
nodes = (
(249,650,l),
(296,650,ls),
(336,650,o),
(364,590,o),
(364,505,cs),
(364,435,o),
(342,386,o),
(312,386,cs),
(249,386,l)
);
}
);
width = 630;
},
{
anchors = (
{
name = top;
pos = (296,700);
}
);
layerId = m005;
shapes = (
{
closed = 1;
nodes = (
(310,-100,l),
(310,800,l),
(270,800,l),
(270,-100,l)
);
},
{
pos = (8,0);
ref = B;
}
);
width = 600;
}
);
unicode = 3647;
},
{
color = 3;
glyphname = at;
lastChange = "2024-12-30 22:27:32 +0000";
layers = (
{
associatedMasterId = m005;
layerId = "64256756-86B2-4B21-ADC9-3CB4C17202DE";
name = Regular;
shapes = (
{
closed = 1;
nodes = (
(458,471,o),
(401,487,o),
(339,487,cs),
(248,487,o),
(184,406,o),
(184,292,cs),
(184,187,o),
(248,113,o),
(339,113,cs),
(375,113,o),
(427,152,o),
(465,206,c),
(441,226,l),
(410,179,o),
(368,145,o),
(339,145,cs),
(283,145,o),
(244,206,o),
(244,292,cs),
(244,387,o),
(283,455,o),
(339,455,cs),
(385,455,o),
(418,431,o),
(418,397,c),
(418,185,l),
(418,142,o),
(464,112,o),
(529,112,cs),
(609,112,o),
(666,187,o),
(666,292,cs),
(666,506,o),
(531,658,o),
(339,658,cs),
(150,658,o),
(17,506,o),
(17,292,cs),
(17,81,o),
(150,-68,o),
(339,-68,cs),
(416,-68,o),
(519,-22,o),
(588,43,c),
(575,58,l),
(507,-4,o),
(409,-48,o),
(339,-48,cs),
(162,-48,o),
(37,93,o),
(37,292,cs),
(37,495,o),
(162,638,o),
(339,638,cs),
(519,638,o),
(646,495,o),
(646,292,cs),
(646,205,o),
(597,144,o),
(528,144,cs),
(499,144,o),
(478,161,o),
(478,185,c),
(478,448,l)
);
}
);
width = 600;
},
{
associatedMasterId = m005;
layerId = m01;
name = Regular;
shapes = (
{
closed = 1;
nodes = (
(518,-118,o),
(627,-72,o),
(684,-7,c),
(661,19,l),
(608,-41,o),
(509,-83,o),
(422,-83,cs),
(237,-83,o),
(106,38,o),
(106,238,cs),
(106,422,o),
(237,573,o),
(422,573,cs),
(582,573,o),
(695,475,o),
(695,308,cs),
(695,218,o),
(661,95,o),
(570,95,cs),
(537,95,o),
(518,108,o),
(522,130,cs),
(577,393,l),
(563,416,o),
(505,432,o),
(437,432,cs),
(333,432,o),
(225,331,o),
(225,193,cs),
(225,112,o),
(270,58,o),
(357,58,cs),
(389,58,o),
(425,78,o),
(454,109,c),
(461,80,o),
(499,63,o),
(554,63,cs),
(659,63,o),
(735,177,o),
(735,308,cs),
(735,495,o),
(605,608,o),
(422,608,cs),
(213,608,o),
(66,443,o),
(66,238,cs),
(66,18,o),
(213,-118,o),
(422,-118,cs)
);
},
{
closed = 1;
nodes = (
(300,316,o),
(361,396,o),
(417,396,cs),
(459,396,o),
(482,390,o),
(505,374,c),
(456,140,l),
(427,115,o),
(397,100,o),
(375,100,cs),
(322,100,o),
(300,145,o),
(300,211,cs)
);
}
);
width = 801;
},
{
associatedMasterId = m005;
layerId = "404132C0-55CF-4910-B5A3-A578668CC6ED";
name = Regular;
shapes = (
{
closed = 1;
nodes = (
(525,-118,o),
(634,-72,o),
(691,-7,c),
(668,19,l),
(615,-41,o),
(516,-83,o),
(429,-83,cs),
(244,-83,o),
(113,58,o),
(113,258,cs),
(113,442,o),
(244,573,o),
(429,573,cs),
(589,573,o),
(702,455,o),
(702,288,cs),
(702,184,o),
(658,104,o),
(597,96,cs),
(552,90,o),
(524,104,o),
(529,130,cs),
(584,393,l),
(570,416,o),
(512,432,o),
(444,432,cs),
(347,432,o),
(260,344,o),
(234,220,cs),
(214,125,o),
(268,58,o),
(364,58,cs),
(409,58,o),
(462,97,o),
(492,151,c),
(496,173,l),
(460,130,o),
(413,100,o),
(382,100,cs),
(322,100,o),
(291,157,o),
(308,237,cs),
(327,330,o),
(375,396,o),
(424,396,c),
(466,396,o),
(489,390,o),
(512,374,c),
(461,130,ls),
(452,87,o),
(499,59,o),
(574,63,cs),
(672,69,o),
(742,162,o),
(742,288,cs),
(742,475,o),
(612,608,o),
(429,608,cs),
(220,608,o),
(73,463,o),
(73,258,cs),
(73,38,o),
(220,-118,o),
(429,-118,cs)
);
}
);
width = 800;
},
{
associatedMasterId = m005;
layerId = "7CDE027E-669A-44DA-9839-9557A953AA7F";
name = Regular;
shapes = (
{
closed = 1;
nodes = (
(525,-118,o),
(634,-72,o),
(691,-7,c),
(668,19,l),
(615,-41,o),
(516,-83,o),
(429,-83,cs),
(244,-83,o),
(113,58,o),
(113,258,cs),
(113,442,o),
(244,573,o),
(429,573,cs),
(589,573,o),
(702,455,o),
(702,288,cs),
(702,198,o),
(668,95,o),
(577,95,cs),
(544,95,o),
(525,108,o),
(529,130,cs),
(584,393,l),
(570,416,o),
(512,432,o),
(444,432,cs),
(340,432,o),
(232,331,o),
(232,193,cs),
(232,112,o),
(277,58,o),
(364,58,cs),
(399,58,o),
(440,82,o),
(470,119,c),
(460,118,l),
(461,83,o),
(500,63,o),
(561,63,cs),
(666,63,o),
(742,157,o),
(742,288,cs),
(742,475,o),
(612,608,o),
(429,608,cs),
(220,608,o),
(73,463,o),
(73,258,cs),
(73,38,o),
(220,-118,o),
(429,-118,cs)
);
},
{
closed = 1;
nodes = (
(329,100,o),
(307,145,o),
(307,211,cs),
(307,316,o),
(368,396,o),
(424,396,cs),
(471,396,o),
(495,388,o),
(521,367,c),
(516,392,l),
(459,122,l),
(474,150,l),
(442,119,o),
(407,100,o),
(382,100,cs)
);
}
);
width = 800;
},
{
associatedMasterId = m005;
hints = (
{
horizontal = 1;
place = (-121,41);
type = Stem;
},
{
horizontal = 1;
place = (60,40);
type = Stem;
},
{
horizontal = 1;
place = (401,43);
type = Stem;
},
{
horizontal = 1;
place = (570,41);
type = Stem;
},
{
place = (13,93);
type = Stem;
},
{
place = (163,141);
type = Stem;
},
{
place = (675,94);
type = Stem;
},
{
horizontal = 1;
place = (63,49);
type = Stem;
}
);
layerId = "E0989092-07D5-4BE4-A82B-4E03160A36DB";
name = Black;
shapes = (
{
closed = 1;
nodes = (
(501,-121,o),
(617,-67,o),
(686,10,c),
(659,44,l),
(605,-28,o),
(499,-80,o),
(405,-80,cs),
(250,-80,o),
(99,28,o),
(99,238,cs),
(99,432,o),
(250,570,o),
(405,570,cs),
(535,570,o),
(668,485,o),
(668,308,cs),
(668,176,o),
(584,100,o),
(578,100,cs),
(547,100,o),
(516,111,o),
(522,138,cs),
(577,396,l),
(561,419,o),
(483,444,o),
(395,444,cs),
(260,444,o),
(187,354,o),
(162,246,cs),
(140,134,o),
(168,63,o),
(315,63,cs),
(349,63,o),
(380,71,o),
(407,82,c),
(433,70,o),
(474,60,o),
(551,60,cs),
(686,60,o),
(762,179,o),
(762,308,cs),
(762,502,o),
(608,611,o),
(405,611,cs),
(180,611,o),
(6,451,o),
(6,238,cs),
(6,10,o),
(178,-121,o),
(405,-121,cs)
);
},
{
closed = 1;
nodes = (
(318,346,o),
(341,401,o),
(375,401,cs),
(379,401,o),
(414,395,o),
(438,389,c),
(393,167,l),
(379,132,o),
(352,112,o),
(333,112,cs),
(305,112,o),
(287,175,o),
(302,263,cs)
);
}
);
width = 788;
},
{
associatedMasterId = m005;
hints = (
{
horizontal = 1;
place = (25,140);
type = Stem;
},
{
horizontal = 1;
place = (154,140);
type = Stem;
},
{
horizontal = 1;
place = (396,142);
type = Stem;
},
{
horizontal = 1;
place = (516,140);
type = Stem;
},
{
place = (121,177);
type = Stem;
},
{
place = (227,211);
type = Stem;
},
{
place = (591,178);
type = Stem;
},
{
horizontal = 1;
place = (156,146);
type = Stem;
}
);
layerId = m003;
name = BlackCondensed;
shapes = (
{
closed = 1;
nodes = (
(470,-111,o),
(553,-61,o),
(598,10,c),
(579,44,l),
(544,-23,o),
(469,-70,o),
(399,-70,cs),
(248,-70,o),
(142,58,o),
(142,238,cs),
(142,427,o),
(248,560,o),
(399,560,cs),
(520,560,o),
(606,456,o),
(606,308,cs),
(606,186,o),
(571,100,o),
(522,100,cs),
(495,100,o),
(479,116,o),
(482,138,cs),
(521,396,l),
(508,424,o),
(454,444,o),
(392,444,cs),
(314,444,o),
(245,362,o),
(226,246,cs),
(212,139,o),
(257,63,o),
(335,63,cs),
(354,63,o),
(381,71,o),
(400,82,c),
(420,69,o),
(463,60,o),
(503,60,cs),
(602,60,o),
(672,163,o),
(672,308,cs),
(672,480,o),
(559,601,o),
(399,601,cs),
(210,601,o),
(76,451,o),
(76,238,cs),
(76,34,o),
(210,-111,o),
(399,-111,cs)
);
},
{
closed = 1;
nodes = (
(337,344,o),
(358,401,o),
(378,401,cs),
(384,401,o),
(402,396,o),
(422,389,c),
(390,167,l),
(381,135,o),
(363,112,o),
(348,112,cs),
(324,112,o),
(315,175,o),
(326,263,cs)
);
}
);
width = 788;
},
{
associatedMasterId = m005;
layerId = "E1BA075C-8321-4C1E-A607-5D2C087D9921";
name = "23. Dez. 23, 20:17";
shapes = (
{
closed = 1;
nodes = (
(458,471,o),
(401,487,o),
(339,487,cs),
(248,487,o),
(184,406,o),
(184,292,cs),
(184,187,o),
(248,113,o),
(339,113,cs),
(375,113,o),
(427,152,o),
(465,206,c),
(441,226,l),
(410,179,o),
(368,145,o),
(339,145,cs),
(283,145,o),
(244,206,o),
(244,292,cs),
(244,387,o),
(283,455,o),
(339,455,cs),
(385,455,o),
(418,431,o),
(418,397,c),
(418,185,l),
(418,142,o),
(464,112,o),
(529,112,cs),
(609,112,o),
(666,187,o),
(666,292,cs),
(666,506,o),
(531,658,o),
(339,658,cs),
(150,658,o),
(17,506,o),
(17,292,cs),
(17,81,o),
(150,-68,o),
(339,-68,cs),
(416,-68,o),
(519,-22,o),
(588,43,c),
(575,58,l),
(507,-4,o),
(409,-48,o),
(339,-48,cs),
(162,-48,o),
(37,93,o),
(37,292,cs),
(37,495,o),
(162,638,o),
(339,638,cs),
(519,638,o),
(646,495,o),
(646,292,cs),
(646,205,o),
(597,144,o),
(528,144,cs),
(499,144,o),
(478,161,o),
(478,185,c),
(478,448,l)
);
}
);
width = 600;
},
{
layerId = m005;
name = Regular;
shapes = (
{
closed = 1;
nodes = (
(518,-118,o),
(627,-72,o),
(684,-7,c),
(667,14,l),
(615,-46,o),
(514,-88,o),
(422,-88,cs),
(231,-88,o),
(96,47,o),
(96,238,cs),
(96,437,o),
(231,578,o),
(422,578,cs),
(588,578,o),
(705,466,o),
(705,308,cs),
(705,183,o),
(649,95,o),
(570,95,cs),
(532,95,o),
(508,110,o),
(512,130,cs),
(567,393,l),
(553,416,o),
(499,432,o),
(437,432,cs),
(308,432,o),
(217,333,o),
(217,193,cs),
(217,114,o),
(275,58,o),
(357,58,cs),
(386,58,o),
(426,79,o),
(454,109,c),
(461,82,o),
(502,63,o),
(554,63,cs),
(660,63,o),
(735,165,o),
(735,308,cs),
(735,484,o),
(605,608,o),
(422,608,cs),
(213,608,o),
(66,455,o),
(66,238,cs),
(66,29,o),
(213,-118,o),
(422,-118,cs)
);
},
{
closed = 1;
nodes = (
(290,319,o),
(343,396,o),
(417,396,cs),
(447,396,o),
(480,387,o),
(497,374,c),
(448,140,l),
(420,117,o),
(390,100,o),
(375,100,cs),
(325,100,o),
(290,146,o),
(290,211,cs)
);
}
);
width = 800;
},
{
associatedMasterId = m005;
layerId = "10259C87-1F2C-4B21-82A3-D06A025E0AFF";
name = "1. Jan. 24, 18:26";
shapes = (
{
closed = 1;
nodes = (
(525,-118,o),
(634,-72,o),
(691,-7,c),
(668,19,l),
(615,-41,o),
(516,-83,o),
(429,-83,cs),
(244,-83,o),
(113,58,o),
(113,258,cs),
(113,442,o),
(244,573,o),
(429,573,cs),
(589,573,o),
(702,455,o),
(702,288,cs),
(702,184,o),
(658,104,o),
(597,96,cs),
(552,90,o),
(524,104,o),
(529,130,cs),
(584,393,l),
(570,416,o),
(512,432,o),
(444,432,cs),
(347,432,o),
(260,344,o),
(234,220,cs),
(214,125,o),
(268,58,o),
(364,58,cs),
(409,58,o),
(462,97,o),
(492,151,c),
(496,173,l),
(460,130,o),
(413,100,o),
(382,100,cs),
(322,100,o),
(291,157,o),
(308,237,cs),
(327,330,o),
(375,396,o),
(424,396,c),
(466,396,o),
(489,390,o),
(512,374,c),
(461,130,ls),
(452,87,o),
(499,59,o),
(574,63,cs),
(672,69,o),
(742,162,o),
(742,288,cs),
(742,475,o),
(612,608,o),
(429,608,cs),
(220,608,o),
(73,463,o),
(73,258,cs),
(73,38,o),
(220,-118,o),
(429,-118,cs)
);
}
);
width = 800;
},
{
associatedMasterId = m005;
layerId = "8C0016A5-A153-4664-890D-A5505B0C0526";
name = "2. Jan. 24, 00:15";
shapes = (
{
closed = 1;
nodes = (
(525,-118,o),
(634,-72,o),
(691,-7,c),
(668,19,l),
(615,-41,o),
(516,-83,o),
(429,-83,cs),
(244,-83,o),
(113,58,o),
(113,258,cs),
(113,442,o),
(244,573,o),
(429,573,cs),
(589,573,o),
(702,455,o),
(702,288,cs),
(702,198,o),
(668,95,o),
(577,95,cs),
(544,95,o),
(525,108,o),
(529,130,cs),
(584,393,l),
(570,416,o),
(512,432,o),
(444,432,cs),
(340,432,o),
(232,331,o),
(232,193,cs),
(232,112,o),
(277,58,o),
(364,58,cs),
(399,58,o),
(440,82,o),
(470,119,c),
(460,118,l),
(461,83,o),
(500,63,o),
(561,63,cs),
(666,63,o),
(742,157,o),
(742,288,cs),
(742,475,o),
(612,608,o),
(429,608,cs),
(220,608,o),
(73,463,o),
(73,258,cs),
(73,38,o),
(220,-118,o),
(429,-118,cs)
);
},
{
closed = 1;
nodes = (
(329,100,o),
(307,145,o),
(307,211,cs),
(307,316,o),
(368,396,o),
(424,396,cs),
(471,396,o),
(495,388,o),
(521,367,c),
(516,392,l),
(459,122,l),
(474,150,l),
(442,119,o),
(407,100,o),
(382,100,cs)
);
}
);
width = 800;
}
);
unicode = 64;
},
{
glyphname = ampersand;
lastChange = "2025-01-01 20:47:28 +0000";
layers = (
{
backgroundImage = {
imagePath = "../../Desktop/Bildschirmfoto 2024-12-25 um 13.02.46.png";
pos = (856,-1037);
scale = (-1.38,1.38);
};
layerId = m005;
shapes = (
{
closed = 1;
nodes = (
(398,-11,o),
(512,170,o),
(621,322,cs),
(642,352,o),
(682,366,o),
(713,366,c),
(713,389,l),
(513,389,l),
(513,367,l),
(569,358,o),
(577,352,o),
(577,339,cs),
(577,329,o),
(560,301,o),
(533,262,cs),
(491,202,o),
(381,43,o),
(280,43,cs),
(180,43,o),
(109,106,o),
(109,199,cs),
(109,370,o),
(383,364,o),
(383,516,cs),
(383,568,o),
(329,627,o),
(252,627,cs),
(165,627,o),
(120,572,o),
(120,508,cs),
(120,410,o),
(183,308,o),
(264,220,cs),
(388,86,o),
(553,-14,o),
(595,-14,cs),
(642,-14,o),
(694,-5,o),
(721,8,c),
(715,35,l),
(706,32,o),
(688,30,o),
(673,30,cs),
(612,30,o),
(451,131,o),
(328,258,cs),
(243,346,o),
(177,447,o),
(177,535,cs),
(177,565,o),
(189,597,o),
(234,597,cs),
(283,597,o),
(303,545,o),
(303,500,cs),
(303,381,o),
(32,371,o),
(32,153,cs),
(32,51,o),
(114,-11,o),
(231,-11,cs)
);
}
);
width = 728;
},
{
associatedMasterId = m005;
layerId = "EB7A7454-39B5-4248-AC17-BA83906C524F";
name = "25. Dez. 24, 13:03";
shapes = (
{
closed = 1;
nodes = (
(312,-11,o),
(387,29,o),
(426,85,cs),
(472,148,l),
(460,176,l),
(401,101,ls),
(375,67,o),
(325,48,o),
(284,48,cs),
(225,48,o),
(170,114,o),
(170,190,cs),
(170,311,o),
(428,367,o),
(428,491,cs),
(428,570,o),
(375,626,o),
(306,626,cs),
(218,626,o),
(150,567,o),
(150,484,cs),
(150,442,o),
(172,396,o),
(196,373,cs),
(229,343,o),
(382,208,o),
(397,192,cs),
(426,164,o),
(455,111,o),
(477,65,cs),
(498,23,o),
(552,-7,o),
(597,-7,cs),
(640,-7,o),
(701,22,o),
(745,63,c),
(728,85,l),
(700,63,o),
(664,45,o),
(637,45,cs),
(607,45,o),
(570,69,o),
(551,102,cs),
(515,167,o),
(479,224,o),
(433,266,cs),
(363,331,o),
(308,370,o),
(272,404,cs),
(240,432,o),
(217,474,o),
(217,507,cs),
(217,552,o),
(247,583,o),
(289,583,cs),
(332,583,o),
(363,541,o),
(363,482,cs),
(363,373,o),
(87,307,o),
(87,156,c),
(87,57,o),
(148,-11,o),
(250,-11,c)
);
},
{
closed = 1;
nodes = (
(608,327,l),
(622,349,o),
(651,355,o),
(687,355,cs),
(730,355,l),
(730,383,l),
(515,383,l),
(515,355,l),
(521,355,o),
(532,354,o),
(556,354,cs),
(565,354,o),
(572,353,o),
(572,345,cs),
(572,336,o),
(563,321,o),
(550,305,c),
(460,169,l),
(472,141,l)
);
}
);
width = 866;
}
);
unicode = 38;
},
{
color = 3;
glyphname = paragraph;
lastChange = "2024-12-31 14:26:08 +0000";
layers = (
{
layerId = m005;
shapes = (
{
closed = 1;
nodes = (
(270,-232,o),
(306,-213,o),
(334,-187,cs),
(397,-127,o),
(440,15,o),
(438,148,cs),
(436,310,l),
(438,519,ls),
(438,547,o),
(449,569,o),
(465,577,cs),
(472,581,o),
(490,585,o),
(528,590,c),
(528,616,l),
(272,584,l),
(272,566,l),
(314,556,o),
(345,548,o),
(353,533,cs),
(357,525,o),
(360,509,o),
(360,493,cs),
(360,81,ls),
(360,4,o),
(354,-74,o),
(346,-101,c),
(346,-100,l),
(336,-133,o),
(317,-157,o),
(300,-157,cs),
(281,-158,o),
(279,-135,o),
(260,-134,cs),
(227,-134,o),
(204,-163,o),
(204,-203,cs),
(204,-220,o),
(222,-232,o),
(248,-232,cs)
);
},
{
closed = 1;
nodes = (
(396,580,l),
(528,616,l),
(489,620,o),
(436,623,o),
(400,623,cs),
(217,623,o),
(88,533,o),
(88,383,cs),
(88,251,o),
(207,141,o),
(376,141,cs),
(396,140,l)
);
}
);
width = 584;
}
);
unicode = 182;
},
{
color = 3;
glyphname = section;
lastChange = "2025-01-02 14:53:38 +0000";
layers = (
{
associatedMasterId = m005;
layerId = m01;
name = Regular;
shapes = (
{
closed = 1;
nodes = (
(371,-225,o),
(449,-157,o),
(449,-62,cs),
(449,-30,o),
(426,2,o),
(392,34,c),
(451,66,o),
(489,137,o),
(489,227,cs),
(489,377,o),
(170,522,o),
(170,601,cs),
(170,653,o),
(210,690,o),
(267,690,cs),
(305,690,o),
(350,673,o),
(376,650,c),
(390,549,l),
(438,549,l),
(438,678,l),
(392,706,o),
(321,726,o),
(267,726,cs),
(156,726,o),
(78,658,o),
(78,563,cs),
(78,531,o),
(101,499,o),
(135,467,c),
(76,435,o),
(38,364,o),
(38,274,cs),
(38,125,o),
(357,-21,o),
(357,-100,cs),
(357,-152,o),
(317,-189,o),
(260,-189,cs),
(222,-189,o),
(176,-172,o),
(151,-148,c),
(137,-38,l),
(90,-38,l),
(90,-177,l),
(135,-205,o),
(206,-225,o),
(260,-225,cs)
);
},
{
closed = 1;
nodes = (
(120,374,o),
(142,415,o),
(171,436,c),
(269,357,o),
(407,275,o),
(407,179,cs),
(407,127,o),
(385,86,o),
(356,65,c),
(258,144,o),
(120,226,o),
(120,322,cs)
);
}
);
width = 517;
},
{
associatedMasterId = m005;
hints = (
{
horizontal = 1;
place = (-228,42);
type = Stem;
},
{
horizontal = 1;
place = (687,42);
type = Stem;
},
{
place = (46,168);
type = Stem;
},
{
place = (415,168);
type = Stem;
},
{
place = (365,178);
type = Stem;
},
{
place = (86,178);
type = Stem;
}
);
layerId = "E0989092-07D5-4BE4-A82B-4E03160A36DB";
name = Black;
shapes = (
{
closed = 1;
nodes = (
(414,-228,o),
(515,-159,o),
(515,-62,cs),
(515,-29,o),
(488,3,o),
(449,37,c),
(514,71,o),
(555,137,o),
(555,227,cs),
(555,375,o),
(236,507,o),
(236,601,cs),
(236,663,o),
(261,687,o),
(290,687,cs),
(311,687,o),
(350,691,o),
(387,662,c),
(403,546,l),
(504,546,l),
(504,666,l),
(478,694,o),
(367,729,o),
(290,729,cs),
(159,729,o),
(58,660,o),
(58,563,cs),
(58,530,o),
(85,498,o),
(124,464,c),
(59,430,o),
(18,364,o),
(18,274,cs),
(18,127,o),
(337,-6,o),
(337,-100,cs),
(337,-162,o),
(312,-186,o),
(283,-186,cs),
(263,-186,o),
(226,-194,o),
(186,-160,c),
(170,-35,l),
(70,-35,l),
(70,-165,l),
(95,-193,o),
(206,-228,o),
(283,-228,cs)
);
},
{
closed = 1;
nodes = (
(186,357,o),
(192,384,o),
(199,404,c),
(289,337,o),
(387,264,o),
(387,179,cs),
(387,144,o),
(381,117,o),
(374,97,c),
(284,164,o),
(186,237,o),
(186,322,cs)
);
}
);
width = 603;
},
{
associatedMasterId = m005;
layerId = "DC649081-A1EF-4DB9-ADD4-D0F9CBFF5DD6";
name = Regular;
shapes = (
{
closed = 1;
nodes = (
(467,14,o),
(540,102,o),
(540,227,cs),
(540,377,o),
(221,522,o),
(221,601,cs),
(221,653,o),
(261,690,o),
(318,690,cs),
(356,690,o),
(401,673,o),
(427,650,c),
(441,549,l),
(489,549,l),
(489,678,l),
(443,706,o),
(372,726,o),
(318,726,cs),
(207,726,o),
(129,658,o),
(129,563,cs),
(129,442,o),
(458,327,o),
(458,179,cs),
(458,104,o),
(413,51,o),
(364,51,cs),
(301,51,o),
(228,100,o),
(188,170,c),
(173,161,l),
(222,75,o),
(301,14,o),
(364,14,cs)
);
},
{
closed = 1;
nodes = (
(422,-225,o),
(500,-157,o),
(500,-62,cs),
(500,59,o),
(171,174,o),
(171,322,cs),
(171,397,o),
(216,450,o),
(265,450,cs),
(330,450,o),
(403,400,o),
(441,330,c),
(456,340,l),
(407,426,o),
(328,487,o),
(265,487,cs),
(162,487,o),
(89,399,o),
(89,274,cs),
(89,125,o),
(408,-21,o),
(408,-100,cs),
(408,-152,o),
(368,-189,o),
(311,-189,cs),
(273,-189,o),
(227,-172,o),
(202,-148,c),
(188,-38,l),
(141,-38,l),
(141,-177,l),
(186,-205,o),
(257,-225,o),
(311,-225,cs)
);
}
);
width = 639;
},
{
associatedMasterId = m005;
hints = (
{
horizontal = 1;
place = (-79,113);
type = Stem;
},
{
horizontal = 1;
place = (571,113);
type = Stem;
},
{
place = (116,202);
type = Stem;
},
{
place = (378,202);
type = Stem;
},
{
place = (342,209);
type = Stem;
},
{
place = (144,209);
type = Stem;
}
);
layerId = m003;
name = BlackCondensed;
shapes = (
{
closed = 1;
nodes = (
(377,-228,o),
(449,-159,o),
(449,-62,cs),
(449,-29,o),
(430,3,o),
(402,37,c),
(448,71,o),
(517,137,o),
(517,227,cs),
(517,375,o),
(251,507,o),
(251,601,cs),
(251,663,o),
(268,687,o),
(289,687,cs),
(304,687,o),
(352,691,o),
(378,662,c),
(389,546,l),
(461,546,l),
(461,666,l),
(442,694,o),
(364,729,o),
(289,729,cs),
(196,729,o),
(124,660,o),
(124,563,cs),
(124,530,o),
(143,498,o),
(171,464,c),
(125,430,o),
(56,364,o),
(56,274,cs),
(56,127,o),
(322,-6,o),
(322,-100,cs),
(322,-162,o),
(305,-186,o),
(284,-186,cs),
(270,-186,o),
(224,-194,o),
(195,-160,c),
(184,-35,l),
(113,-35,l),
(113,-165,l),
(131,-193,o),
(209,-228,o),
(284,-228,cs)
);
},
{
closed = 1;
nodes = (
(195,357,o),
(219,384,o),
(224,404,c),
(288,337,o),
(378,264,o),
(378,179,cs),
(378,144,o),
(354,117,o),
(349,97,c),
(285,164,o),
(195,237,o),
(195,322,cs)
);
}
);
width = 603;
},
{
layerId = m005;
shapes = (
{
closed = 1;
nodes = (
(379,89,o),
(463,165,o),
(463,273,cs),
(463,424,o),
(162,429,o),
(164,555,cs),
(165,602,o),
(209,636,o),
(270,636,cs),
(334,636,o),
(375,594,o),
(370,535,c),
(401,535,l),
(400,569,o),
(402,615,o),
(405,646,c),
(363,663,o),
(307,675,o),
(270,675,cs),
(173,675,o),
(105,607,o),
(105,510,cs),
(105,351,o),
(394,366,o),
(394,235,cs),
(394,166,o),
(334,122,o),
(250,129,c),
(260,89,l)
);
},
{
closed = 1;
nodes = (
(140,404,o),
(55,327,o),
(55,219,cs),
(55,68,o),
(357,63,o),
(354,-63,cs),
(353,-111,o),
(309,-145,o),
(249,-145,cs),
(184,-145,o),
(143,-103,o),
(149,-44,c),
(118,-44,l),
(119,-103,o),
(118,-149,o),
(115,-155,c),
(157,-172,o),
(212,-184,o),
(249,-184,cs),
(346,-184,o),
(415,-116,o),
(415,-19,cs),
(415,140,o),
(126,125,o),
(126,257,cs),
(126,326,o),
(186,369,o),
(270,362,c),
(259,404,l)
);
}
);
width = 520;
},
{
associatedMasterId = m005;
layerId = "3D2CBD54-4E8F-46D6-B855-3F6BA3543F14";
name = "8. Jan. 24, 18:35";
shapes = (
{
closed = 1;
nodes = (
(467,14,o),
(540,102,o),
(540,227,cs),
(540,377,o),
(221,522,o),
(221,601,cs),
(221,653,o),
(261,690,o),
(318,690,cs),
(356,690,o),
(401,673,o),
(427,650,c),
(441,549,l),
(489,549,l),
(489,678,l),
(443,706,o),
(372,726,o),
(318,726,cs),
(207,726,o),
(129,658,o),
(129,563,cs),
(129,442,o),
(458,327,o),
(458,179,cs),
(458,104,o),
(413,51,o),
(364,51,cs),
(301,51,o),
(228,100,o),
(188,170,c),
(173,161,l),
(222,75,o),
(301,14,o),
(364,14,cs)
);
},
{
closed = 1;
nodes = (
(422,-225,o),
(500,-157,o),
(500,-62,cs),
(500,59,o),
(171,174,o),
(171,322,cs),
(171,397,o),
(216,450,o),
(265,450,cs),
(330,450,o),
(403,400,o),
(441,330,c),
(456,340,l),
(407,426,o),
(328,487,o),
(265,487,cs),
(162,487,o),
(89,399,o),
(89,274,cs),
(89,125,o),
(408,-21,o),
(408,-100,cs),
(408,-152,o),
(368,-189,o),
(311,-189,cs),
(273,-189,o),
(227,-172,o),
(202,-148,c),
(188,-38,l),
(141,-38,l),
(141,-177,l),
(186,-205,o),
(257,-225,o),
(311,-225,cs)
);
}
);
width = 639;
}
);
unicode = 167;
},
{
glyphname = degree;
lastChange = "2024-12-30 18:39:34 +0000";
layers = (
{
layerId = m005;
shapes = (
{
closed = 1;
nodes = (
(280,421,o),
(336,478,o),
(336,558,cs),
(336,638,o),
(280,694,o),
(200,694,cs),
(120,694,o),
(64,638,o),
(64,558,cs),
(64,478,o),
(120,421,o),
(200,421,cs)
);
},
{
closed = 1;
nodes = (
(144,461,o),
(104,501,o),
(104,558,cs),
(104,614,o),
(144,654,o),
(200,654,cs),
(256,654,o),
(296,614,o),
(296,558,cs),
(296,501,o),
(256,461,o),
(200,461,cs)
);
}
);
width = 400;
}
);
unicode = 176;
},
{
color = 0;
export = 0;
glyphname = copyright;
lastChange = "2024-12-30 22:53:09 +0000";
layers = (
{
associatedMasterId = m005;
layerId = m01;
name = Regular;
shapes = (
{
closed = 1;
nodes = (
(642,-84,o),
(814,88,o),
(814,301,cs),
(814,514,o),
(642,686,o),
(429,686,cs),
(216,686,o),
(44,514,o),
(44,301,cs),
(44,88,o),
(216,-84,o),
(429,-84,cs)
);
},
{
closed = 1;
nodes = (
(80,494,o),
(236,650,o),
(429,650,cs),
(622,650,o),
(778,494,o),
(778,301,cs),
(778,108,o),
(622,-48,o),
(429,-48,cs),
(236,-48,o),
(80,108,o),
(80,301,cs)
);
},
{
closed = 1;
nodes = (
(214,159,o),
(308,60,o),
(441,60,cs),
(485,60,o),
(549,78,o),
(596,104,c),
(596,221,l),
(551,221,l),
(551,165,o),
(511,126,o),
(454,126,cs),
(367,126,o),
(305,215,o),
(305,342,cs),
(305,419,o),
(356,473,o),
(427,473,cs),
(500,473,o),
(551,434,o),
(551,378,c),
(596,378,l),
(596,495,l),
(549,521,o),
(485,539,o),
(441,539,cs),
(308,538,o),
(214,438,o),
(214,298,cs)
);
}
);
width = 858;
},
{
associatedMasterId = m005;
hints = (
{
horizontal = 1;
place = (-84,36);
type = Stem;
},
{
horizontal = 1;
place = (60,66);
type = Stem;
},
{
horizontal = 1;
place = (473,66);
type = Stem;
},
{
horizontal = 1;
place = (650,36);
type = Stem;
},
{
place = (0,36);
type = Stem;
},
{
place = (170,91);
type = Stem;
},
{
place = (507,45);
type = Stem;
},
{
place = (734,36);
type = Stem;
}
);
layerId = "E0989092-07D5-4BE4-A82B-4E03160A36DB";
name = Black;
shapes = (
{
closed = 1;
nodes = (
(642,-84,o),
(814,88,o),
(814,301,cs),
(814,514,o),
(642,686,o),
(429,686,cs),
(216,686,o),
(44,514,o),
(44,301,cs),
(44,88,o),
(216,-84,o),
(429,-84,cs)
);
},
{
closed = 1;
nodes = (
(80,494,o),
(236,650,o),
(429,650,cs),
(622,650,o),
(778,494,o),
(778,301,cs),
(778,108,o),
(622,-48,o),
(429,-48,cs),
(236,-48,o),
(80,108,o),
(80,301,cs)
);
},
{
closed = 1;
nodes = (
(214,159,o),
(308,60,o),
(441,60,cs),
(485,60,o),
(549,78,o),
(596,104,c),
(596,221,l),
(551,221,l),
(551,165,o),
(511,126,o),
(454,126,cs),
(367,126,o),
(305,215,o),
(305,342,cs),
(305,419,o),
(356,473,o),
(427,473,cs),
(500,473,o),
(551,434,o),
(551,378,c),
(596,378,l),
(596,495,l),
(549,521,o),
(485,539,o),
(441,539,cs),
(308,538,o),
(214,438,o),
(214,298,cs)
);
}
);
width = 858;
},
{
associatedMasterId = m005;
hints = (
{
horizontal = 1;
place = (65,150);
type = Stem;
},
{
horizontal = 1;
place = (167,171);
type = Stem;
},
{
horizontal = 1;
place = (460,171);
type = Stem;
},
{
horizontal = 1;
place = (586,150);
type = Stem;
},
{
place = (124,150);
type = Stem;
},
{
place = (245,189);
type = Stem;
},
{
place = (484,156);
type = Stem;
},
{
place = (646,150);
type = Stem;
}
);
layerId = m003;
name = BlackCondensed;
shapes = (
{
closed = 1;
nodes = (
(580,-84,o),
(702,88,o),
(702,301,cs),
(702,514,o),
(580,686,o),
(429,686,cs),
(278,686,o),
(156,514,o),
(156,301,cs),
(156,88,o),
(278,-84,o),
(429,-84,cs)
);
},
{
closed = 1;
nodes = (
(181,494,o),
(292,650,o),
(429,650,cs),
(566,650,o),
(677,494,o),
(677,301,cs),
(677,108,o),
(566,-48,o),
(429,-48,cs),
(292,-48,o),
(181,108,o),
(181,301,cs)
);
},
{
closed = 1;
nodes = (
(276,159,o),
(343,60,o),
(438,60,cs),
(469,60,o),
(514,78,o),
(548,104,c),
(548,221,l),
(516,221,l),
(516,165,o),
(487,126,o),
(447,126,cs),
(385,126,o),
(341,215,o),
(341,342,cs),
(341,419,o),
(377,473,o),
(428,473,cs),
(479,473,o),
(516,434,o),
(516,378,c),
(548,378,l),
(548,495,l),
(514,521,o),
(469,539,o),
(438,539,cs),
(343,538,o),
(276,438,o),
(276,298,cs)
);
}
);
width = 858;
},
{
layerId = m005;
shapes = (
{
closed = 1;
nodes = (
(642,-84,o),
(814,88,o),
(814,301,cs),
(814,514,o),
(642,686,o),
(429,686,cs),
(216,686,o),
(44,514,o),
(44,301,cs),
(44,88,o),
(216,-84,o),
(429,-84,cs)
);
},
{
closed = 1;
nodes = (
(80,494,o),
(236,650,o),
(429,650,cs),
(622,650,o),
(778,494,o),
(778,301,cs),
(778,108,o),
(622,-48,o),
(429,-48,cs),
(236,-48,o),
(80,108,o),
(80,301,cs)
);
},
{
closed = 1;
nodes = (
(214,152,o),
(302,60,o),
(441,60,cs),
(481,60,o),
(537,77,o),
(586,104,c),
(586,201,l),
(551,201,l),
(551,137,o),
(514,96,o),
(454,96,cs),
(338,96,o),
(265,191,o),
(265,342,cs),
(265,441,o),
(327,503,o),
(427,503,cs),
(503,503,o),
(551,462,o),
(551,398,c),
(586,398,l),
(586,495,l),
(537,522,o),
(481,539,o),
(441,539,cs),
(302,538,o),
(214,445,o),
(214,298,cs)
);
}
);
width = 858;
}
);
unicode = 169;
},
{
color = 0;
export = 0;
glyphname = registered;
lastChange = "2024-12-30 22:53:09 +0000";
layers = (
{
associatedMasterId = m005;
layerId = m01;
name = Regular;
shapes = (
{
closed = 1;
nodes = (
(397,292,o),
(500,395,o),
(500,522,cs),
(500,649,o),
(397,752,o),
(270,752,cs),
(143,752,o),
(40,649,o),
(40,522,cs),
(40,395,o),
(143,292,o),
(270,292,cs)
);
},
{
closed = 1;
nodes = (
(72,632,o),
(160,720,o),
(270,720,cs),
(380,720,o),
(468,632,o),
(468,522,cs),
(468,412,o),
(380,324,o),
(270,324,cs),
(160,324,o),
(72,412,o),
(72,522,cs)
);
},
{
closed = 1;
nodes = (
(271,416,l),
(271,433,l),
(235,443,l),
(235,511,l),
(266,511,l),
(327,416,l),
(406,416,l),
(406,433,l),
(389,438,ls),
(376,442,o),
(363,449,o),
(359,455,cs),
(313,518,l),
(342,527,o),
(363,554,o),
(363,582,cs),
(363,614,o),
(327,637,o),
(275,637,cs),
(151,637,l),
(151,620,l),
(182,611,l),
(182,443,l),
(151,433,l),
(151,416,l)
);
},
{
closed = 1;
nodes = (
(235,611,l),
(264,611,ls),
(294,611,o),
(305,601,o),
(305,572,cs),
(305,544,o),
(288,533,o),
(265,533,cs),
(235,533,l)
);
}
);
width = 600;
},
{
associatedMasterId = m005;
hints = (
{
horizontal = 1;
place = (292,32);
type = Stem;
},
{
horizontal = 1;
place = (416,17);
type = Stem;
},
{
horizontal = 1;
place = (511,22);
type = Stem;
},
{
horizontal = 1;
place = (611,26);
type = Stem;
},
{
horizontal = 1;
place = (720,32);
type = Stem;
},
{
place = (70,32);
type = Stem;
},
{
place = (212,53);
type = Stem;
},
{
place = (335,58);
type = Stem;
},
{
place = (498,32);
type = Stem;
}
);
layerId = "E0989092-07D5-4BE4-A82B-4E03160A36DB";
name = Black;
shapes = (
{
closed = 1;
nodes = (
(417,292,o),
(520,395,o),
(520,522,cs),
(520,649,o),
(417,752,o),
(290,752,cs),
(163,752,o),
(60,649,o),
(60,522,cs),
(60,395,o),
(163,292,o),
(290,292,cs)
);
},
{
closed = 1;
nodes = (
(92,632,o),
(180,720,o),
(290,720,cs),
(400,720,o),
(488,632,o),
(488,522,cs),
(488,412,o),
(400,324,o),
(290,324,cs),
(180,324,o),
(92,412,o),
(92,522,cs)
);
},
{
closed = 1;
nodes = (
(291,416,l),
(291,433,l),
(255,443,l),
(255,511,l),
(286,511,l),
(347,416,l),
(426,416,l),
(426,433,l),
(409,438,ls),
(396,442,o),
(383,449,o),
(379,455,cs),
(333,518,l),
(362,527,o),
(383,554,o),
(383,582,cs),
(383,614,o),
(347,637,o),
(295,637,cs),
(171,637,l),
(171,620,l),
(202,611,l),
(202,443,l),
(171,433,l),
(171,416,l)
);
},
{
closed = 1;
nodes = (
(255,611,l),
(284,611,ls),
(314,611,o),
(325,601,o),
(325,572,cs),
(325,544,o),
(308,533,o),
(285,533,cs),
(255,533,l)
);
}
);
width = 600;
},
{
associatedMasterId = m005;
hints = (
{
horizontal = 1;
place = (291,107);
type = Stem;
},
{
horizontal = 1;
place = (379,96);
type = Stem;
},
{
horizontal = 1;
place = (447,100);
type = Stem;
},
{
horizontal = 1;
place = (518,103);
type = Stem;
},
{
horizontal = 1;
place = (595,107);
type = Stem;
},
{
place = (134,107);
type = Stem;
},
{
place = (235,122);
type = Stem;
},
{
place = (322,125);
type = Stem;
},
{
place = (438,107);
type = Stem;
}
);
layerId = m003;
name = BlackCondensed;
shapes = (
{
closed = 1;
nodes = (
(380,292,o),
(453,395,o),
(453,522,cs),
(453,649,o),
(380,752,o),
(290,752,cs),
(200,752,o),
(127,649,o),
(127,522,cs),
(127,395,o),
(200,292,o),
(290,292,cs)
);
},
{
closed = 1;
nodes = (
(149,632,o),
(212,720,o),
(290,720,cs),
(368,720,o),
(431,632,o),
(431,522,cs),
(431,412,o),
(368,324,o),
(290,324,cs),
(212,324,o),
(149,412,o),
(149,522,cs)
);
},
{
closed = 1;
nodes = (
(291,416,l),
(291,433,l),
(265,443,l),
(265,511,l),
(287,511,l),
(330,416,l),
(387,416,l),
(387,433,l),
(374,438,ls),
(365,442,o),
(356,449,o),
(353,455,cs),
(321,518,l),
(341,527,o),
(356,554,o),
(356,582,cs),
(356,614,o),
(330,637,o),
(294,637,cs),
(206,637,l),
(206,620,l),
(228,611,l),
(228,443,l),
(206,433,l),
(206,416,l)
);
},
{
closed = 1;
nodes = (
(265,611,l),
(286,611,ls),
(307,611,o),
(315,601,o),
(315,572,cs),
(315,544,o),
(303,533,o),
(286,533,cs),
(265,533,l)
);
}
);
width = 600;
},
{
layerId = m005;
shapes = (
{
closed = 1;
nodes = (
(397,292,o),
(500,395,o),
(500,522,cs),
(500,649,o),
(397,752,o),
(270,752,cs),
(143,752,o),
(40,649,o),
(40,522,cs),
(40,395,o),
(143,292,o),
(270,292,cs)
);
},
{
closed = 1;
nodes = (
(72,632,o),
(160,720,o),
(270,720,cs),
(380,720,o),
(468,632,o),
(468,522,cs),
(468,412,o),
(380,324,o),
(270,324,cs),
(160,324,o),
(72,412,o),
(72,522,cs)
);
},
{
closed = 1;
nodes = (
(271,416,l),
(271,433,l),
(235,443,l),
(235,511,l),
(266,511,l),
(327,416,l),
(406,416,l),
(406,433,l),
(389,438,ls),
(376,442,o),
(363,449,o),
(359,455,cs),
(313,518,l),
(342,527,o),
(363,554,o),
(363,582,cs),
(363,614,o),
(327,637,o),
(275,637,cs),
(151,637,l),
(151,620,l),
(182,611,l),
(182,443,l),
(151,433,l),
(151,416,l)
);
},
{
closed = 1;
nodes = (
(235,611,l),
(264,611,ls),
(294,611,o),
(305,601,o),
(305,572,cs),
(305,544,o),
(288,533,o),
(265,533,cs),
(235,533,l)
);
}
);
width = 600;
}
);
unicode = 174;
},
{
color = 0;
export = 0;
glyphname = trademark;
lastChange = "2024-12-30 22:53:09 +0000";
layers = (
{
associatedMasterId = m005;
layerId = m01;
name = Regular;
shapes = (
{
closed = 1;
nodes = (
(376,669,l),
(376,533,l),
(361,526,l),
(361,515,l),
(432,515,l),
(432,526,l),
(416,533,l),
(416,675,l),
(444,683,l),
(444,698,l),
(361,698,l),
(319,592,l),
(262,698,l),
(196,698,l),
(196,683,l),
(221,675,l),
(221,533,l),
(206,526,l),
(206,515,l),
(263,515,l),
(263,526,l),
(247,533,l),
(247,643,l),
(313,511,l)
);
},
{
closed = 1;
nodes = (
(159,515,l),
(159,526,l),
(123,533,l),
(123,680,l),
(149,680,l),
(170,626,l),
(184,626,l),
(176,698,l),
(31,698,l),
(23,626,l),
(39,626,l),
(59,680,l),
(83,680,l),
(83,533,l),
(48,526,l),
(48,515,l)
);
}
);
width = 507;
},
{
associatedMasterId = m005;
hints = (
{
horizontal = 1;
place = (515,14.5);
type = Stem;
},
{
horizontal = 1;
place = (680,18);
type = Stem;
},
{
place = (75,40);
type = Stem;
},
{
place = (213,26);
type = Stem;
},
{
place = (368,40);
type = Stem;
},
{
horizontal = 1;
place = (683,15);
type = Stem;
}
);
layerId = "E0989092-07D5-4BE4-A82B-4E03160A36DB";
name = Black;
shapes = (
{
closed = 1;
nodes = (
(356,669,l),
(356,533,l),
(341,526,l),
(341,515,l),
(429,515,l),
(429,526,l),
(396,533,l),
(396,675,l),
(424,683,l),
(424,698,l),
(341,698,l),
(299,592,l),
(242,698,l),
(176,698,l),
(176,683,l),
(201,675,l),
(201,533,l),
(169,526,l),
(169,515,l),
(243,515,l),
(243,526,l),
(227,533,l),
(227,643,l),
(293,511,l)
);
},
{
closed = 1;
nodes = (
(139,515,l),
(139,526,l),
(103,533,l),
(103,680,l),
(129,680,l),
(150,626,l),
(164,626,l),
(156,698,l),
(11,698,l),
(3,626,l),
(19,626,l),
(39,680,l),
(63,680,l),
(63,533,l),
(28,526,l),
(28,515,l)
);
}
);
width = 512;
},
{
associatedMasterId = m005;
hints = (
{
horizontal = 1;
place = (428,73);
type = Stem;
},
{
horizontal = 1;
place = (545,75);
type = Stem;
},
{
place = (116,91);
type = Stem;
},
{
place = (214,81);
type = Stem;
},
{
place = (324,91);
type = Stem;
},
{
horizontal = 1;
place = (548,73);
type = Stem;
}
);
layerId = m003;
name = BlackCondensed;
shapes = (
{
closed = 1;
nodes = (
(315,669,l),
(315,533,l),
(305,526,l),
(305,515,l),
(367,515,l),
(367,526,l),
(344,533,l),
(344,675,l),
(364,683,l),
(364,698,l),
(305,698,l),
(275,592,l),
(234,698,l),
(188,698,l),
(188,683,l),
(205,675,l),
(205,533,l),
(183,526,l),
(183,515,l),
(235,515,l),
(235,526,l),
(224,533,l),
(224,643,l),
(271,511,l)
);
},
{
closed = 1;
nodes = (
(161,515,l),
(161,526,l),
(136,533,l),
(136,680,l),
(154,680,l),
(169,626,l),
(179,626,l),
(173,698,l),
(70,698,l),
(65,626,l),
(76,626,l),
(90,680,l),
(107,680,l),
(107,533,l),
(83,526,l),
(83,515,l)
);
}
);
width = 512;
},
{
layerId = m005;
shapes = (
{
closed = 1;
nodes = (
(376,669,l),
(376,533,l),
(361,526,l),
(361,515,l),
(432,515,l),
(432,526,l),
(416,533,l),
(416,675,l),
(444,683,l),
(444,698,l),
(361,698,l),
(319,592,l),
(262,698,l),
(196,698,l),
(196,683,l),
(221,675,l),
(221,533,l),
(206,526,l),
(206,515,l),
(263,515,l),
(263,526,l),
(247,533,l),
(247,643,l),
(313,511,l)
);
},
{
closed = 1;
nodes = (
(159,515,l),
(159,526,l),
(123,533,l),
(123,680,l),
(149,680,l),
(170,626,l),
(184,626,l),
(176,698,l),
(31,698,l),
(23,626,l),
(39,626,l),
(59,680,l),
(83,680,l),
(83,533,l),
(48,526,l),
(48,515,l)
);
}
);
width = 507;
}
);
unicode = 8482;
},
{
color = 3;
export = 0;
glyphname = bar;
lastChange = "2024-12-30 22:53:09 +0000";
layers = (
{
associatedMasterId = m005;
layerId = m01;
name = Regular;
shapes = (
{
closed = 1;
nodes = (
(181,-166,l),
(181,717,l),
(111,667,l),
(111,-216,l)
);
}
);
width = 292;
},
{
associatedMasterId = m005;
hints = (
{
horizontal = 1;
place = (717,-20);
target = down;
type = TopGhost;
},
{
place = (111,70);
type = Stem;
}
);
layerId = "E0989092-07D5-4BE4-A82B-4E03160A36DB";
name = Black;
shapes = (
{
closed = 1;
nodes = (
(181,-166,l),
(181,717,l),
(111,667,l),
(111,-216,l)
);
}
);
width = 302;
},
{
associatedMasterId = m005;
hints = (
{
horizontal = 1;
place = (551,-20);
target = down;
type = TopGhost;
},
{
place = (121,92);
type = Stem;
}
);
layerId = m003;
name = BlackCondensed;
shapes = (
{
closed = 1;
nodes = (
(171,-166,l),
(171,717,l),
(121,667,l),
(121,-216,l)
);
}
);
width = 302;
},
{
layerId = m005;
shapes = (
{
closed = 1;
nodes = (
(161,-166,l),
(161,717,l),
(131,667,l),
(131,-216,l)
);
}
);
width = 292;
}
);
unicode = 124;
},
{
color = 3;
export = 0;
glyphname = brokenbar;
lastChange = "2024-12-30 22:53:09 +0000";
layers = (
{
associatedMasterId = m005;
layerId = m01;
name = Regular;
shapes = (
{
closed = 1;
nodes = (
(181,334,l),
(181,717,l),
(111,667,l),
(111,284,l)
);
},
{
closed = 1;
nodes = (
(181,-166,l),
(181,217,l),
(111,167,l),
(111,-216,l)
);
}
);
width = 292;
},
{
associatedMasterId = m005;
hints = (
{
horizontal = 1;
place = (717,-20);
target = down;
type = TopGhost;
},
{
place = (111,70);
type = Stem;
}
);
layerId = "E0989092-07D5-4BE4-A82B-4E03160A36DB";
name = Black;
shapes = (
{
closed = 1;
nodes = (
(171,334,l),
(171,717,l),
(101,667,l),
(101,284,l)
);
},
{
closed = 1;
nodes = (
(171,-166,l),
(171,217,l),
(101,167,l),
(101,-216,l)
);
}
);
width = 282;
},
{
associatedMasterId = m005;
hints = (
{
horizontal = 1;
place = (549,-20);
target = down;
type = TopGhost;
},
{
place = (118,89);
type = Stem;
}
);
layerId = m003;
name = BlackCondensed;
shapes = (
{
closed = 1;
nodes = (
(161,334,l),
(161,717,l),
(111,667,l),
(111,284,l)
);
},
{
closed = 1;
nodes = (
(161,-166,l),
(161,217,l),
(111,167,l),
(111,-216,l)
);
}
);
width = 282;
},
{
layerId = m005;
shapes = (
{
closed = 1;
nodes = (
(181,334,l),
(181,717,l),
(111,667,l),
(111,284,l)
);
},
{
closed = 1;
nodes = (
(181,-166,l),
(181,217,l),
(111,167,l),
(111,-216,l)
);
}
);
width = 292;
}
);
unicode = 166;
},
{
color = 0;
export = 0;
glyphname = dagger;
lastChange = "2024-12-30 22:53:09 +0000";
layers = (
{
associatedMasterId = m005;
layerId = m01;
name = Regular;
shapes = (
{
closed = 1;
nodes = (
(220,331,l),
(220,584,l),
(308,584,l),
(341,644,l),
(220,644,l),
(220,733,l),
(140,733,l),
(140,644,l),
(53,644,l),
(16,584,l),
(140,584,l),
(140,331,l)
);
}
);
width = 387;
},
{
associatedMasterId = m005;
hints = (
{
horizontal = 1;
place = (584,60);
type = Stem;
},
{
place = (190,80);
type = Stem;
}
);
layerId = "E0989092-07D5-4BE4-A82B-4E03160A36DB";
name = Black;
shapes = (
{
closed = 1;
nodes = (
(220,331,l),
(220,584,l),
(308,584,l),
(341,644,l),
(220,644,l),
(220,733,l),
(140,733,l),
(140,644,l),
(53,644,l),
(16,584,l),
(140,584,l),
(140,331,l)
);
}
);
width = 377;
},
{
associatedMasterId = m005;
hints = (
{
horizontal = 1;
place = (466,94);
type = Stem;
},
{
place = (187,109);
type = Stem;
}
);
layerId = m003;
name = BlackCondensed;
shapes = (
{
closed = 1;
nodes = (
(208,331,l),
(208,584,l),
(270,584,l),
(294,644,l),
(208,644,l),
(208,733,l),
(151,733,l),
(151,644,l),
(89,644,l),
(63,584,l),
(151,584,l),
(151,331,l)
);
}
);
width = 377;
},
{
layerId = m005;
shapes = (
{
closed = 1;
nodes = (
(220,331,l),
(220,584,l),
(308,584,l),
(341,644,l),
(220,644,l),
(220,733,l),
(140,733,l),
(140,644,l),
(53,644,l),
(16,584,l),
(140,584,l),
(140,331,l)
);
}
);
width = 387;
}
);
unicode = 8224;
},
{
color = 0;
export = 0;
glyphname = literSign;
lastChange = "2024-12-30 22:53:09 +0000";
layers = (
{
associatedMasterId = m005;
layerId = m01;
name = Regular;
shapes = (
{
closed = 1;
nodes = (
(329,-14,o),
(373,3,o),
(408,26,c),
(408,59,l),
(381,40,o),
(344,21,o),
(300,21,cs),
(219,21,o),
(169,145,o),
(169,320,cs),
(169,531,o),
(216,681,o),
(282,681,cs),
(317,681,o),
(342,582,o),
(342,443,cs),
(342,257,o),
(211,125,o),
(26,125,c),
(6,90,l),
(256,90,o),
(432,249,o),
(432,473,cs),
(432,615,o),
(378,716,o),
(302,716,cs),
(171,716,o),
(79,535,o),
(79,280,cs),
(79,108,o),
(158,-14,o),
(280,-14,cs)
);
}
);
width = 498;
},
{
associatedMasterId = m005;
layerId = "E0989092-07D5-4BE4-A82B-4E03160A36DB";
name = Black;
shapes = (
{
closed = 1;
nodes = (
(339,-14,o),
(383,3,o),
(418,26,c),
(418,59,l),
(391,40,o),
(354,21,o),
(310,21,cs),
(229,21,o),
(179,145,o),
(179,320,cs),
(179,531,o),
(226,681,o),
(292,681,cs),
(327,681,o),
(352,582,o),
(352,443,cs),
(352,257,o),
(221,125,o),
(36,125,c),
(16,90,l),
(266,90,o),
(442,249,o),
(442,473,cs),
(442,615,o),
(388,716,o),
(312,716,cs),
(181,716,o),
(89,535,o),
(89,280,cs),
(89,108,o),
(168,-14,o),
(290,-14,cs)
);
}
);
width = 500;
},
{
associatedMasterId = m005;
layerId = m003;
name = BlackCondensed;
shapes = (
{
closed = 1;
nodes = (
(307,-14,o),
(338,3,o),
(363,26,c),
(363,59,l),
(344,40,o),
(318,21,o),
(287,21,cs),
(229,21,o),
(194,145,o),
(194,320,cs),
(194,531,o),
(227,681,o),
(274,681,cs),
(299,681,o),
(316,582,o),
(316,443,cs),
(316,257,o),
(223,125,o),
(92,125,c),
(78,90,l),
(255,90,o),
(380,249,o),
(380,473,cs),
(380,615,o),
(342,716,o),
(288,716,cs),
(195,716,o),
(130,535,o),
(130,280,cs),
(130,108,o),
(186,-14,o),
(272,-14,cs)
);
}
);
width = 500;
},
{
layerId = m005;
shapes = (
{
closed = 1;
nodes = (
(329,-14,o),
(373,3,o),
(408,26,c),
(408,59,l),
(381,40,o),
(344,21,o),
(300,21,cs),
(219,21,o),
(169,145,o),
(169,320,cs),
(169,531,o),
(216,681,o),
(282,681,cs),
(317,681,o),
(342,582,o),
(342,475,cs),
(342,321,o),
(211,189,o),
(26,125,c),
(6,90,l),
(256,154,o),
(432,313,o),
(432,505,cs),
(432,615,o),
(378,716,o),
(302,716,cs),
(171,716,o),
(79,535,o),
(79,280,cs),
(79,108,o),
(158,-14,o),
(280,-14,cs)
);
}
);
width = 498;
}
);
unicode = 8467;
},
{
color = 0;
export = 0;
glyphname = daggerdbl;
lastChange = "2024-12-30 22:53:09 +0000";
layers = (
{
associatedMasterId = m005;
layerId = m01;
name = Regular;
shapes = (
{
closed = 1;
nodes = (
(220,331,l),
(220,417,l),
(308,417,l),
(341,477,l),
(220,477,l),
(220,584,l),
(308,584,l),
(341,644,l),
(220,644,l),
(220,733,l),
(140,733,l),
(140,644,l),
(53,644,l),
(16,584,l),
(140,584,l),
(140,477,l),
(53,477,l),
(16,417,l),
(140,417,l),
(140,331,l)
);
}
);
width = 397;
},
{
associatedMasterId = m005;
hints = (
{
horizontal = 1;
place = (417,60);
type = Stem;
},
{
horizontal = 1;
place = (584,60);
type = Stem;
},
{
place = (190,80);
type = Stem;
}
);
layerId = "E0989092-07D5-4BE4-A82B-4E03160A36DB";
name = Black;
shapes = (
{
closed = 1;
nodes = (
(220,331,l),
(220,417,l),
(308,417,l),
(341,477,l),
(220,477,l),
(220,584,l),
(308,584,l),
(341,644,l),
(220,644,l),
(220,733,l),
(140,733,l),
(140,644,l),
(53,644,l),
(16,584,l),
(140,584,l),
(140,477,l),
(53,477,l),
(16,417,l),
(140,417,l),
(140,331,l)
);
}
);
width = 397;
},
{
associatedMasterId = m005;
hints = (
{
horizontal = 1;
place = (348,94);
type = Stem;
},
{
horizontal = 1;
place = (466,94);
type = Stem;
},
{
place = (187,109);
type = Stem;
}
);
layerId = m003;
name = BlackCondensed;
shapes = (
{
closed = 1;
nodes = (
(208,331,l),
(208,417,l),
(270,417,l),
(294,477,l),
(208,477,l),
(208,584,l),
(270,584,l),
(294,644,l),
(208,644,l),
(208,733,l),
(151,733,l),
(151,644,l),
(89,644,l),
(63,584,l),
(151,584,l),
(151,477,l),
(89,477,l),
(63,417,l),
(151,417,l),
(151,331,l)
);
}
);
width = 397;
},
{
layerId = m005;
shapes = (
{
closed = 1;
nodes = (
(220,331,l),
(220,417,l),
(308,417,l),
(341,477,l),
(220,477,l),
(220,584,l),
(308,584,l),
(341,644,l),
(220,644,l),
(220,733,l),
(140,733,l),
(140,644,l),
(53,644,l),
(16,584,l),
(140,584,l),
(140,477,l),
(53,477,l),
(16,417,l),
(140,417,l),
(140,331,l)
);
}
);
width = 397;
}
);
unicode = 8225;
},
{
color = 0;
export = 0;
glyphname = estimated;
lastChange = "2024-12-30 22:53:09 +0000";
layers = (
{
associatedMasterId = m005;
layerId = m01;
name = Regular;
shapes = (
{
closed = 1;
nodes = (
(541,-36,o),
(678,50,o),
(739,171,c),
(691,169,l),
(642,72,o),
(525,3,o),
(408,3,cs),
(323,3,o),
(224,47,o),
(169,109,c),
(169,283,l),
(760,283,l),
(760,492,o),
(614,639,o),
(408,639,cs),
(202,639,o),
(56,501,o),
(56,307,cs),
(56,106,o),
(202,-36,o),
(408,-36,cs)
);
},
{
closed = 1;
nodes = (
(169,496,l),
(216,556,o),
(315,599,o),
(407,599,cs),
(501,599,o),
(601,555,o),
(648,493,c),
(648,321,l),
(169,321,l)
);
}
);
width = 806;
},
{
associatedMasterId = m005;
hints = (
{
horizontal = 1;
place = (-36,39);
type = Stem;
},
{
horizontal = 1;
place = (283,38);
type = Stem;
},
{
horizontal = 1;
place = (599,40);
type = Stem;
},
{
place = (66,113);
type = Stem;
},
{
place = (658,112);
type = Stem;
}
);
layerId = "E0989092-07D5-4BE4-A82B-4E03160A36DB";
name = Black;
shapes = (
{
closed = 1;
nodes = (
(531,-36,o),
(668,50,o),
(729,171,c),
(681,169,l),
(632,72,o),
(515,3,o),
(398,3,cs),
(313,3,o),
(214,47,o),
(159,109,c),
(159,283,l),
(750,283,l),
(750,492,o),
(604,639,o),
(398,639,cs),
(192,639,o),
(46,501,o),
(46,307,cs),
(46,106,o),
(192,-36,o),
(398,-36,cs)
);
},
{
closed = 1;
nodes = (
(159,496,l),
(206,556,o),
(305,599,o),
(397,599,cs),
(491,599,o),
(591,555,o),
(638,493,c),
(638,321,l),
(159,321,l)
);
}
);
width = 806;
},
{
associatedMasterId = m005;
hints = (
{
horizontal = 1;
place = (90,143);
type = Stem;
},
{
horizontal = 1;
place = (316,142);
type = Stem;
},
{
horizontal = 1;
place = (541,144);
type = Stem;
},
{
place = (162,196);
type = Stem;
},
{
place = (583,195);
type = Stem;
}
);
layerId = m003;
name = BlackCondensed;
shapes = (
{
closed = 1;
nodes = (
(492,-36,o),
(590,50,o),
(633,171,c),
(599,169,l),
(564,72,o),
(481,3,o),
(398,3,cs),
(338,3,o),
(267,47,o),
(228,109,c),
(228,283,l),
(648,283,l),
(648,492,o),
(544,639,o),
(398,639,cs),
(252,639,o),
(148,501,o),
(148,307,cs),
(148,106,o),
(252,-36,o),
(398,-36,cs)
);
},
{
closed = 1;
nodes = (
(228,496,l),
(262,556,o),
(332,599,o),
(397,599,cs),
(464,599,o),
(535,555,o),
(568,493,c),
(568,321,l),
(228,321,l)
);
}
);
width = 806;
},
{
layerId = m005;
shapes = (
{
closed = 1;
nodes = (
(541,-36,o),
(678,50,o),
(739,171,c),
(691,169,l),
(642,72,o),
(525,3,o),
(408,3,cs),
(323,3,o),
(224,47,o),
(169,109,c),
(169,283,l),
(760,283,l),
(760,492,o),
(614,639,o),
(408,639,cs),
(202,639,o),
(56,501,o),
(56,307,cs),
(56,106,o),
(202,-36,o),
(408,-36,cs)
);
},
{
closed = 1;
nodes = (
(169,496,l),
(216,556,o),
(315,599,o),
(407,599,cs),
(501,599,o),
(601,555,o),
(648,493,c),
(648,321,l),
(169,321,l)
);
}
);
width = 806;
}
);
unicode = 8494;
},
{
color = 0;
export = 0;
glyphname = numero;
lastChange = "2024-12-30 22:53:09 +0000";
layers = (
{
associatedMasterId = m005;
layerId = m01;
name = Regular;
shapes = (
{
closed = 1;
nodes = (
(1235,0,l),
(1235,65,l),
(857,65,l),
(857,0,l)
);
},
{
pos = (30,0);
ref = N;
},
{
alignment = -1;
pos = (809,230);
ref = o;
scale = (0.8319,0.9407);
}
);
width = 1322;
},
{
associatedMasterId = m005;
layerId = "E0989092-07D5-4BE4-A82B-4E03160A36DB";
name = Black;
shapes = (
{
closed = 1;
nodes = (
(1225,0,l),
(1225,85,l),
(847,85,l),
(847,0,l)
);
},
{
pos = (10,0);
ref = N;
},
{
alignment = -1;
pos = (787,230);
ref = o;
scale = (0.8319,0.9407);
}
);
width = 1332;
},
{
associatedMasterId = m005;
layerId = m003;
name = BlackCondensed;
shapes = (
{
closed = 1;
nodes = (
(1063,0,l),
(1063,85,l),
(794,85,l),
(794,0,l)
);
},
{
pos = (10,0);
ref = N;
},
{
alignment = -1;
pos = (787,230);
ref = o;
scale = (0.8319,0.9407);
}
);
width = 1332;
},
{
layerId = m005;
shapes = (
{
closed = 1;
nodes = (
(1235,0,l),
(1235,65,l),
(857,65,l),
(857,0,l)
);
},
{
pos = (30,0);
ref = N;
},
{
alignment = -1;
pos = (809,230);
ref = o;
scale = (0.8319,0.9407);
}
);
width = 1322;
}
);
unicode = 8470;
},
{
color = 3;
glyphname = currency;
lastChange = "2024-12-30 22:42:35 +0000";
layers = (
{
associatedMasterId = m005;
layerId = m01;
name = Regular;
shapes = (
{
closed = 1;
nodes = (
(186,159,l),
(253,107,o),
(348,108,o),
(416,160,c),
(478,98,l),
(513,133,l),
(451,195,l),
(503,262,o),
(503,357,o),
(451,426,c),
(513,488,l),
(478,523,l),
(416,461,l),
(348,514,o),
(252,514,o),
(184,461,c),
(123,522,l),
(88,487,l),
(150,426,l),
(97,357,o),
(97,262,o),
(150,194,c),
(88,132,l),
(123,97,l)
);
},
{
closed = 1;
nodes = (
(147,266,o),
(147,353,o),
(202,409,cs),
(256,463,o),
(345,464,o),
(399,409,cs),
(454,354,o),
(454,266,o),
(399,211,cs),
(344,156,o),
(256,156,o),
(201,211,cs)
);
}
);
width = 600;
},
{
associatedMasterId = m005;
hints = (
{
horizontal = 1;
place = (120,50);
type = Stem;
},
{
horizontal = 1;
place = (450,51);
type = Stem;
},
{
place = (110,51);
type = Stem;
},
{
place = (440,50);
type = Stem;
}
);
layerId = "E0989092-07D5-4BE4-A82B-4E03160A36DB";
name = Black;
shapes = (
{
closed = 1;
nodes = (
(186,159,l),
(253,107,o),
(348,108,o),
(416,160,c),
(478,98,l),
(513,133,l),
(451,195,l),
(503,262,o),
(503,357,o),
(451,426,c),
(513,488,l),
(478,523,l),
(416,461,l),
(348,514,o),
(252,514,o),
(184,461,c),
(123,522,l),
(88,487,l),
(150,426,l),
(97,357,o),
(97,262,o),
(150,194,c),
(88,132,l),
(123,97,l)
);
},
{
closed = 1;
nodes = (
(147,266,o),
(147,353,o),
(202,409,cs),
(256,463,o),
(345,464,o),
(399,409,cs),
(454,354,o),
(454,266,o),
(399,211,cs),
(344,156,o),
(256,156,o),
(201,211,cs)
);
}
);
width = 601;
},
{
associatedMasterId = m005;
layerId = "4046A167-BC4B-49F8-B60D-0E7EEA82FD38";
name = Regular;
shapes = (
{
closed = 1;
nodes = (
(240,102,o),
(360,102,o),
(434,176,cs),
(509,250,o),
(509,370,o),
(434,445,cs),
(360,519,o),
(240,519,o),
(166,445,cs),
(92,370,o),
(92,250,o),
(166,176,cs)
);
},
{
closed = 1;
nodes = (
(214,187,l),
(179,223,l),
(88,132,l),
(123,97,l)
);
},
{
closed = 1;
nodes = (
(214,432,l),
(123,522,l),
(88,487,l),
(179,397,l)
);
},
{
closed = 1;
nodes = (
(513,133,l),
(422,223,l),
(387,188,l),
(478,98,l)
);
},
{
closed = 1;
nodes = (
(147,266,o),
(147,353,o),
(202,409,cs),
(256,463,o),
(345,464,o),
(399,409,cs),
(454,354,o),
(454,266,o),
(399,211,cs),
(344,156,o),
(256,156,o),
(201,211,cs)
);
},
{
closed = 1;
nodes = (
(513,488,l),
(478,523,l),
(387,433,l),
(422,397,l)
);
}
);
width = 600;
},
{
associatedMasterId = m005;
hints = (
{
horizontal = 1;
place = (172,123);
type = Stem;
},
{
horizontal = 1;
place = (407,123);
type = Stem;
},
{
place = (165,123);
type = Stem;
},
{
place = (400,123);
type = Stem;
}
);
layerId = m003;
name = BlackCondensed;
shapes = (
{
closed = 1;
nodes = (
(219,159,l),
(267,107,o),
(334,108,o),
(383,160,c),
(427,98,l),
(451,133,l),
(407,195,l),
(444,262,o),
(444,357,o),
(407,426,c),
(451,488,l),
(427,523,l),
(383,461,l),
(334,514,o),
(266,514,o),
(218,461,c),
(174,522,l),
(150,487,l),
(194,426,l),
(156,357,o),
(156,262,o),
(194,194,c),
(150,132,l),
(174,97,l)
);
},
{
closed = 1;
nodes = (
(192,266,o),
(192,353,o),
(231,409,cs),
(269,463,o),
(332,464,o),
(370,409,cs),
(409,354,o),
(409,266,o),
(370,211,cs),
(331,156,o),
(269,156,o),
(230,211,cs)
);
}
);
width = 601;
},
{
layerId = m005;
shapes = (
{
closed = 1;
nodes = (
(186,159,l),
(253,107,o),
(348,108,o),
(416,160,c),
(478,98,l),
(513,133,l),
(451,195,l),
(503,262,o),
(503,357,o),
(451,426,c),
(513,488,l),
(478,523,l),
(416,461,l),
(348,514,o),
(252,514,o),
(184,461,c),
(123,522,l),
(88,487,l),
(150,426,l),
(97,357,o),
(97,262,o),
(150,194,c),
(88,132,l),
(123,97,l)
);
},
{
closed = 1;
nodes = (
(147,266,o),
(147,353,o),
(202,409,cs),
(256,463,o),
(345,464,o),
(399,409,cs),
(454,354,o),
(454,266,o),
(399,211,cs),
(344,156,o),
(256,156,o),
(201,211,cs)
);
}
);
width = 600;
},
{
associatedMasterId = m005;
layerId = "033B9A9A-2F3C-47A4-B317-064FBE31FD8C";
name = "8. Jan. 24, 19:57";
shapes = (
{
closed = 1;
nodes = (
(240,102,o),
(360,102,o),
(434,176,cs),
(509,250,o),
(509,370,o),
(434,445,cs),
(360,519,o),
(240,519,o),
(166,445,cs),
(92,370,o),
(92,250,o),
(166,176,cs)
);
},
{
closed = 1;
nodes = (
(214,187,l),
(179,223,l),
(88,132,l),
(123,97,l)
);
},
{
closed = 1;
nodes = (
(214,432,l),
(123,522,l),
(88,487,l),
(179,397,l)
);
},
{
closed = 1;
nodes = (
(513,133,l),
(422,223,l),
(387,188,l),
(478,98,l)
);
},
{
closed = 1;
nodes = (
(147,266,o),
(147,353,o),
(202,409,cs),
(256,463,o),
(345,464,o),
(399,409,cs),
(454,354,o),
(454,266,o),
(399,211,cs),
(344,156,o),
(256,156,o),
(201,211,cs)
);
},
{
closed = 1;
nodes = (
(513,488,l),
(478,523,l),
(387,433,l),
(422,397,l)
);
}
);
width = 600;
}
);
unicode = 164;
},
{
color = 3;
glyphname = dollar;
lastChange = "2024-12-30 22:43:40 +0000";
layers = (
{
associatedMasterId = m005;
layerId = m01;
name = Regular;
shapes = (
{
closed = 1;
nodes = (
(298,-100,l),
(298,800,l),
(258,800,l),
(258,-100,l)
);
},
{
pos = (3,0);
ref = S;
}
);
width = 554;
},
{
associatedMasterId = m005;
hints = (
{
horizontal = 1;
place = (-16,21);
target = up;
type = BottomGhost;
},
{
horizontal = 1;
place = (717,-20);
target = down;
type = TopGhost;
},
{
place = (253,94);
type = Stem;
},
{
place = (400,165);
type = Stem;
},
{
horizontal = 1;
place = (716,-20);
target = down;
type = TopGhost;
},
{
place = (35,178);
type = Stem;
}
);
layerId = "E0989092-07D5-4BE4-A82B-4E03160A36DB";
name = Black;
shapes = (
{
closed = 1;
nodes = (
(321,-100,l),
(321,800,l),
(261,800,l),
(261,-100,l)
);
},
{
pos = (-5,0);
ref = S;
}
);
width = 560;
},
{
associatedMasterId = m005;
hints = (
{
horizontal = 1;
place = (70,21);
target = up;
type = BottomGhost;
},
{
horizontal = 1;
place = (590,-20);
target = down;
type = TopGhost;
},
{
place = (261,148);
type = Stem;
},
{
place = (365,198);
type = Stem;
},
{
horizontal = 1;
place = (590,-20);
target = down;
type = TopGhost;
},
{
place = (106,208);
type = Stem;
}
);
layerId = m003;
name = BlackCondensed;
shapes = (
{
closed = 1;
nodes = (
(309,-100,l),
(309,800,l),
(267,800,l),
(267,-100,l)
);
},
{
pos = (50,0);
ref = S;
}
);
width = 560;
},
{
layerId = m005;
shapes = (
{
closed = 1;
nodes = (
(269,-116,l),
(269,784,l),
(229,784,l),
(229,-116,l)
);
},
{
pos = (3,0);
ref = S;
}
);
width = 504;
}
);
unicode = 36;
},
{
color = 3;
glyphname = euro;
lastChange = "2025-01-02 14:42:36 +0000";
layers = (
{
associatedMasterId = m005;
layerId = m01;
name = Regular;
shapes = (
{
closed = 1;
nodes = (
(442,-15,o),
(519,13,o),
(577,52,c),
(577,200,l),
(539,200,l),
(539,97,o),
(486,24,o),
(410,24,cs),
(289,24,o),
(204,186,o),
(204,415,cs),
(204,568,o),
(273,676,o),
(370,676,cs),
(469,676,o),
(539,603,o),
(539,500,c),
(577,500,l),
(577,648,l),
(519,687,o),
(442,715,o),
(390,715,cs),
(217,713,o),
(95,561,o),
(95,347,cs),
(95,135,o),
(217,-15,o),
(390,-15,cs)
);
},
{
closed = 1;
nodes = (
(375,287,l),
(375,347,l),
(15,347,l),
(15,287,l)
);
},
{
closed = 1;
nodes = (
(375,407,l),
(375,467,l),
(15,467,l),
(15,407,l)
);
}
);
width = 622;
},
{
associatedMasterId = m005;
layerId = "E0989092-07D5-4BE4-A82B-4E03160A36DB";
name = Black;
shapes = (
{
closed = 1;
nodes = (
(422,-15,o),
(519,13,o),
(577,52,c),
(577,200,l),
(519,200,l),
(519,97,o),
(466,24,o),
(390,24,cs),
(269,24,o),
(224,186,o),
(224,415,cs),
(224,568,o),
(253,676,o),
(350,676,cs),
(449,676,o),
(519,603,o),
(519,500,c),
(577,500,l),
(577,648,l),
(519,687,o),
(422,715,o),
(370,715,cs),
(197,713,o),
(75,561,o),
(75,347,cs),
(75,135,o),
(197,-15,o),
(370,-15,cs)
);
},
{
closed = 1;
nodes = (
(355,287,l),
(355,347,l),
(-5,347,l),
(-5,287,l)
);
},
{
closed = 1;
nodes = (
(355,407,l),
(355,467,l),
(-5,467,l),
(-5,407,l)
);
}
);
width = 622;
},
{
associatedMasterId = m005;
layerId = m003;
name = BlackCondensed;
shapes = (
{
closed = 1;
nodes = (
(403,-15,o),
(481,13,o),
(523,52,c),
(523,180,l),
(471,180,l),
(471,77,o),
(434,24,o),
(380,24,cs),
(294,24,o),
(272,186,o),
(272,415,cs),
(272,568,o),
(283,676,o),
(351,676,cs),
(422,676,o),
(471,623,o),
(471,520,c),
(523,520,l),
(523,648,l),
(481,687,o),
(403,715,o),
(366,715,cs),
(243,713,o),
(96,561,o),
(96,347,cs),
(96,135,o),
(243,-15,o),
(366,-15,cs)
);
},
{
closed = 1;
nodes = (
(385,287,l),
(385,347,l),
(39,347,l),
(39,287,l)
);
},
{
closed = 1;
nodes = (
(385,407,l),
(385,467,l),
(39,467,l),
(39,407,l)
);
}
);
width = 622;
},
{
layerId = m005;
shapes = (
{
closed = 1;
nodes = (
(344,231,l),
(344,275,l),
(0,275,l),
(0,231,l)
);
},
{
closed = 1;
nodes = (
(344,351,l),
(344,395,l),
(0,395,l),
(0,351,l)
);
},
{
closed = 1;
nodes = (
(401,-11,o),
(484,9,o),
(537,38,c),
(556,113,o),
(572,180,o),
(575,201,c),
(539,200,l),
(514,100,o),
(438,29,o),
(355,29,cs),
(224,29,o),
(132,156,o),
(132,335,cs),
(132,484,o),
(221,590,o),
(347,590,cs),
(425,590,o),
(491,525,o),
(506,432,c),
(546,432,l),
(543,599,l),
(493,573,l),
(460,605,o),
(396,627,o),
(337,627,cs),
(172,627,o),
(56,496,o),
(56,312,cs),
(56,123,o),
(172,-11,o),
(337,-11,cs)
);
}
);
width = 616;
}
);
unicode = 8364;
},
